<?xml version="1.0" standalone="no"?>
<!DOCTYPE svg PUBLIC "-//W3C//DTD SVG 1.1//EN" "http://www.w3.org/Graphics/SVG/1.1/DTD/svg11.dtd" >
<svg xmlns="http://www.w3.org/2000/svg">
<metadata>
This is a custom SVG webfont generated by Font Squirrel.
Copyright   : Copyright c 1997 2002 2006 2007 Lucas de Groot published by LucasFonts
Designer    : Lucas de Groot
Foundry     : Lucas de Groot
Foundry URL : httpwwwlucasfontscom
</metadata>
<defs>
<font id="CorpidC4SCdBold" horiz-adv-x="1024" >
<font-face units-per-em="2048" ascent="1595" descent="-453" />
<missing-glyph horiz-adv-x="497" />
<glyph unicode=" "  horiz-adv-x="497" />
<glyph unicode="&#x09;" horiz-adv-x="497" />
<glyph unicode="&#xa0;" horiz-adv-x="497" />
<glyph unicode="!" horiz-adv-x="663" d="M217 131.5q0 65.5 44 110.5t107.5 45t107.5 -44t44 -110q0 -68 -43 -112t-108.5 -44t-108.5 44.5t-43 110zM233 1536h271l-31 -1122h-209z" />
<glyph unicode="&#x22;" horiz-adv-x="876" d="M121 1536h229l-26 -567h-177zM504 1536h227l-24 -567h-177z" />
<glyph unicode="#" d="M57 399v172h148l35 310h-138v170h156l41 379h188l-43 -379h209l41 379h189l-43 -379h131v-170h-150l-35 -310h136v-172h-152l-45 -399h-188l45 399h-207l-45 -399h-189l45 399h-129zM391 571h209l35 310h-209z" />
<glyph unicode="$" d="M102 63l43 201q147 -63 306 -63q98 0 155.5 48t57.5 128q0 39 -14.5 69.5t-29 49t-61.5 42t-70.5 33t-97.5 37.5q-139 53 -212 133t-73 221.5t87.5 242t228.5 122.5v219h186v-211q125 -10 234 -57l-47 -184q-123 49 -248 49q-90 0 -135 -43t-45 -113q0 -41 14 -70.5 t55 -54t75 -39t110 -43.5q145 -57 224 -139t79 -229q0 -158 -89.5 -258.5t-226.5 -135.5v-256h-186v238q-160 0 -320 63z" />
<glyph unicode="%" horiz-adv-x="1546" d="M63 1079q0 182 84 279.5t232 97.5q303 0 303 -375q0 -184 -85 -279t-230 -95q-304 -1 -304 372zM227 31l947 1460l141 -90l-948 -1460zM256 1081q0 -125 28.5 -177t88.5 -52q117 0 116 229q0 127 -28.5 177.5t-87.5 50.5q-117 -1 -117 -228zM864 348q0 182 84 279.5 t232 97.5q303 0 303 -373q0 -184 -85 -280.5t-231 -96.5q-303 0 -303 373zM1057 350q0 -125 28.5 -176t88.5 -51q117 0 116 227q0 127 -28.5 177.5t-87.5 50.5q-117 -1 -117 -228z" />
<glyph unicode="&#x26;" horiz-adv-x="1359" d="M100 358q0 236 228 404q-137 190 -138 350q0 158 98.5 251t264.5 93q147 0 245.5 -79t98.5 -224q0 -119 -61.5 -209t-210.5 -194q127 -150 307 -301q61 147 61 348h217q-4 -279 -112 -482q102 -80 221 -168l-131 -180q-23 18 -103.5 82t-117.5 94q-170 -170 -416 -170 q-211 0 -331 103.5t-120 281.5zM346 389q0 -106 62.5 -165.5t173.5 -59.5q133 0 229 106q-219 186 -356 342q-109 -98 -109 -223zM414 1126q0 -94 96 -239q92 70 130 126t38 122q0 68 -33 109.5t-100 41.5q-61 0 -96 -46t-35 -114z" />
<glyph unicode="'" horiz-adv-x="477" d="M121 1536h235l-26 -567h-183z" />
<glyph unicode="(" horiz-adv-x="636" d="M109 594q0 524 233 999l190 -73q-174 -444 -174 -924q0 -481 174 -926l-190 -73q-233 475 -233 997z" />
<glyph unicode=")" horiz-adv-x="636" d="M104 -330q174 442 174.5 923.5t-174.5 926.5l191 73q233 -475 233 -997q0 -524 -233 -999z" />
<glyph unicode="*" d="M117 1028l264 115l-264 114l106 179l226 -183l-41 297h208l-41 -297l226 183l106 -179l-264 -112l264 -117l-106 -178l-223 184l38 -297h-208l41 295l-226 -182z" />
<glyph unicode="+" d="M70 539v192h340v393h204v-393h340v-192h-340v-392h-204v392h-340z" />
<glyph unicode="," horiz-adv-x="524" d="M45 -254q125 152 125 225q0 27 -28.5 75t-28.5 97q0 68 41 111t108.5 43t110.5 -50t43 -134q0 -221 -266 -459z" />
<glyph unicode="-" horiz-adv-x="561" d="M70 463v201h483v-201h-483z" />
<glyph unicode="." horiz-adv-x="524" d="M109 141.5q0 67.5 44 112.5t109.5 45t110.5 -45t45 -112.5t-45 -112.5t-110.5 -45t-109.5 45t-44 112.5z" />
<glyph unicode="/" horiz-adv-x="870" d="M8 -264l613 1911l223 -64l-615 -1913z" />
<glyph unicode="0" horiz-adv-x="1191" d="M80 709q0 748 522 747q152 0 255.5 -56.5t156.5 -161.5t75.5 -229t22.5 -290q0 -350 -126 -548t-398 -198q-274 0 -391 189t-117 547zM344 723q0 -297 59.5 -424t198.5 -127q137 0 192.5 130t55.5 405q0 287 -57.5 420t-198.5 133q-131 0 -190.5 -131.5t-59.5 -405.5z " />
<glyph unicode="1" horiz-adv-x="702" d="M23 1219l315 213h219v-1432h-256v1192l-219 -137z" />
<glyph unicode="2" horiz-adv-x="962" d="M51 0v201l246 288q145 176 207.5 299t62.5 242q0 213 -205 213q-115 0 -245 -59l-43 198q180 74 356 74q209 0 316.5 -100.5t107.5 -284.5q0 -160 -85 -319.5t-259 -352.5l-162 -188h555v-211h-852z" />
<glyph unicode="3" horiz-adv-x="950" d="M39 6v187q127 -14 256 -15q137 0 206.5 62.5t69.5 167.5q0 233 -297 233h-98v190h96q135 0 207 62.5t72 163.5q0 90 -48 144t-149 54q-121 0 -254 -63l-39 190q188 74 359 74q193 0 301 -97t108 -263q0 -119 -69.5 -212t-186.5 -126v-4q131 -14 212 -108.5t81 -229.5 q0 -211 -145.5 -325t-394.5 -114q-150 0 -287 29z" />
<glyph unicode="4" horiz-adv-x="1073" d="M31 324v198l485 908h338v-904h182v-202h-182v-324h-248v324h-575zM236 526h370v686h-4z" />
<glyph unicode="5" horiz-adv-x="968" d="M88 6v187q125 -14 266 -15q135 0 209 66.5t74 199.5q0 238 -268 238q-68 0 -234 -18l12 766h672v-218h-459l-8 -338q61 6 127 7q205 0 317.5 -108.5t112.5 -305.5q0 -231 -141 -360.5t-383 -129.5q-141 0 -297 29z" />
<glyph unicode="6" horiz-adv-x="1085" d="M94 662q0 795 574 794q139 0 274 -51l-41 -176q-113 41 -237 41q-158 0 -237 -128t-83 -325l2 -6q115 90 277 90q197 0 291 -118.5t94 -307.5q0 -219 -124 -360.5t-343 -141.5q-242 0 -344.5 172.5t-102.5 516.5zM348 629q0 -254 48 -358.5t157 -104.5q96 0 148.5 80 t52.5 207q0 256 -191 256q-113 0 -215 -80z" />
<glyph unicode="7" horiz-adv-x="956" d="M45 1212v218h856v-218l-348 -860q-82 -199 -215 -379l-188 88q104 188 198 435l273 716h-576z" />
<glyph unicode="8" horiz-adv-x="1071" d="M74 334q0 123 66.5 216t199.5 175q-229 137 -229 367q0 160 114.5 263t319.5 103t310.5 -94t105.5 -246q0 -215 -234 -360q268 -156 268 -387q0 -188 -121.5 -294t-347.5 -106q-215 0 -333.5 91.5t-118.5 271.5zM328 354q0 -92 54 -142t159 -50q94 0 148 52t54 136 t-52 144.5t-173 128.5q-96 -63 -143 -125t-47 -144zM356 1096q0 -74 44 -130.5t145 -113.5q170 111 170 242q0 82 -47 129t-133 47q-84 0 -131.5 -49t-47.5 -125z" />
<glyph unicode="9" horiz-adv-x="1081" d="M74 950q0 221 124 363.5t341 142.5q240 0 345 -168t105 -518q0 -174 -30.5 -314.5t-97 -250t-181.5 -170t-270 -60.5q-147 0 -306 35l17 183q143 -29 293 -29q158 0 236.5 121t86.5 329v4q-119 -90 -276 -90q-197 0 -292 113.5t-95 308.5zM330 975q0 -254 188 -254 q109 0 217 80q-2 258 -51 360.5t-154 102.5q-96 0 -148 -79t-52 -210z" />
<glyph unicode=":" horiz-adv-x="561" d="M145 141.5q0 67.5 44 112.5t110 45t111 -45t45 -112.5t-45 -112.5t-111 -45t-110 45t-44 112.5zM145 881q0 66 44 111.5t110 45.5t111 -46t45 -111q0 -68 -45 -114t-111 -46t-110 46t-44 114z" />
<glyph unicode=";" horiz-adv-x="561" d="M82 -254q125 152 125 225q0 27 -28.5 75t-28.5 97q0 68 40.5 111t108.5 43t111 -50t43 -134q0 -221 -267 -459zM145 881q0 66 44 111.5t110 45.5t111 -46t45 -111q0 -68 -45 -114t-111 -46t-110 46t-44 114z" />
<glyph unicode="&#x3c;" d="M82 537v200l825 455v-227l-616 -326l616 -326v-231z" />
<glyph unicode="=" d="M100 322v190h824v-190h-824zM100 762v190h824v-190h-824z" />
<glyph unicode="&#x3e;" d="M117 82v227l616 326l-616 326v231l823 -455v-200z" />
<glyph unicode="?" horiz-adv-x="866" d="M115 1341v185q113 31 237 30q221 0 326.5 -95t105.5 -265q0 -94 -33.5 -176t-80.5 -143.5t-93.5 -125t-74 -149.5t-19.5 -188h-215q-16 117 3.5 212t60.5 159.5t84 121t75.5 120t32.5 130.5q0 199 -217 199q-96 -1 -192 -15zM229 131.5q0 65.5 44 110.5t107.5 45 t106.5 -44t43 -110q0 -68 -43 -112t-108 -44q-63 0 -106.5 44.5t-43.5 110z" />
<glyph unicode="@" horiz-adv-x="1619" d="M139 569q0 412 231.5 651.5t592.5 239.5q248 0 362.5 -110.5t114.5 -292.5v-733h-180l-21 118q-115 -143 -299 -143q-147 0 -234.5 82t-87.5 227q0 344 469 344h115v82q0 119 -60.5 180.5t-203.5 61.5q-254 0 -419 -184.5t-165 -501.5q0 -297 164 -486.5t449 -189.5 q227 0 424 104l55 -172q-227 -119 -508 -118q-362 0 -580.5 233t-218.5 608zM860 629q0 -70 35 -110t102 -40q104 0 205 119v197h-123q-219 0 -219 -166z" />
<glyph unicode="A" horiz-adv-x="1263" d="M35 0q180 702 440 1430h311q262 -723 443 -1430h-283q-51 221 -84 342h-485q-25 -94 -86 -342h-256zM424 543h391q-53 190 -153 512q-16 45 -41 133h-3q-10 -31 -40 -133q-78 -248 -154 -512z" />
<glyph unicode="B" horiz-adv-x="1122" d="M143 0v1430h389q215 0 329 -90.5t114 -268.5q0 -106 -47 -184t-129 -115q111 -25 181.5 -116t70.5 -226q0 -215 -141.5 -322.5t-360.5 -107.5h-406zM393 199h178q98 0 155.5 56t57.5 161q0 227 -243 227h-148v-444zM393 834h146q180 0 180 202q0 199 -201 199h-125v-401z " />
<glyph unicode="C" horiz-adv-x="1067" d="M84 694q0 356 165 558t445 202q182 0 330 -80l-76 -198q-119 61 -243 61q-168 0 -258.5 -143.5t-90.5 -378.5q0 -258 98.5 -389t272.5 -131q119 0 240 63l63 -201q-160 -82 -338 -82q-291 0 -449.5 184.5t-158.5 534.5z" />
<glyph unicode="D" horiz-adv-x="1302" d="M143 0v1430h439q307 0 474 -180.5t167 -514.5q0 -362 -176.5 -548.5t-491.5 -186.5h-412zM399 205h164q391 0 391 518q0 231 -94 367.5t-297 136.5h-164v-1022z" />
<glyph unicode="E" horiz-adv-x="1007" d="M143 0v1430h754v-203h-500v-385h430v-201h-430v-438h506v-203h-760z" />
<glyph unicode="F" horiz-adv-x="927" d="M143 0v1430h711v-203h-455v-414h406v-201h-406v-612h-256z" />
<glyph unicode="G" horiz-adv-x="1282" d="M80 698q0 350 176 552t485 202q223 0 420 -113l-80 -198q-168 98 -338 98q-190 0 -292.5 -141.5t-102.5 -382.5q0 -254 101.5 -389.5t285.5 -135.5q74 0 160 27v547h256v-713q-190 -76 -426 -76q-311 0 -478 188.5t-167 534.5z" />
<glyph unicode="H" horiz-adv-x="1296" d="M143 0v1430h256v-578h498v578h256v-1430h-256v631h-498v-631h-256z" />
<glyph unicode="I" horiz-adv-x="542" d="M143 0v1430h256v-1430h-256z" />
<glyph unicode="J" horiz-adv-x="657" d="M31 -2v201h94q74 0 103.5 46t29.5 163v1022h258v-1010q0 -217 -73.5 -328.5t-256.5 -111.5q-81 0 -155 18z" />
<glyph unicode="K" horiz-adv-x="1171" d="M143 0v1430h256v-576q225 301 428 576h308l-465 -568l477 -862h-301l-361 672l-86 -109v-563h-256z" />
<glyph unicode="L" horiz-adv-x="860" d="M143 0v1430h256v-1221h439v-209h-695z" />
<glyph unicode="M" horiz-adv-x="1748" d="M127 0q4 700 86 1430h377l287 -1047h4l288 1047h373q76 -700 82 -1430h-258q-6 680 -53 1155h-2l-324 -1155h-254l-319 1155h-2q-49 -596 -52 -1155h-233z" />
<glyph unicode="N" horiz-adv-x="1345" d="M143 0v1430h349l481 -1061h4v1061h227v-1430h-340l-491 1083h-4v-1083h-226z" />
<glyph unicode="O" horiz-adv-x="1409" d="M84 709q0 344 163 545.5t464 201.5q297 0 455.5 -189.5t158.5 -539.5q0 -354 -162 -554t-467 -200q-301 0 -456.5 188t-155.5 548zM354 729q0 -545 357 -545q180 0 262 144.5t82 378.5q0 539 -357 538q-180 0 -262 -143.5t-82 -372.5z" />
<glyph unicode="P" horiz-adv-x="1089" d="M143 0v1430h385q104 0 179 -17q147 -33 232 -140.5t85 -273.5q0 -233 -130 -359t-370 -126h-125v-514h-256zM399 715h140q106 0 160.5 71.5t54.5 194.5q0 88 -35 150.5t-98 82.5q-35 14 -107 15h-115v-514z" />
<glyph unicode="Q" horiz-adv-x="1413" d="M84 709q0 344 163 545.5t464 201.5q297 0 455.5 -189.5t158.5 -539.5q0 -330 -137 -522l211 -221l-137 -138l-218 228q-139 -100 -348 -101q-301 0 -456.5 188t-155.5 548zM354 729q0 -545 357 -545q100 0 170 60l-207 219l137 139l188 -199q55 113 56 304 q0 539 -357 538q-180 0 -262 -143.5t-82 -372.5z" />
<glyph unicode="R" horiz-adv-x="1124" d="M143 0v1430h414q215 0 337 -100.5t122 -285.5q0 -147 -67.5 -243t-182.5 -137l319 -664h-297l-270 602h-119v-602h-256zM399 797h117q113 0 170 61.5t57 161.5q0 90 -50 149.5t-161 59.5h-133v-432z" />
<glyph unicode="S" horiz-adv-x="964" d="M82 20l31 213q147 -49 278 -49q117 0 175.5 52.5t58.5 144.5q0 84 -53.5 136t-188.5 126q-156 84 -226.5 175t-70.5 233q0 188 127 296.5t326 108.5q156 0 278 -45l-37 -203q-111 43 -235 43q-90 0 -139.5 -47t-49.5 -121q0 -82 51.5 -133t170.5 -119q166 -90 242.5 -179 t76.5 -232q0 -217 -137 -332t-365 -115q-153 0 -313 47z" />
<glyph unicode="T" horiz-adv-x="1001" d="M20 1221v209h963v-209h-352v-1221h-258v1221h-353z" />
<glyph unicode="U" horiz-adv-x="1325" d="M139 508v922h258v-906q0 -168 72 -254t197 -86q127 0 197.5 86t70.5 250v910h252v-904q0 -270 -138.5 -410.5t-388 -140.5t-385 133.5t-135.5 399.5z" />
<glyph unicode="V" horiz-adv-x="1226" d="M20 1430h283q100 -461 281 -1027l41 -141h2l47 156q176 584 270 1012h260q-178 -709 -436 -1430h-313q-242 674 -435 1430z" />
<glyph unicode="W" horiz-adv-x="1880" d="M57 1430h279q70 -502 188 -1024q4 -23 15.5 -73t15.5 -69h2l37 189l209 977h293l215 -977l37 -189h2q6 29 18 85.5t16 76.5q125 571 187 1004h254q-117 -696 -314 -1430h-340l-202 932l-31 155h-2l-29 -155l-200 -932h-342q-191 707 -308 1430z" />
<glyph unicode="X" horiz-adv-x="1179" d="M14 0l402 743l-361 687h299l244 -496l238 496h290l-358 -680l397 -750h-305l-274 555l-273 -555h-299z" />
<glyph unicode="Y" horiz-adv-x="1101" d="M8 1430h285q127 -338 272 -603q162 299 264 603h265q-184 -475 -414 -836v-594h-256v594q-226 367 -416 836z" />
<glyph unicode="Z" horiz-adv-x="966" d="M51 0v201l561 1024h-536v205h821v-203l-561 -1022h575v-205h-860z" />
<glyph unicode="[" horiz-adv-x="659" d="M156 -367v1928h409v-179h-178v-1570h178v-179h-409z" />
<glyph unicode="\" horiz-adv-x="870" d="M27 1581l221 66l614 -1909l-221 -68z" />
<glyph unicode="]" horiz-adv-x="659" d="M94 -188h178v1570h-178v179h408v-1928h-408v179z" />
<glyph unicode="^" d="M86 727l285 703h295l295 -703h-248l-199 516l-186 -516h-242z" />
<glyph unicode="_" d="M0 -272h1024v-181h-1024v181z" />
<glyph unicode="`" horiz-adv-x="548" d="M0 1464l176 113l223 -305l-125 -84z" />
<glyph unicode="a" horiz-adv-x="1021" d="M68 289q0 340 473 340h114v67q0 104 -42 150.5t-150 46.5q-137 0 -281 -62l-41 179q170 70 355 69q401 0 401 -358v-721h-188l-17 106q-129 -135 -299 -135q-147 0 -236 83t-89 235zM311 303q0 -70 36 -109.5t106 -39.5q98 0 202 114v201h-125q-219 0 -219 -166z" />
<glyph unicode="b" horiz-adv-x="1107" d="M127 49v1487h246v-594q121 137 289 137q184 0 278 -143t94 -369q0 -266 -128 -425.5t-386 -159.5q-190 -1 -393 67zM373 213q74 -37 164 -37q240 0 239 365q0 338 -174 338q-59 0 -111.5 -35t-117.5 -121v-510z" />
<glyph unicode="c" horiz-adv-x="833" d="M72 506q0 270 127 418.5t342 148.5q139 0 241 -51l-51 -186q-92 41 -172 41q-117 0 -174 -92.5t-57 -256.5q0 -346 235 -346q100 0 185 41l40 -186q-125 -59 -276 -60q-219 0 -329.5 139.5t-110.5 389.5z" />
<glyph unicode="d" horiz-adv-x="1107" d="M74 485q0 258 122.5 421t362.5 163q96 0 176 -18v485h246v-1536h-188l-19 139q-137 -168 -317 -168q-193 0 -288 143.5t-95 370.5zM332 512q0 -338 178 -338q59 0 109.5 34t115.5 120v510q-74 37 -168 36q-235 0 -235 -362z" />
<glyph unicode="e" horiz-adv-x="1036" d="M74 516q0 264 121.5 413.5t347.5 149.5q410 0 409 -485q0 -12 -1 -55t-1 -66h-624q0 -152 60 -228.5t198 -76.5q156 0 313 45l25 -182q-182 -57 -375 -58q-240 0 -356.5 134.5t-116.5 408.5zM326 637h385v20q0 111 -42 176q-46 71 -139 70q-98 0 -149 -77.5t-55 -188.5z " />
<glyph unicode="f" horiz-adv-x="645" d="M35 862v189h139v98q0 201 71.5 305.5t248.5 104.5q78 0 149 -15v-176h-86q-86 0 -112.5 -53t-26.5 -158v-106h194v-189h-194v-862h-244v862h-139z" />
<glyph unicode="g" horiz-adv-x="1107" d="M74 496q0 260 129 417.5t387 157.5q199 0 391 -67v-971q0 -248 -118 -361.5t-363 -113.5q-166 0 -295 28l6 181q121 -14 274 -15q139 0 194.5 54.5t55.5 201.5v119q-119 -137 -282 -137q-188 0 -283.5 142.5t-95.5 363.5zM332 522q0 -332 180 -332q113 0 223 148v502 q-70 35 -166 34q-117 0 -177 -92t-60 -260z" />
<glyph unicode="h" horiz-adv-x="1114" d="M127 0v1536h246v-602q125 145 293 145q166 0 246.5 -108.5t80.5 -294.5v-676h-243v627q0 250 -150 250q-63 0 -113.5 -35t-113.5 -117v-725h-246z" />
<glyph unicode="i" horiz-adv-x="546" d="M31 862v189h389v-1051h-246v862h-143zM141 1366q0 66 42 109t108 43q68 0 109.5 -43t41.5 -109t-42 -107.5t-109 -41.5q-66 0 -108 41.5t-42 107.5z" />
<glyph unicode="j" horiz-adv-x="520" d="M-53 -428l8 188h78q59 0 86.5 45t27.5 150v1096h246v-1078q0 -223 -76.5 -320t-232.5 -97q-71 0 -137 16zM119 1366q0 66 43 109t108.5 43t108.5 -43t43 -109t-43 -107.5t-108.5 -41.5t-108.5 41.5t-43 107.5z" />
<glyph unicode="k" horiz-adv-x="1021" d="M127 0v1536h246v-862q276 346 301 377h295l-340 -371l375 -680h-289l-269 504l-73 -84v-420h-246z" />
<glyph unicode="l" horiz-adv-x="538" d="M127 221v1315h246v-1253q0 -104 73 -105h62v-178q-70 -20 -152 -20q-229 -1 -229 241z" />
<glyph unicode="m" horiz-adv-x="1673" d="M127 0v1051h188l21 -136q72 86 141.5 125t163.5 39q207 0 279 -176q72 92 143.5 134t169.5 42q319 0 319 -403v-676h-245v627q0 127 -28 188.5t-105 61.5q-61 0 -104.5 -34t-106.5 -118v-725h-244v625q0 129 -28.5 190.5t-106.5 61.5q-61 0 -103.5 -33t-107.5 -119v-725 h-246z" />
<glyph unicode="n" horiz-adv-x="1114" d="M127 0v1051h188l21 -136q74 86 148.5 125t172.5 39q172 0 254 -108.5t82 -294.5v-676h-243v627q0 250 -150 250q-63 0 -113.5 -35t-113.5 -117v-725h-246z" />
<glyph unicode="o" horiz-adv-x="1112" d="M72 510q0 266 129 417.5t364 151.5q231 0 353 -143t122 -401q0 -262 -128 -412t-365 -150q-231 0 -353 141.5t-122 395.5zM328 535q0 -367 231 -367q113 0 169 93t56 253q0 369 -233 369q-111 0 -167 -94t-56 -254z" />
<glyph unicode="p" horiz-adv-x="1107" d="M127 -418v1469h188l19 -140q137 168 317 168q193 0 288 -142t95 -372q0 -256 -123 -418.5t-362 -162.5q-98 0 -176 18v-420h-246zM373 215q72 -39 170 -39q115 0 174 94.5t59 270.5q0 338 -178 338q-59 0 -109.5 -35t-115.5 -121v-508z" />
<glyph unicode="q" horiz-adv-x="1107" d="M74 485q0 266 128 426t386 160q201 0 393 -67v-1422h-246v529q-125 -139 -286 -140q-186 0 -280.5 144.5t-94.5 369.5zM332 512q0 -338 176 -338q113 0 227 154v512q-70 35 -166 34q-117 0 -177 -93t-60 -269z" />
<glyph unicode="r" horiz-adv-x="716" d="M127 0v1051h190l23 -174q72 113 124 157.5t122 44.5q61 0 108 -16l-26 -232q-51 18 -97 19q-41 0 -83 -40t-115 -142v-668h-246z" />
<glyph unicode="s" horiz-adv-x="804" d="M76 12l33 197q129 -45 231 -45q72 0 110.5 30.5t38.5 88.5q0 49 -34.5 84.5t-124.5 78.5q-131 59 -190.5 128t-59.5 186q0 145 98 232t273 87q119 0 239 -35l-31 -188q-106 37 -194 37q-68 0 -101.5 -33t-33.5 -80q0 -49 32.5 -81.5t120.5 -73.5q141 -61 200.5 -134 t59.5 -188q0 -150 -103 -241t-286 -91q-135 0 -278 41z" />
<glyph unicode="t" horiz-adv-x="688" d="M35 862v189h133l57 305h189v-305h207v-189h-207v-514q0 -104 27.5 -138t103.5 -34h76v-174q-74 -25 -191 -25q-127 0 -194.5 67t-67.5 224v594h-133z" />
<glyph unicode="u" horiz-adv-x="1114" d="M121 375v676h246v-625q0 -125 33.5 -188.5t115.5 -63.5q63 0 111.5 35t115.5 117v725h244v-1051h-186l-23 137q-74 -86 -147.5 -126t-173.5 -40q-170 0 -253 110t-83 294z" />
<glyph unicode="v" horiz-adv-x="950" d="M29 1051h254q80 -369 170 -668q29 -96 36 -137h3q6 25 36 139q96 348 154 666h242q-125 -561 -306 -1051h-284q-188 510 -305 1051z" />
<glyph unicode="w" horiz-adv-x="1527" d="M37 1051h254q45 -266 133 -650q27 -115 39 -165h2l35 161l147 654h254l154 -656l35 -159h2q8 33 20 91t16 79q86 362 127 645h238q-100 -518 -274 -1051h-283l-150 633l-24 121h-4l-25 -121l-141 -633h-283q-176 545 -272 1051z" />
<glyph unicode="x" horiz-adv-x="995" d="M31 0l288 541l-268 510h279l174 -363l172 363h262l-258 -500l285 -551h-285l-184 391l-187 -391h-278z" />
<glyph unicode="y" horiz-adv-x="952" d="M29 1051h256q59 -276 174 -664q8 -25 39 -137h4q6 23 18 70t19 69q88 324 145 662h240q-147 -692 -303 -1051q-111 -250 -213.5 -346t-231.5 -96q-68 0 -131 22l8 180h109q53 0 95 50.5t99 185.5q-208 502 -327 1055z" />
<glyph unicode="z" horiz-adv-x="856" d="M72 0v188l413 664h-389v199h670v-189l-410 -663h437v-199h-721z" />
<glyph unicode="{" horiz-adv-x="696" d="M53 528v185q170 10 170 250v200q0 211 58.5 309.5t207.5 98.5q57 0 119 -15v-174h-65q-53 0 -72.5 -44t-19.5 -179v-190q0 -133 -49.5 -227.5t-155.5 -118.5q106 -27 155.5 -122t49.5 -229v-237q0 -135 19 -179t73 -44h65v-174q-61 -14 -119 -15q-150 0 -208 98.5 t-58 309.5v248q0 243 -170 249z" />
<glyph unicode="|" d="M397 -418v1995h230v-1995h-230z" />
<glyph unicode="}" horiz-adv-x="694" d="M86 -188h64q53 0 73.5 44t20.5 179v237q0 299 205 349q-205 47 -205 348v190q0 135 -20.5 179t-73.5 44h-64v174q57 14 119 15q150 0 208 -98.5t58 -309.5v-200q0 -240 168 -250v-185q-168 -6 -168 -249v-248q0 -209 -59.5 -308.5t-206.5 -99.5q-61 0 -119 15v174z" />
<glyph unicode="~" d="M61 881v34q0 168 74 264.5t195 96.5q76 0 125 -31t94 -86q12 -14 35.5 -44t34 -41t30 -21.5t39.5 -10.5q94 0 94 195h181v-35q0 -170 -74 -266t-195 -96q-127 0 -221 116q-10 12 -34.5 44t-35 41.5t-29 20.5t-38.5 11q-92 0 -96 -192h-179z" />
<glyph unicode="&#xa1;" horiz-adv-x="663" d="M143 1073.5q0 65.5 44 110.5t107.5 45t107.5 -45t44 -110.5t-43 -109.5t-108.5 -44t-108.5 44t-43 109.5zM160 -332l30 1125h209l31 -1125h-270z" />
<glyph unicode="&#xa2;" d="M129 711q0 227 104.5 365t274.5 163v191h184v-183q109 -10 215 -67l-63 -183q-109 57 -203 58q-121 0 -190.5 -87t-69.5 -241q0 -170 67.5 -256t190.5 -86q119 0 227 64l56 -179q-115 -61 -230 -77v-193h-184v193q-178 20 -278.5 154.5t-100.5 363.5z" />
<glyph unicode="&#xa3;" d="M84 633v182h133q-20 168 -20 242q0 186 106.5 289.5t314.5 103.5q141 0 254 -27v-192q-109 25 -223 24q-111 0 -159 -47t-48 -145q0 -100 27 -248h336v-182h-303q23 -270 -117 -428h549v-205h-828v182q96 102 130 203.5t20 247.5h-172z" />
<glyph unicode="&#xa4;" d="M63 109l136 221q-84 109 -84 299q0 197 88 313l-140 225l193 97l111 -213q59 33 153 32.5t139 -30.5l111 211l191 -95l-136 -221q82 -115 82 -301q0 -188 -90 -307l144 -229l-193 -99l-115 221q-57 -35 -151 -34q-86 0 -135 26l-113 -213zM334 649q0 -270 180 -270 q86 0 130 68.5t44 185.5q0 127 -45 200.5t-135 73.5q-84 0 -129 -71.5t-45 -186.5z" />
<glyph unicode="&#xa5;" d="M37 1430h260q90 -240 231 -498q123 227 211 498h248q-145 -377 -348 -693v-45h262v-157h-262v-179h262v-155h-262v-201h-250v201h-262v155h262v179h-262v157h262v45q-205 331 -352 693z" />
<glyph unicode="&#xa6;" d="M397 377h230v-795h-230v795zM397 811v784h230v-784h-230z" />
<glyph unicode="&#xa7;" horiz-adv-x="1083" d="M115 788q0 125 51 271.5t129 245.5q150 190 364 190q74 0 152 -14l-10 -189q-86 14 -150 15q-150 0 -149 -152q0 -57 48 -120.5t115.5 -130t135 -145.5t116 -198t48.5 -256q0 -131 -48.5 -275.5t-130.5 -240.5q-150 -190 -383 -190q-74 0 -149 16l10 197q72 -18 162 -19 q147 0 147 137q0 61 -47 130t-114.5 137.5t-135 148.5t-114.5 195.5t-47 246.5zM317 840q0 -102 38 -188.5t94.5 -150t114 -125t105.5 -140t62 -166.5q29 90 29 190q0 104 -38 192.5t-95.5 153t-115.5 123.5t-106.5 136t-62.5 161q-25 -106 -25 -186z" />
<glyph unicode="&#xa8;" horiz-adv-x="768" d="M0 1374.5q0 57.5 35 93t92 35.5t92 -35.5t35 -93t-35 -93.5t-92 -36t-92 36t-35 93.5zM385 1374.5q0 57.5 35 93t92 35.5t92 -35.5t35 -93t-35 -93.5t-92 -36t-92 36t-35 93.5z" />
<glyph unicode="&#xa9;" horiz-adv-x="1429" d="M68 696q0 295 186 501t461 206q272 0 456.5 -203t184.5 -500q0 -295 -186.5 -501.5t-458.5 -206.5q-276 0 -459.5 203.5t-183.5 500.5zM240 700q0 -227 136 -385.5t339 -158.5q201 0 335 155.5t134 384.5q0 227 -136.5 386t-336.5 159q-203 0 -337 -156t-134 -385z M406 684q0 188 92 286.5t247 98.5q90 0 166 -35l-41 -153q-51 25 -110 24q-72 0 -109 -55t-37 -152q0 -205 148 -204q63 0 123 26l35 -151q-100 -45 -201 -45q-150 0 -231.5 91t-81.5 269z" />
<glyph unicode="&#xaa;" horiz-adv-x="845" d="M90 895q0 244 354 244h72v43q0 66 -29.5 94.5t-105.5 28.5q-111 0 -203 -41l-33 137q127 49 263 49q307 0 307 -260v-502h-152l-18 88q-84 -109 -219 -108q-104 0 -170 58t-66 169zM117 367v174h598v-174h-598zM289 907q0 -45 23.5 -71.5t66.5 -26.5q68 0 137 86v117h-80 q-78 0 -112.5 -25t-34.5 -80z" />
<glyph unicode="&#xab;" horiz-adv-x="1093" d="M78 573l268 478l176 -70l-196 -408l196 -407l-176 -70zM485 573l260 451l175 -68l-189 -383l189 -383l-175 -67z" />
<glyph unicode="&#xac;" d="M63 545v192h871v-456h-201v264h-670z" />
<glyph unicode="&#xad;" horiz-adv-x="561" d="M70 463v201h483v-201h-483z" />
<glyph unicode="&#xae;" horiz-adv-x="1062" d="M90 1094q0 190 128 323t312 133q188 0 314.5 -131t126.5 -323q0 -190 -128 -323.5t-313 -133.5q-188 0 -314 131t-126 324zM221 1098q0 -143 91 -241.5t218 -98.5q135 0 223.5 97t88.5 235q0 145 -91.5 242.5t-220.5 97.5q-133 0 -221 -97.5t-88 -234.5zM367 862v475h182 q74 0 120 -34.5t46 -98.5q0 -102 -74 -135l86 -207h-141l-60 176h-37v-176h-122zM489 1133h31q66 0 66 61q0 53 -62 53h-35v-114z" />
<glyph unicode="&#xaf;" horiz-adv-x="587" d="M0 1290v168h539v-168h-539z" />
<glyph unicode="&#x2c9;" horiz-adv-x="587" d="M0 1290v168h539v-168h-539z" />
<glyph unicode="&#xb0;" horiz-adv-x="698" d="M74 1243q0 117 78.5 196t201.5 79q121 0 196 -74t75 -193q0 -117 -80 -195.5t-199 -78.5q-123 0 -197.5 73.5t-74.5 192.5zM242 1249q0 -55 30.5 -91t77.5 -36t77 35t30 88q0 57 -31 92t-78 35t-76.5 -35t-29.5 -88z" />
<glyph unicode="&#xb1;" d="M80 725v193h330v385h204v-385h330v-193h-330v-383h-204v383h-330zM90 0v193h844v-193h-844z" />
<glyph unicode="&#xb2;" horiz-adv-x="710" d="M59 793v145l177 186q143 145 143 268.5t-125 123.5q-78 0 -152 -35l-36 149q111 49 260 49q145 0 220 -64.5t75 -182.5q0 -98 -45.5 -177t-155.5 -188l-107 -111h330v-163h-584z" />
<glyph unicode="&#xb3;" horiz-adv-x="712" d="M66 786v144q76 -10 172 -10q164 0 163 118q0 127 -188 127h-66v140h72q80 0 126 32.5t46 87.5q0 100 -121 101q-94 0 -172 -33l-32 143q119 43 262 43q133 0 210.5 -61.5t77.5 -167.5q0 -76 -44 -128t-111 -73q80 -14 130 -70.5t50 -140.5q0 -123 -98.5 -197.5 t-247.5 -74.5q-133 0 -229 20z" />
<glyph unicode="&#xb4;" horiz-adv-x="579" d="M0 1270l225 307l178 -111l-280 -278z" />
<glyph unicode="&#xb5;" horiz-adv-x="1163" d="M127 -424v1475h246v-625q0 -125 33.5 -188.5t115.5 -63.5q63 0 111.5 35t116.5 117v725h243v-734q0 -82 23.5 -111.5t75.5 -29.5h36v-178q-88 -20 -131 -21q-180 0 -223 154q-133 -154 -282 -154q-82 0 -123 56v-154v-303h-242z" />
<glyph unicode="&#x3bc;" horiz-adv-x="1163" d="M127 -424v1475h246v-625q0 -125 33.5 -188.5t115.5 -63.5q63 0 111.5 35t116.5 117v725h243v-734q0 -82 23.5 -111.5t75.5 -29.5h36v-178q-88 -20 -131 -21q-180 0 -223 154q-133 -154 -282 -154q-82 0 -123 56v-154v-303h-242z" />
<glyph unicode="&#xb6;" horiz-adv-x="1153" d="M37 997q0 186 119.5 309.5t312.5 123.5h541v-1663h-189v1478h-172v-1478h-190v802q-184 -8 -303 113.5t-119 314.5z" />
<glyph unicode="&#xb7;" horiz-adv-x="524" d="M109 637q0 68 44 113t109.5 45t110.5 -45t45 -113t-45 -113t-110.5 -45t-109.5 45t-44 113z" />
<glyph unicode="&#x2219;" horiz-adv-x="524" d="M109 637q0 68 44 113t109.5 45t110.5 -45t45 -113t-45 -113t-110.5 -45t-109.5 45t-44 113z" />
<glyph unicode="&#xb8;" horiz-adv-x="575" d="M78 -199h162q47 0 47 23q0 18 -11 41l-53 135h183l40 -90q41 -84 41 -137q0 -68 -55 -105t-160 -37q-106 0 -194 31v139z" />
<glyph unicode="&#xb9;" horiz-adv-x="565" d="M29 1513l221 148h182v-868h-221v651l-131 -74z" />
<glyph unicode="&#xba;" horiz-adv-x="884" d="M76 1047q0 190 94 296.5t272 106.5q174 0 264.5 -100.5t90.5 -282.5q0 -184 -95.5 -291.5t-271.5 -107.5q-178 0 -266 100.5t-88 278.5zM133 367v174h612v-174h-612zM283 1065q0 -244 157 -244q74 0 112 63.5t38 166.5q0 248 -156 247q-76 0 -113.5 -63.5t-37.5 -169.5z " />
<glyph unicode="&#xbb;" horiz-adv-x="1093" d="M174 190l188 383l-188 383l174 68l260 -451l-260 -450zM571 166l197 407l-197 408l177 70l268 -478l-268 -477z" />
<glyph unicode="&#xbc;" horiz-adv-x="1357" d="M29 1294l229 142h172v-721h-223v502l-133 -74zM113 31l948 1460l139 -90l-948 -1460zM705 125v147l251 443h277v-436h98v-154h-98v-125h-189v125h-339zM866 279h178v307h-2z" />
<glyph unicode="&#xbd;" horiz-adv-x="1449" d="M29 1294l229 142h172v-721h-223v502l-133 -74zM113 31l948 1460l139 -90l-948 -1460zM840 0v145l151 148q70 70 95.5 114t25.5 89q0 86 -96 86q-61 0 -131 -33l-39 141q111 49 246 49q270 0 270 -211q0 -74 -41 -139t-141 -151l-80 -68h282v-170h-542z" />
<glyph unicode="&#xbe;" horiz-adv-x="1437" d="M63 711v129q74 -8 160 -9q133 0 133 91q0 55 -35.5 76.5t-107.5 21.5h-72v131h78q127 0 127 94q0 72 -90 72q-80 0 -152 -31l-38 125q123 43 253 43q256 0 256 -190q0 -133 -120 -168q72 -10 108.5 -57.5t36.5 -114.5q0 -117 -85 -175.5t-224 -58.5q-105 1 -228 21z M203 31l948 1460l139 -90l-948 -1460zM784 125v147l252 443h277v-436h98v-154h-98v-125h-189v125h-340zM946 279h178v307h-2z" />
<glyph unicode="&#xbf;" horiz-adv-x="866" d="M82 8q0 94 34 176t81 143.5t92 125t72.5 150.5t19.5 190h217q16 -117 -3.5 -213.5t-60 -161t-83.5 -119.5t-76 -118.5t-33 -131.5q0 -201 215 -201q94 0 195 15v-185q-113 -31 -238 -30q-223 0 -327.5 96t-104.5 264zM334 1073.5q0 65.5 44 110.5t107.5 45t107.5 -45 t44 -110.5t-44 -109.5t-108 -44q-66 0 -108.5 44t-42.5 109.5z" />
<glyph unicode="&#xc0;" horiz-adv-x="1263" d="M35 0q180 702 440 1430h311q262 -723 443 -1430h-283q-51 221 -84 342h-485q-25 -94 -86 -342h-256zM307 1667l86 166l350 -184l-65 -123zM424 543h391q-53 190 -153 512q-16 45 -41 133h-3q-10 -31 -40 -133q-78 -248 -154 -512z" />
<glyph unicode="&#xc1;" horiz-adv-x="1263" d="M35 0q180 702 440 1430h311q262 -723 443 -1430h-283q-51 221 -84 342h-485q-25 -94 -86 -342h-256zM424 543h391q-53 190 -153 512q-16 45 -41 133h-3q-10 -31 -40 -133q-78 -248 -154 -512zM475 1649l348 184l88 -166l-370 -141z" />
<glyph unicode="&#xc2;" horiz-adv-x="1263" d="M35 0q180 702 440 1430h311q262 -723 443 -1430h-283q-51 221 -84 342h-485q-25 -94 -86 -342h-256zM340 1649l285 182l284 -180l-61 -123l-225 121l-224 -121zM424 543h391q-53 190 -153 512q-16 45 -41 133h-3q-10 -31 -40 -133q-78 -248 -154 -512z" />
<glyph unicode="&#xc3;" horiz-adv-x="1263" d="M35 0q180 702 440 1430h311q262 -723 443 -1430h-283q-51 221 -84 342h-485q-25 -94 -86 -342h-256zM268 1604q29 86 88.5 134t139.5 48q74 0 144.5 -43t107.5 -43q63 0 108 92l113 -74q-29 -86 -88.5 -134t-139.5 -48q-74 0 -144.5 43t-107.5 43q-63 0 -108 -92z M424 543h391q-53 190 -153 512q-16 45 -41 133h-3q-10 -31 -40 -133q-78 -248 -154 -512z" />
<glyph unicode="&#xc4;" horiz-adv-x="1263" d="M35 0q180 702 440 1430h311q262 -723 443 -1430h-283q-51 221 -84 342h-485q-25 -94 -86 -342h-256zM299 1655q0 55 34 90t87 35q55 0 88 -35t33 -90q0 -53 -33 -87t-88 -34q-53 0 -87 34t-34 87zM424 543h391q-53 190 -153 512q-16 45 -41 133h-3q-10 -31 -40 -133 q-78 -248 -154 -512zM707 1655q0 55 33.5 90t87 35t87 -35t33.5 -90q0 -53 -33.5 -87t-87 -34t-87 34t-33.5 87z" />
<glyph unicode="&#xc5;" horiz-adv-x="1263" d="M35 0q180 702 440 1430h311q262 -723 443 -1430h-283q-51 221 -84 342h-485q-25 -94 -86 -342h-256zM403 1696q0 96 59.5 151.5t172.5 55.5q111 0 168 -52.5t57 -144.5q0 -96 -60.5 -151.5t-172.5 -55.5q-224 0 -224 197zM424 543h391q-53 190 -153 512q-16 45 -41 133 h-3q-10 -31 -40 -133q-78 -248 -154 -512zM549 1702q0 -102 84 -103q82 0 82 99q0 102 -86 102q-80 0 -80 -98z" />
<glyph unicode="&#xc6;" horiz-adv-x="1622" d="M-23 0q270 696 631 1430h895v-203h-491v-385h430v-201h-430v-438h506v-203h-760v309h-408q-68 -176 -119 -309h-254zM424 510h334v719h-10q-205 -438 -324 -719z" />
<glyph unicode="&#xc7;" horiz-adv-x="1067" d="M84 694q0 356 165 558t445 202q182 0 330 -80l-76 -198q-119 61 -243 61q-168 0 -258.5 -143.5t-90.5 -378.5q0 -258 98.5 -389t272.5 -131q119 0 240 63l63 -201q-121 -66 -272 -77l30 -70q43 -84 43 -137q0 -68 -55 -105t-160 -37q-109 0 -194 31v139h162q47 0 47 23 q0 18 -10 41l-50 123q-225 31 -356 207.5t-131 498.5z" />
<glyph unicode="&#xc8;" horiz-adv-x="1007" d="M143 0v1430h754v-203h-500v-385h430v-201h-430v-438h506v-203h-760zM193 1667l86 166l350 -184l-66 -123z" />
<glyph unicode="&#xc9;" horiz-adv-x="1007" d="M143 0v1430h754v-203h-500v-385h430v-201h-430v-438h506v-203h-760zM375 1649l348 184l88 -166l-371 -141z" />
<glyph unicode="&#xca;" horiz-adv-x="1007" d="M143 0v1430h754v-203h-500v-385h430v-201h-430v-438h506v-203h-760zM236 1649l284 182l285 -180l-62 -123l-225 121l-223 -121z" />
<glyph unicode="&#xcb;" horiz-adv-x="1007" d="M143 0v1430h754v-203h-500v-385h430v-201h-430v-438h506v-203h-760zM197 1655q0 55 33.5 90t86.5 35q55 0 88 -35t33 -90q0 -53 -32.5 -87t-88.5 -34q-53 0 -86.5 34t-33.5 87zM604 1655q0 55 34 90t87 35t87 -35t34 -90q0 -53 -34 -87t-87 -34t-87 34t-34 87z" />
<glyph unicode="&#xcc;" horiz-adv-x="542" d="M0 1667l86 166l350 -184l-65 -123zM143 0v1430h256v-1430h-256z" />
<glyph unicode="&#xcd;" horiz-adv-x="542" d="M98 1649l348 184l89 -166l-371 -141zM143 0v1430h256v-1430h-256z" />
<glyph unicode="&#xce;" horiz-adv-x="542" d="M-14 1649l284 182l285 -180l-61 -123l-226 121l-223 -121zM143 0v1430h256v-1430h-256z" />
<glyph unicode="&#xcf;" horiz-adv-x="542" d="M-41 1655q0 55 34 90t87 35q55 0 88 -35t33 -90q0 -53 -33 -87t-88 -34q-51 0 -86 34t-35 87zM143 0v1430h256v-1430h-256zM342 1655q0 55 34 90t87 35t87 -35t34 -90q0 -53 -34 -87t-87 -34t-87 34t-34 87z" />
<glyph unicode="&#xd0;" horiz-adv-x="1323" d="M23 631v196h141v603h438q307 0 474 -180.5t167 -514.5q0 -362 -176 -548.5t-492 -186.5h-411v631h-141zM420 205h164q391 0 391 518q0 231 -94.5 367.5t-296.5 136.5h-164v-400h229v-196h-229v-426z" />
<glyph unicode="&#xd1;" horiz-adv-x="1345" d="M143 0v1430h349l481 -1061h4v1061h227v-1430h-340l-491 1083h-4v-1083h-226zM322 1604q29 86 88 134t139 48q74 0 144.5 -43t107.5 -43q63 0 108 92l113 -74q-29 -86 -88.5 -134t-138.5 -48q-74 0 -144.5 43t-107.5 43q-63 0 -109 -92z" />
<glyph unicode="&#xd2;" horiz-adv-x="1409" d="M84 709q0 344 163 545.5t464 201.5q297 0 455.5 -189.5t158.5 -539.5q0 -354 -162 -554t-467 -200q-301 0 -456.5 188t-155.5 548zM354 729q0 -545 357 -545q180 0 262 144.5t82 378.5q0 539 -357 538q-180 0 -262 -143.5t-82 -372.5zM377 1667l86 166l350 -184l-65 -123 z" />
<glyph unicode="&#xd3;" horiz-adv-x="1409" d="M84 709q0 344 163 545.5t464 201.5q297 0 455.5 -189.5t158.5 -539.5q0 -354 -162 -554t-467 -200q-301 0 -456.5 188t-155.5 548zM354 729q0 -545 357 -545q180 0 262 144.5t82 378.5q0 539 -357 538q-180 0 -262 -143.5t-82 -372.5zM598 1649l348 184l88 -166 l-370 -141z" />
<glyph unicode="&#xd4;" horiz-adv-x="1409" d="M84 709q0 344 163 545.5t464 201.5q297 0 455.5 -189.5t158.5 -539.5q0 -354 -162 -554t-467 -200q-301 0 -456.5 188t-155.5 548zM354 729q0 -545 357 -545q180 0 262 144.5t82 378.5q0 539 -357 538q-180 0 -262 -143.5t-82 -372.5zM420 1649l285 182l284 -180 l-61 -123l-226 121l-223 -121z" />
<glyph unicode="&#xd5;" horiz-adv-x="1409" d="M84 709q0 344 163 545.5t464 201.5q297 0 455.5 -189.5t158.5 -539.5q0 -354 -162 -554t-467 -200q-301 0 -456.5 188t-155.5 548zM348 1604q29 86 88.5 134t138.5 48q74 0 145 -43t107 -43q61 0 109 92l113 -74q-29 -86 -88.5 -134t-139.5 -48q-74 0 -144.5 43 t-107.5 43q-61 0 -108 -92zM354 729q0 -545 357 -545q180 0 262 144.5t82 378.5q0 539 -357 538q-180 0 -262 -143.5t-82 -372.5z" />
<glyph unicode="&#xd6;" horiz-adv-x="1409" d="M84 709q0 344 163 545.5t464 201.5q297 0 455.5 -189.5t158.5 -539.5q0 -354 -162 -554t-467 -200q-301 0 -456.5 188t-155.5 548zM354 729q0 -545 357 -545q180 0 262 144.5t82 378.5q0 539 -357 538q-180 0 -262 -143.5t-82 -372.5zM379 1655q0 55 33.5 90t87.5 35 q55 0 88 -35t33 -90q0 -53 -33 -87t-88 -34q-53 0 -87 34t-34 87zM786 1655q0 55 34 90t87.5 35t87 -35t33.5 -90q0 -53 -33.5 -87t-87 -34t-87.5 34t-34 87z" />
<glyph unicode="&#xd7;" d="M72 315l311 322l-309 321l133 134l307 -320l305 318l133 -129l-309 -322l311 -324l-135 -131l-307 320l-305 -320z" />
<glyph unicode="&#xd8;" horiz-adv-x="1409" d="M84 702q0 350 163 552t466 202q119 0 219 -39l100 225l158 -65l-103 -231q238 -174 238 -613q0 -358 -162 -559t-471 -201q-125 0 -211 35l-108 -241l-158 65l111 244q-242 165 -242 626zM338 715q0 -266 92 -396l420 904q-66 33 -150 32q-190 0 -276 -148t-86 -392z M565 205q57 -31 142 -31q98 0 170.5 42t113.5 120t59.5 173t18.5 214q0 260 -86 381z" />
<glyph unicode="&#xd9;" horiz-adv-x="1325" d="M139 508v922h258v-906q0 -168 72 -254t197 -86q127 0 197.5 86t70.5 250v910h252v-904q0 -270 -138.5 -410.5t-388 -140.5t-385 133.5t-135.5 399.5zM324 1667l86 166l350 -184l-66 -123z" />
<glyph unicode="&#xda;" horiz-adv-x="1325" d="M139 508v922h258v-906q0 -168 72 -254t197 -86q127 0 197.5 86t70.5 250v910h252v-904q0 -270 -138.5 -410.5t-388 -140.5t-385 133.5t-135.5 399.5zM586 1649l348 184l88 -166l-371 -141z" />
<glyph unicode="&#xdb;" horiz-adv-x="1325" d="M139 508v922h258v-906q0 -168 72 -254t197 -86q127 0 197.5 86t70.5 250v910h252v-904q0 -270 -138.5 -410.5t-388 -140.5t-385 133.5t-135.5 399.5zM383 1649l285 182l284 -180l-61 -123l-225 121l-224 -121z" />
<glyph unicode="&#xdc;" horiz-adv-x="1325" d="M139 508v922h258v-906q0 -168 72 -254t197 -86q127 0 197.5 86t70.5 250v910h252v-904q0 -270 -138.5 -410.5t-388 -140.5t-385 133.5t-135.5 399.5zM338 1655q0 55 34 90t87 35q55 0 88 -35t33 -90q0 -53 -33 -87t-88 -34q-53 0 -87 34t-34 87zM745 1655q0 55 34 90 t87.5 35t87 -35t33.5 -90q0 -53 -33.5 -87t-87 -34t-87.5 34t-34 87z" />
<glyph unicode="&#xdd;" horiz-adv-x="1101" d="M8 1430h285q127 -338 272 -603q162 299 264 603h265q-184 -475 -414 -836v-594h-256v594q-226 367 -416 836zM461 1649l348 184l88 -166l-371 -141z" />
<glyph unicode="&#xde;" horiz-adv-x="1089" d="M143 0v1430h256v-234h123q111 0 185 -16q147 -33 232 -140.5t85 -273.5q0 -233 -130 -359t-370 -126h-125v-281h-256zM399 481h140q106 0 160.5 72t54.5 195q0 88 -35 150.5t-98 82.5q-35 14 -107 14h-115v-514z" />
<glyph unicode="&#xdf;" horiz-adv-x="1130" d="M127 0v1059q0 236 119 369t336 133q190 0 291.5 -93.5t101.5 -230.5q0 -70 -22.5 -122t-55.5 -84t-64.5 -58.5t-54 -62.5t-22.5 -81q0 -51 33.5 -92t83 -74.5t98.5 -72.5t82.5 -105.5t33.5 -156.5q0 -158 -102 -255.5t-270 -97.5q-117 0 -203 31l29 189q74 -27 149 -27 q70 0 107 38t37 97q0 57 -34 101.5t-81 77t-94 69.5t-81 100.5t-34 149.5q0 78 34 140.5t72.5 94t72.5 79.5t34 102q0 66 -40 108.5t-118 42.5q-193 0 -192 -309v-1059h-246z" />
<glyph unicode="&#xe0;" horiz-adv-x="1021" d="M68 289q0 340 473 340h114v67q0 104 -42 150.5t-150 46.5q-137 0 -281 -62l-41 179q170 70 355 69q401 0 401 -358v-721h-188l-17 106q-129 -135 -299 -135q-147 0 -236 83t-89 235zM223 1464l176 113l224 -305l-125 -84zM311 303q0 -70 36 -109.5t106 -39.5 q98 0 202 114v201h-125q-219 0 -219 -166z" />
<glyph unicode="&#xe1;" horiz-adv-x="1021" d="M68 289q0 340 473 340h114v67q0 104 -42 150.5t-150 46.5q-137 0 -281 -62l-41 179q170 70 355 69q401 0 401 -358v-721h-188l-17 106q-129 -135 -299 -135q-147 0 -236 83t-89 235zM311 303q0 -70 36 -109.5t106 -39.5q98 0 202 114v201h-125q-219 0 -219 -166z M371 1270l225 307l178 -111l-280 -278z" />
<glyph unicode="&#xe2;" horiz-adv-x="1021" d="M68 289q0 340 473 340h114v67q0 104 -42 150.5t-150 46.5q-137 0 -281 -62l-41 179q170 70 355 69q401 0 401 -358v-721h-188l-17 106q-129 -135 -299 -135q-147 0 -236 83t-89 235zM223 1300l289 281l291 -281l-90 -112l-203 174l-203 -174zM311 303q0 -70 36 -109.5 t106 -39.5q98 0 202 114v201h-125q-219 0 -219 -166z" />
<glyph unicode="&#xe3;" horiz-adv-x="1021" d="M68 289q0 340 473 340h114v67q0 104 -42 150.5t-150 46.5q-137 0 -281 -62l-41 179q170 70 355 69q401 0 401 -358v-721h-188l-17 106q-129 -135 -299 -135q-147 0 -236 83t-89 235zM170 1319q61 190 219 190q72 0 140.5 -44t105.5 -44q63 0 106 95l109 -78 q-61 -190 -219 -191q-74 0 -143.5 44t-104.5 44q-61 0 -107 -96zM311 303q0 -70 36 -109.5t106 -39.5q98 0 202 114v201h-125q-219 0 -219 -166z" />
<glyph unicode="&#xe4;" horiz-adv-x="1021" d="M68 289q0 340 473 340h114v67q0 104 -42 150.5t-150 46.5q-137 0 -281 -62l-41 179q170 70 355 69q401 0 401 -358v-721h-188l-17 106q-129 -135 -299 -135q-147 0 -236 83t-89 235zM199 1374.5q0 57.5 34.5 93t92 35.5t92.5 -35.5t35 -93t-35 -93.5t-92.5 -36t-92 36 t-34.5 93.5zM311 303q0 -70 36 -109.5t106 -39.5q98 0 202 114v201h-125q-219 0 -219 -166zM584 1374.5q0 57.5 34.5 93t92 35.5t92.5 -35.5t35 -93t-35 -93.5t-92.5 -36t-92 36t-34.5 93.5z" />
<glyph unicode="&#xe5;" horiz-adv-x="1021" d="M68 289q0 340 473 340h114v67q0 104 -42 150.5t-150 46.5q-137 0 -281 -62l-41 179q170 70 355 69q401 0 401 -358v-721h-188l-17 106q-129 -135 -299 -135q-147 0 -236 83t-89 235zM287 1384q0 102 59.5 161t167.5 59q106 0 162.5 -55.5t56.5 -154t-60.5 -157.5 t-166.5 -59q-111 0 -165 55t-54 151zM311 303q0 -70 36 -109.5t106 -39.5q98 0 202 114v201h-125q-219 0 -219 -166zM428 1395q0 -111 84 -111q78 0 78 102q0 109 -82 109q-80 0 -80 -100z" />
<glyph unicode="&#xe6;" horiz-adv-x="1601" d="M68 293q0 342 464 342h119v61q0 104 -41 151.5t-149 47.5q-131 0 -279 -64l-41 179q170 70 353 69q221 0 309 -135q106 135 309 135q408 0 408 -481q0 -84 -2 -127h-625q0 -150 60.5 -227.5t195.5 -77.5q150 0 315 47l25 -182q-182 -57 -377 -58q-266 0 -369 166 q-145 -166 -354 -166q-147 0 -234 82t-87 238zM311 305q0 -70 36 -110.5t102 -40.5q109 0 202 127v192h-125q-215 0 -215 -168zM893 635h385q4 127 -42 197.5t-138 70.5q-98 0 -150.5 -77.5t-54.5 -190.5z" />
<glyph unicode="&#xe7;" horiz-adv-x="833" d="M72 506q0 270 127 418.5t342 148.5q139 0 241 -51l-51 -186q-92 41 -172 41q-117 0 -174 -92.5t-57 -256.5q0 -346 235 -346q100 0 185 41l40 -186q-86 -39 -182 -53l33 -74q43 -88 43 -137q0 -68 -55.5 -105t-162 -37t-192.5 31v139h162q47 0 47 23q0 10 -10 41l-49 121 q-174 27 -262 161t-88 359z" />
<glyph unicode="&#xe8;" horiz-adv-x="1036" d="M74 516q0 264 121.5 413.5t347.5 149.5q410 0 409 -485q0 -12 -1 -55t-1 -66h-624q0 -152 60 -228.5t198 -76.5q156 0 313 45l25 -182q-182 -57 -375 -58q-240 0 -356.5 134.5t-116.5 408.5zM258 1464l176 113l223 -305l-125 -84zM326 637h385q4 125 -42 195.5t-139 70.5 q-98 0 -149 -77.5t-55 -188.5z" />
<glyph unicode="&#xe9;" horiz-adv-x="1036" d="M74 516q0 264 121.5 413.5t347.5 149.5q410 0 409 -485q0 -12 -1 -55t-1 -66h-624q0 -152 60 -228.5t198 -76.5q156 0 313 45l25 -182q-182 -57 -375 -58q-240 0 -356.5 134.5t-116.5 408.5zM326 637h385q4 125 -42 195.5t-139 70.5q-98 0 -149 -77.5t-55 -188.5z M412 1270l225 307l178 -111l-280 -278z" />
<glyph unicode="&#xea;" horiz-adv-x="1036" d="M74 516q0 264 121.5 413.5t347.5 149.5q410 0 409 -485q0 -12 -1 -55t-1 -66h-624q0 -152 60 -228.5t198 -76.5q156 0 313 45l25 -182q-182 -57 -375 -58q-240 0 -356.5 134.5t-116.5 408.5zM242 1300l288 281l291 -281l-90 -112l-203 174l-202 -174zM326 637h385 q4 125 -42 195.5t-139 70.5q-98 0 -149 -77.5t-55 -188.5z" />
<glyph unicode="&#xeb;" horiz-adv-x="1036" d="M74 516q0 264 121.5 413.5t347.5 149.5q410 0 409 -485q0 -12 -1 -55t-1 -66h-624q0 -152 60 -228.5t198 -76.5q156 0 313 45l25 -182q-182 -57 -375 -58q-240 0 -356.5 134.5t-116.5 408.5zM213 1374.5q0 57.5 35 93t92 35.5t92 -35.5t35 -93t-35 -93.5t-92 -36t-92 36 t-35 93.5zM326 637h385q4 125 -42 195.5t-139 70.5q-98 0 -149 -77.5t-55 -188.5zM598 1374.5q0 57.5 35 93t92 35.5t92 -35.5t35 -93t-35 -93.5t-92 -36t-92 36t-35 93.5z" />
<glyph unicode="&#xec;" horiz-adv-x="546" d="M12 1464l176 113l224 -305l-125 -84zM31 862v189h389v-1051h-246v862h-143z" />
<glyph unicode="&#xed;" horiz-adv-x="546" d="M31 862v189h389v-1051h-246v862h-143zM119 1270l225 307l178 -111l-280 -278z" />
<glyph unicode="&#xee;" horiz-adv-x="546" d="M-8 1300l289 281l290 -281l-90 -112l-202 174l-203 -174zM31 862v189h389v-1051h-246v862h-143z" />
<glyph unicode="&#xef;" horiz-adv-x="546" d="M-33 1374.5q0 57.5 35 93t92.5 35.5t92 -35.5t34.5 -93t-34.5 -93.5t-92 -36t-92.5 36t-35 93.5zM31 862v189h389v-1051h-246v862h-143zM340 1374.5q0 57.5 36 93t93 35.5t92 -35.5t35 -93t-35 -93.5t-92 -36t-93 36t-36 93.5z" />
<glyph unicode="&#xf0;" horiz-adv-x="1116" d="M76 510q0 248 124 399.5t326 151.5q76 0 136 -37q-39 88 -117 199l-187 -72l-77 135l172 66q-68 82 -125 139l239 74q66 -68 119 -138l215 80l78 -135l-199 -74q248 -352 248 -731q0 -281 -130 -437.5t-361 -156.5q-229 0 -345 144.5t-116 392.5zM330 537 q0 -371 223 -371t223 373q0 135 -33 266q-100 70 -198 69q-106 0 -160.5 -97t-54.5 -240z" />
<glyph unicode="&#xf1;" horiz-adv-x="1114" d="M127 0v1051h188l21 -136q74 86 148.5 125t172.5 39q172 0 254 -108.5t82 -294.5v-676h-243v627q0 250 -150 250q-63 0 -113.5 -35t-113.5 -117v-725h-246zM221 1319q61 190 219 190q72 0 140.5 -44t105.5 -44q63 0 107 95l108 -78q-61 -190 -219 -191q-72 0 -141.5 44 t-106.5 44q-61 0 -106 -96z" />
<glyph unicode="&#xf2;" horiz-adv-x="1112" d="M72 510q0 266 129 417.5t364 151.5q231 0 353 -143t122 -401q0 -262 -128 -412t-365 -150q-231 0 -353 141.5t-122 395.5zM285 1464l176 113l223 -305l-125 -84zM328 535q0 -367 231 -367q113 0 169 93t56 253q0 369 -233 369q-111 0 -167 -94t-56 -254z" />
<glyph unicode="&#xf3;" horiz-adv-x="1112" d="M72 510q0 266 129 417.5t364 151.5q231 0 353 -143t122 -401q0 -262 -128 -412t-365 -150q-231 0 -353 141.5t-122 395.5zM328 535q0 -367 231 -367q113 0 169 93t56 253q0 369 -233 369q-111 0 -167 -94t-56 -254zM422 1270l225 307l178 -111l-280 -278z" />
<glyph unicode="&#xf4;" horiz-adv-x="1112" d="M72 510q0 266 129 417.5t364 151.5q231 0 353 -143t122 -401q0 -262 -128 -412t-365 -150q-231 0 -353 141.5t-122 395.5zM268 1300l289 281l291 -281l-90 -112l-203 174l-203 -174zM328 535q0 -367 231 -367q113 0 169 93t56 253q0 369 -233 369q-111 0 -167 -94 t-56 -254z" />
<glyph unicode="&#xf5;" horiz-adv-x="1112" d="M72 510q0 266 129 417.5t364 151.5q231 0 353 -143t122 -401q0 -262 -128 -412t-365 -150q-231 0 -353 141.5t-122 395.5zM219 1319q61 190 219 190q72 0 140.5 -44t105.5 -44q63 0 107 95l108 -78q-61 -190 -219 -191q-74 0 -143.5 44t-104.5 44q-61 0 -106 -96z M328 535q0 -367 231 -367q113 0 169 93t56 253q0 369 -233 369q-111 0 -167 -94t-56 -254z" />
<glyph unicode="&#xf6;" horiz-adv-x="1112" d="M72 510q0 266 129 417.5t364 151.5q231 0 353 -143t122 -401q0 -262 -128 -412t-365 -150q-231 0 -353 141.5t-122 395.5zM238 1374.5q0 57.5 34.5 93t92 35.5t92.5 -35.5t35 -93t-35 -93.5t-92.5 -36t-92 36t-34.5 93.5zM328 535q0 -367 231 -367q113 0 169 93t56 253 q0 369 -233 369q-111 0 -167 -94t-56 -254zM623 1374.5q0 57.5 34.5 93t92 35.5t92.5 -35.5t35 -93t-35 -93.5t-92.5 -36t-92 36t-34.5 93.5z" />
<glyph unicode="&#xf7;" d="M61 539v192h895v-192h-895zM358 225.5q0 63.5 44 107.5t107.5 44t106.5 -44t43 -108q0 -66 -43 -108.5t-108 -42.5q-63 0 -106.5 44t-43.5 107.5zM358 1048.5q0 63.5 43 107.5t106.5 44t107.5 -44t44 -107q0 -66 -43 -110t-106.5 -44t-107.5 45t-44 108.5z" />
<glyph unicode="&#xf8;" horiz-adv-x="1112" d="M72 510q0 266 129 417.5t364 151.5q86 0 150 -22l96 215l143 -53l-100 -220q186 -131 186 -462q0 -258 -130 -411t-363 -153q-92 0 -146 21l-96 -215l-143 53l96 217q-186 129 -186 461zM303 528q0 -180 59 -254l277 609q-39 16 -88 16q-123 0 -185.5 -101.5 t-62.5 -269.5zM477 168q37 -16 86 -16q123 0 184.5 101t61.5 267q0 176 -57 254z" />
<glyph unicode="&#xf9;" horiz-adv-x="1114" d="M121 375v676h246v-625q0 -125 33.5 -188.5t115.5 -63.5q63 0 111.5 35t115.5 117v725h244v-1051h-186l-23 137q-74 -86 -147.5 -126t-173.5 -40q-170 0 -253 110t-83 294zM283 1464l176 113l223 -305l-125 -84z" />
<glyph unicode="&#xfa;" horiz-adv-x="1114" d="M121 375v676h246v-625q0 -125 33.5 -188.5t115.5 -63.5q63 0 111.5 35t115.5 117v725h244v-1051h-186l-23 137q-74 -86 -147.5 -126t-173.5 -40q-170 0 -253 110t-83 294zM440 1270l226 307l178 -111l-281 -278z" />
<glyph unicode="&#xfb;" horiz-adv-x="1114" d="M121 375v676h246v-625q0 -125 33.5 -188.5t115.5 -63.5q63 0 111.5 35t115.5 117v725h244v-1051h-186l-23 137q-74 -86 -147.5 -126t-173.5 -40q-170 0 -253 110t-83 294zM274 1300l289 281l291 -281l-90 -112l-203 174l-203 -174z" />
<glyph unicode="&#xfc;" horiz-adv-x="1114" d="M121 375v676h246v-625q0 -125 33.5 -188.5t115.5 -63.5q63 0 111.5 35t115.5 117v725h244v-1051h-186l-23 137q-74 -86 -147.5 -126t-173.5 -40q-170 0 -253 110t-83 294zM248 1374.5q0 57.5 34.5 93t92 35.5t92.5 -35.5t35 -93t-35 -93.5t-92.5 -36t-92 36t-34.5 93.5z M633 1374.5q0 57.5 34.5 93t92 35.5t92.5 -35.5t35 -93t-35 -93.5t-92.5 -36t-92 36t-34.5 93.5z" />
<glyph unicode="&#xfd;" horiz-adv-x="952" d="M29 1051h256q59 -276 174 -664q8 -25 39 -137h4q6 23 18 70t19 69q88 324 145 662h240q-147 -692 -303 -1051q-111 -250 -213.5 -346t-231.5 -96q-68 0 -131 22l8 180h109q53 0 95 50.5t99 185.5q-208 502 -327 1055zM375 1270l225 307l178 -111l-280 -278z" />
<glyph unicode="&#xfe;" horiz-adv-x="1107" d="M127 -418v1954h246v-592q119 135 282 135q188 0 283.5 -143t95.5 -369q0 -258 -123 -420.5t-362 -162.5q-90 0 -176 16v-418h-246zM373 215q72 -39 170 -39q115 0 174 94.5t59 268.5q0 340 -180 340q-113 0 -223 -148v-516z" />
<glyph unicode="&#xff;" horiz-adv-x="952" d="M29 1051h256q59 -276 174 -664q8 -25 39 -137h4q6 23 18 70t19 69q88 324 145 662h240q-147 -692 -303 -1051q-111 -250 -213.5 -346t-231.5 -96q-68 0 -131 22l8 180h109q53 0 95 50.5t99 185.5q-208 502 -327 1055zM168 1374.5q0 57.5 35 93t92 35.5t92 -35.5t35 -93 t-35 -93.5t-92 -36t-92 36t-35 93.5zM553 1374.5q0 57.5 35 93t92 35.5t92 -35.5t35 -93t-35 -93.5t-92 -36t-92 36t-35 93.5z" />
<glyph unicode="&#x152;" horiz-adv-x="1740" d="M84 709q0 344 163 545.5t464 201.5q92 0 207 -26h710v-203h-498v-385h431v-201h-431v-438h506v-203h-731q-121 -27 -207 -27q-303 0 -458.5 185.5t-155.5 550.5zM354 729q0 -545 359 -545q82 0 164 39v981q-82 41 -177 41q-125 0 -204.5 -73.5t-110.5 -184.5t-31 -258z " />
<glyph unicode="&#x153;" horiz-adv-x="1742" d="M72 510q0 266 129 417.5t362.5 151.5t349.5 -172q111 172 340 172q408 0 408 -485q0 -12 -1 -55t-1 -66h-625q0 -152 59.5 -228.5t196.5 -76.5q158 0 316 45l24 -182q-182 -57 -375 -58q-250 0 -356 172q-121 -172 -354.5 -172t-353 142.5t-119.5 394.5zM328 535 q0 -367 233 -367q111 0 167 94t56 252q0 369 -231 369q-113 0 -169 -94t-56 -254zM1034 637h385q4 125 -42 195.5t-138 70.5q-98 0 -149.5 -77.5t-55.5 -188.5z" />
<glyph unicode="&#x178;" horiz-adv-x="1101" d="M8 1430h285q127 -338 272 -603q162 299 264 603h265q-184 -475 -414 -836v-594h-256v594q-226 367 -416 836zM231 1655q0 55 34 90t87 35q55 0 88 -35t33 -90q0 -53 -32.5 -87t-88.5 -34q-53 0 -87 34t-34 87zM639 1655q0 55 34 90t87 35t87 -35t34 -90q0 -53 -34 -87 t-87 -34t-87 34t-34 87z" />
<glyph unicode="&#x2c6;" horiz-adv-x="679" d="M0 1300l289 281l291 -281l-91 -112l-202 174l-203 -174z" />
<glyph unicode="&#x2dc;" horiz-adv-x="782" d="M0 1319q61 190 219 190q72 0 140.5 -44t105.5 -44q63 0 106 95l109 -78q-61 -190 -219 -191q-72 0 -141.5 44t-106.5 44q-61 0 -107 -96z" />
<glyph unicode="&#x2013;" d="M0 526v201h1024v-201h-1024z" />
<glyph unicode="&#x2014;" horiz-adv-x="1945" d="M166 526v203h1614v-203h-1614z" />
<glyph unicode="&#x2018;" horiz-adv-x="512" d="M106 1141q0 213 259 446l102 -90q-123 -143 -123 -219q0 -29 27.5 -74t27.5 -92q0 -66 -40 -107.5t-103 -41.5q-66 0 -108 49t-42 129z" />
<glyph unicode="&#x2019;" horiz-adv-x="512" d="M45 993q121 143 121 221q0 27 -26.5 73t-26.5 93q0 66 40 108t103 42q66 0 108 -49t42 -131q0 -213 -261 -445z" />
<glyph unicode="&#x201a;" horiz-adv-x="512" d="M45 -246q121 143 121 221q0 27 -27.5 73t-27.5 93q0 66 41 108t104 42q66 0 106.5 -49t40.5 -131q0 -211 -258 -447z" />
<glyph unicode="&#x201c;" horiz-adv-x="886" d="M109 1149q0 207 251 434l95 -88q-121 -139 -121 -215q0 -29 25.5 -75t25.5 -87q0 -59 -38 -99t-97 -40q-61 0 -101 46t-40 124zM496 1149q0 205 247 424l95 -86q-117 -135 -117 -207q0 -29 26.5 -74t26.5 -88q0 -59 -39 -99t-98 -40q-61 0 -101 46t-40 124z" />
<glyph unicode="&#x201d;" horiz-adv-x="886" d="M49 1008q115 129 115 206q0 29 -25.5 73t-25.5 87q0 61 37.5 101.5t97.5 40.5q61 0 101 -47.5t40 -122.5q0 -203 -246 -426zM430 997q123 141 123 217q0 27 -26.5 73t-26.5 87q0 61 37.5 101.5t99 40.5t101.5 -47.5t40 -125.5q0 -90 -61.5 -202.5t-192.5 -229.5z" />
<glyph unicode="&#x201e;" horiz-adv-x="894" d="M49 -229q117 135 117 206q0 31 -26.5 76t-26.5 88q0 61 37.5 102.5t99.5 41.5q63 0 103 -48.5t40 -125.5q0 -207 -250 -428zM434 -238q125 141 125 215q0 31 -26.5 76t-26.5 88q0 61 38 102.5t99 41.5q63 0 103 -48.5t40 -125.5q0 -207 -256 -439z" />
<glyph unicode="&#x2022;" d="M147 711q0 154 106.5 261t258.5 107t258.5 -107.5t106.5 -261t-106.5 -261t-258.5 -107.5t-258.5 106.5t-106.5 262.5z" />
<glyph unicode="&#x2026;" horiz-adv-x="1484" d="M111 137q0 68 45 114t110 46q63 0 108.5 -46t45.5 -112q0 -68 -45 -113.5t-110.5 -45.5t-109.5 45.5t-44 111.5zM586 137q0 68 45 114t110.5 46t109.5 -46t44 -112q0 -68 -44 -113.5t-109.5 -45.5t-110.5 45.5t-45 111.5zM1063 137q0 68 44 114t109.5 46t110.5 -46 t45 -112q0 -68 -45 -113.5t-110.5 -45.5t-109.5 45.5t-44 111.5z" />
<glyph unicode="&#x2039;" horiz-adv-x="700" d="M78 573l270 478l176 -70l-198 -408l198 -407l-176 -70z" />
<glyph unicode="&#x203a;" horiz-adv-x="700" d="M176 166l197 407l-197 408l176 70l271 -478l-271 -477z" />
<glyph unicode="&#x20ac;" d="M33 434v156h119q-2 37 -2 110q0 78 2 117h-119v156h135q90 481 491 481q152 0 275 -74l-66 -174q-98 51 -198 51q-203 0 -252 -284h315v-156h-334q-4 -57 -4 -102q0 -47 4 -125h334v-156h-311q41 -260 260 -260q111 0 203 51l59 -178q-127 -72 -295 -72 q-209 0 -326.5 113t-158.5 346h-131z" />
<glyph unicode="&#x2122;" horiz-adv-x="1312" d="M59 1298v132h418v-132h-131v-467h-158v467h-129zM532 831q0 270 21 599h209l108 -398l109 398h205q20 -297 24 -599h-143q-2 145 -10 426l-121 -426h-143l-123 426q-4 -279 -4 -426h-132z" />
<glyph unicode="&#xe000;" horiz-adv-x="1050" d="M0 1050h1050v-1050h-1050v1050z" />
<glyph unicode="&#xfb01;" horiz-adv-x="1146" d="M35 862v189h139v94q0 203 71.5 308.5t248.5 105.5q68 0 139 -15v-176h-74q-88 0 -114.5 -53t-26.5 -158v-106h598v-1051h-246v862h-352v-862h-244v862h-139zM743 1366q0 66 42 109t107.5 43t108.5 -43t43 -109t-43 -107.5t-108.5 -41.5t-107.5 41.5t-42 107.5z" />
<glyph unicode="&#xfb02;" horiz-adv-x="1173" d="M35 862v189h139v73q0 221 93 328t333 107q190 0 408 -33v-1241q0 -55 16 -81t57 -26h62v-178q-70 -20 -152 -20q-229 0 -229 241v1135q-90 12 -160 12q-106 0 -145 -59.5t-39 -173.5v-84h186v-189h-186v-862h-244v862h-139z" />
<glyph unicode="&#xfb03;" horiz-adv-x="1837" d="M1321 862v189h389v-1051h-246v862h-143zM1431 1366q0 66 42 109t108 43q68 0 109.5 -43t41.5 -109t-42 -107.5t-109 -41.5q-66 0 -108 41.5t-42 107.5zM680 862v189h139v98q0 201 71.5 305.5t248.5 104.5q78 0 149 -15v-176h-86q-86 0 -112.5 -53t-26.5 -158v-106h194 v-189h-194v-862h-244v862h-139zM35 862v189h139v98q0 201 71.5 305.5t248.5 104.5q78 0 149 -15v-176h-86q-86 0 -112.5 -53t-26.5 -158v-106h194v-189h-194v-862h-244v862h-139z" />
<glyph unicode="&#xfb04;" horiz-adv-x="1828" d="M1417 221v1315h246v-1253q0 -104 73 -105h62v-178q-70 -20 -152 -20q-229 -1 -229 241zM680 862v189h139v98q0 201 71.5 305.5t248.5 104.5q78 0 149 -15v-176h-86q-86 0 -112.5 -53t-26.5 -158v-106h194v-189h-194v-862h-244v862h-139zM35 862v189h139v98 q0 201 71.5 305.5t248.5 104.5q78 0 149 -15v-176h-86q-86 0 -112.5 -53t-26.5 -158v-106h194v-189h-194v-862h-244v862h-139z" />
</font>
</defs>
</svg>
