<?xml version="1.0" standalone="no"?>
<!DOCTYPE svg PUBLIC "-//W3C//DTD SVG 1.1//EN" "http://www.w3.org/Graphics/SVG/1.1/DTD/svg11.dtd" >
<svg xmlns="http://www.w3.org/2000/svg">
<metadata>
This is a custom SVG webfont generated by Font Squirrel.
Copyright   : Copyright c 1997 2002 2006 2007 Lucas de Groot published by LucasFonts
Designer    : Lucas de Groot
Foundry     : Lucas de Groot
Foundry URL : httpwwwlucasfontscom
</metadata>
<defs>
<font id="CorpidC4SCdBoldItalic" horiz-adv-x="1024" >
<font-face units-per-em="2048" ascent="1595" descent="-453" />
<missing-glyph horiz-adv-x="497" />
<glyph unicode=" "  horiz-adv-x="497" />
<glyph unicode="&#x09;" horiz-adv-x="497" />
<glyph unicode="&#xa0;" horiz-adv-x="497" />
<glyph unicode="!" horiz-adv-x="649" d="M131 121q0 72 46 119t110 47q61 0 101 -42t40 -102q0 -74 -44 -120t-110 -46q-61 0 -102 42.5t-41 101.5zM227 414l168 1122h264l-227 -1122h-205z" />
<glyph unicode="&#x22;" horiz-adv-x="858" d="M213 969l74 567h225l-127 -567h-172zM588 969l74 567h225l-127 -567h-172z" />
<glyph unicode="#" d="M55 399l11 172h151l62 310h-136l13 170h157l74 379h188l-75 -379h209l75 379h187l-76 -379h127l-12 -170h-150l-61 -310h131l-10 -172h-154l-82 -399h-186l80 399h-207l-82 -399h-189l82 399h-127zM403 571h209l62 310h-209z" />
<glyph unicode="$" d="M16 61l68 203q137 -63 299 -63q106 0 176 55t70 152q0 63 -47 106t-115 71.5t-135.5 62.5t-114.5 102.5t-47 169.5q0 158 103.5 270.5t279.5 138.5l39 217h186l-37 -211q117 -10 217 -57l-71 -184q-113 49 -238 49q-102 0 -157.5 -51.5t-55.5 -126.5q0 -59 47 -100.5 t116 -69t136.5 -63.5t114.5 -105.5t47 -169.5q0 -170 -104.5 -284t-282.5 -155l-45 -256h-189l43 238q-153 0 -303 61z" />
<glyph unicode="%" horiz-adv-x="1517" d="M125 39l1186 1454l121 -100l-1186 -1454zM137 954q0 59 9.5 120t35 131.5t65.5 124.5t109.5 90t157.5 36q252 0 252 -256q0 -55 -9 -114.5t-36 -129t-67 -124t-109.5 -90t-157.5 -35.5q-250 -1 -250 247zM326 958q0 -106 84 -106q47 0 82.5 41t52 101.5t25 112.5t8.5 93 q0 109 -84 109q-47 0 -83 -41t-52.5 -101.5t-24.5 -114t-8 -94.5zM795 223q0 76 17 154t56 159.5t119 134t189 52.5q250 0 249 -256q0 -72 -16 -146.5t-54 -157.5t-118 -136.5t-190 -53.5q-252 0 -252 250zM985 227q0 -106 84 -106q47 0 82 41t52.5 101.5t24.5 112.5t7 93 q0 109 -82 109q-47 0 -83 -41t-52.5 -101.5t-24.5 -114t-8 -94.5z" />
<glyph unicode="&#x26;" horiz-adv-x="1333" d="M55 305q0 270 301 467q-80 147 -80 279q0 172 108 288.5t298 116.5q131 0 216 -67.5t85 -184.5q0 -137 -77 -241.5t-265 -223.5q102 -152 242 -297q94 156 129 355h213q-51 -283 -195 -494q74 -72 184 -168l-147 -166q-127 115 -186 174q-197 -170 -435 -170 q-184 0 -287.5 89t-103.5 243zM299 334q0 -170 190 -170q135 0 254 112q-184 190 -282 338q-162 -120 -162 -280zM496 1073q0 -78 51 -186q117 78 168 144.5t51 148.5q0 106 -109 106q-70 0 -115.5 -61.5t-45.5 -151.5z" />
<glyph unicode="'" horiz-adv-x="466" d="M213 969l74 567h231l-127 -567h-178z" />
<glyph unicode="(" horiz-adv-x="624" d="M74 205q0 729 436 1388l178 -77q-377 -682 -377 -1385q0 -240 49 -467l-194 -67q-92 295 -92 608z" />
<glyph unicode=")" horiz-adv-x="624" d="M-57 -326q377 686 376 1385q0 225 -49 467l195 67q92 -305 92 -610q0 -727 -436 -1386z" />
<glyph unicode="*" d="M199 1030l282 115l-252 115l129 176l203 -183l-2 297h211l-82 -297l250 183l82 -179l-283 -112l252 -119l-129 -176l-201 184v-297h-210l81 295l-249 -182z" />
<glyph unicode="+" d="M61 539l35 192h340l70 393h205l-70 -393h340l-35 -192h-340l-69 -392h-205l69 392h-340z" />
<glyph unicode="," horiz-adv-x="514" d="M-96 -248q164 154 164 238q0 18 -17.5 60t-17.5 83q0 66 43 115t108 49q68 0 106 -42t38 -114q0 -102 -82 -230t-250 -257z" />
<glyph unicode="-" horiz-adv-x="550" d="M45 463l37 201h475l-37 -201h-475z" />
<glyph unicode="." horiz-adv-x="514" d="M29 133q0 72 46 119t111 47q63 0 104.5 -43t41.5 -104q0 -74 -46 -121t-112 -47q-63 0 -104 43t-41 106z" />
<glyph unicode="/" horiz-adv-x="858" d="M-141 -246l940 1893l205 -82l-941 -1895z" />
<glyph unicode="0" horiz-adv-x="1169" d="M72 420q0 145 30 307q129 729 627 729q410 0 410 -455q0 -125 -29 -301q-131 -727 -629 -727q-213 0 -310 114t-99 333zM328 428q0 -141 45 -198.5t141 -57.5q131 0 211 131t127 402q33 193 33 290q0 139 -43 200.5t-142 61.5q-246 0 -340 -532q-32 -176 -32 -297z" />
<glyph unicode="1" horiz-adv-x="690" d="M131 1204l354 228h209l-250 -1432h-251l204 1174l-229 -130z" />
<glyph unicode="2" horiz-adv-x="944" d="M-53 0l35 201l290 288q203 205 286 343.5t83 261.5q0 150 -168 149q-113 0 -252 -59l-10 200q193 72 348 72q180 0 274.5 -83t94.5 -228q0 -178 -104.5 -350t-338.5 -396l-192 -188h526l-37 -211h-835z" />
<glyph unicode="3" horiz-adv-x="931" d="M-63 6l32 187q117 -14 244 -15q154 0 238 86t84 201q0 176 -256 176h-97l33 190h90q154 0 239 85t85 196q0 143 -166 143q-117 0 -252 -61l-14 188q188 74 352 74q178 0 269 -81t91 -214q0 -150 -92 -262.5t-227 -146.5v-4q113 -12 174 -90t61 -185q0 -199 -157.5 -347.5 t-448.5 -148.5q-153 0 -282 29z" />
<glyph unicode="4" horiz-adv-x="1050" d="M-16 324l34 198l619 908h348l-158 -904h179l-37 -202h-178l-56 -324h-243l55 324h-563zM231 526h351l120 686h-2z" />
<glyph unicode="5" horiz-adv-x="950" d="M-16 6l32 187q123 -14 254 -15q160 0 247 99.5t87 234.5q0 170 -219 170q-74 0 -240 -18l148 766h659l-39 -218h-448l-68 -338q57 6 111 7q186 0 277.5 -89.5t91.5 -236.5q0 -250 -167 -414t-431 -164q-148 0 -295 29z" />
<glyph unicode="6" horiz-adv-x="1064" d="M78 385q0 70 7 150.5t27.5 187t53.5 205t88 197t127 170t176.5 116.5t228.5 45q160 0 277 -51l-62 -176q-104 41 -225 41q-156 0 -257 -129t-140 -326l-2 -6q129 92 280 92q162 0 241 -85t79 -230q0 -238 -152.5 -425.5t-392.5 -187.5q-184 0 -269 104.5t-85 307.5z M319 373q0 -111 35 -159t113 -48q109 0 183.5 127t74.5 260q0 156 -150 156q-111 0 -227 -80q-29 -168 -29 -256z" />
<glyph unicode="7" horiz-adv-x="937" d="M49 59q143 197 273 441l383 712h-551l39 218h839l-39 -218l-491 -860q-109 -188 -281 -379z" />
<glyph unicode="8" horiz-adv-x="1048" d="M23 266q0 279 335 465q-168 123 -168 297q0 182 132.5 306t357.5 124q184 0 272 -80t88 -198q0 -248 -299 -430q205 -135 205 -316q0 -190 -137 -326.5t-393 -136.5q-193 0 -293 79t-100 216zM276 305q0 -145 177 -145q102 0 169.5 68.5t67.5 166.5q0 63 -40 114.5 t-132 113.5q-119 -72 -180.5 -146t-61.5 -172zM436 1053q0 -106 139 -203q217 135 218 289q0 131 -146 131q-96 0 -153.5 -65.5t-57.5 -151.5z" />
<glyph unicode="9" horiz-adv-x="1060" d="M6 10l43 180q164 -31 277 -30q158 0 258 128t141 326v7q-131 -92 -279 -93q-168 0 -244.5 86t-76.5 230q0 240 153.5 426t393.5 186q354 0 354 -412q0 -72 -8 -155.5t-29.5 -189t-54.5 -204t-89.5 -194.5t-128 -167t-175 -115t-226.5 -44q-159 0 -309 35zM379 877 q0 -156 147 -156q111 0 230 80q27 154 26 256q0 111 -33.5 159t-111.5 48q-109 0 -183.5 -126t-74.5 -261z" />
<glyph unicode=":" horiz-adv-x="550" d="M63 133q0 72 47.5 119t112.5 47q61 0 103.5 -43t42.5 -104q0 -74 -47.5 -121t-112.5 -47q-63 0 -104.5 43t-41.5 106zM195 870q0 74 46 121t113 47q61 0 102.5 -43t41.5 -104q0 -74 -46 -122t-112 -48q-63 0 -104 43t-41 106z" />
<glyph unicode=";" horiz-adv-x="550" d="M-57 -248q162 154 161 238q0 18 -17 60t-17 83q0 66 43 115t108 49q68 0 106 -42t38 -114q0 -102 -81 -230t-249 -257zM195 870q0 74 46 121t113 47q61 0 102.5 -43t41.5 -104q0 -74 -46 -122t-112 -48q-63 0 -104 43t-41 106z" />
<glyph unicode="&#x3c;" d="M76 537l35 200l905 455l-41 -236l-674 -325l559 -326l-41 -223z" />
<glyph unicode="=" d="M53 322l33 190h825l-32 -190h-826zM131 762l33 190h825l-33 -190h-825z" />
<glyph unicode="&#x3e;" d="M29 82l41 235l673 326l-559 326l41 223l744 -455l-35 -200z" />
<glyph unicode="?" horiz-adv-x="847" d="M145 121q0 72 46.5 119t109.5 47q61 0 101 -42t40 -102q0 -74 -44 -120t-109 -46q-61 0 -102.5 42.5t-41.5 101.5zM233 414q4 123 45 224t96.5 168.5t111 129t94 133.5t38.5 150q0 137 -176 137q-96 0 -196 -15l33 185q117 31 227 30q377 0 377 -292q0 -106 -42 -198.5 t-103.5 -161t-124 -137.5t-110.5 -159t-57 -194h-213z" />
<glyph unicode="@" horiz-adv-x="1587" d="M121 397q0 281 117.5 522.5t337 391t489.5 149.5q223 0 329.5 -87t106.5 -240q0 -43 -10 -101l-125 -708h-180l6 145q-51 -80 -134 -125t-177 -45q-125 0 -199 68.5t-74 183.5q0 172 122 286.5t382 114.5h131l17 90q6 37 6 68q0 166 -226 166q-205 0 -368.5 -127 t-248.5 -321.5t-85 -409.5q0 -229 124 -365.5t359 -136.5q223 0 441 104l32 -176q-244 -117 -508 -116q-313 0 -489 180t-176 489zM846 586q0 -106 106 -107q90 0 162 72t90 180l13 64h-117q-127 0 -190.5 -55.5t-63.5 -153.5z" />
<glyph unicode="A" horiz-adv-x="1239" d="M-68 0q311 733 680 1430h306q133 -741 184 -1430h-271q-2 20 -24 342h-477q-45 -102 -144 -342h-254zM410 543h385q-10 94 -60 479q-2 27 -8 83t-10 83h-2q-41 -78 -82 -168q-123 -254 -223 -477z" />
<glyph unicode="B" horiz-adv-x="1099" d="M37 0l252 1430h250h131q182 0 280.5 -74t98.5 -213q0 -129 -63.5 -230.5t-172.5 -148.5q90 -18 142.5 -89t52.5 -179q0 -203 -142.5 -349.5t-419.5 -146.5h-161h-248zM319 199h177q109 0 179 79.5t70 198.5q0 166 -196 166h-152zM432 831h139q104 0 162 80t58 183 q0 141 -160 141h-127z" />
<glyph unicode="C" horiz-adv-x="1042" d="M84 492q0 119 23.5 244.5t81 255.5t139.5 231.5t210 166t281 64.5q188 0 320 -80l-105 -198q-98 61 -223 61q-119 0 -212 -77t-143 -192.5t-75 -229t-25 -210.5q0 -164 73 -248.5t208 -84.5q117 0 248 61l35 -201q-164 -80 -336 -80q-242 0 -371 131.5t-129 385.5z" />
<glyph unicode="D" horiz-adv-x="1275" d="M37 0l252 1430h254h164q260 0 396 -131.5t136 -385.5q0 -111 -20.5 -225.5t-77 -240t-140 -223t-225 -161t-319.5 -63.5h-166h-254zM326 205h155q111 0 201 49t143.5 124t90 170t50 181t13.5 166q0 154 -74 243t-229 89h-170z" />
<glyph unicode="E" horiz-adv-x="987" d="M37 0l252 1430h254h487l-39 -203h-485l-68 -385h418l-35 -201h-420l-77 -438h495l-37 -203h-493h-252z" />
<glyph unicode="F" horiz-adv-x="909" d="M37 0l252 1430h254h446l-37 -203h-444l-74 -414h395l-34 -201h-396l-108 -612h-254z" />
<glyph unicode="G" horiz-adv-x="1255" d="M84 510q0 129 27.5 259t89 254t149.5 218t220 152.5t290 58.5q229 0 408 -113l-103 -196q-154 98 -313 98q-129 0 -231.5 -71.5t-158.5 -184.5t-85 -229.5t-29 -225.5q0 -166 76 -253t219 -87q90 0 168 27l96 547h252l-125 -713q-195 -76 -416 -76q-262 0 -398 137.5 t-136 397.5z" />
<glyph unicode="H" horiz-adv-x="1269" d="M37 0l252 1430h254l-103 -578h486l102 578h252l-252 -1430h-254l111 631h-484l-110 -631h-254z" />
<glyph unicode="I" horiz-adv-x="532" d="M37 0l252 1430h254l-252 -1430h-254z" />
<glyph unicode="J" horiz-adv-x="643" d="M-74 -2l37 201h90q72 0 110 46t58 163l180 1022h254l-180 -1016q-39 -215 -128 -324.5t-267 -109.5q-86 0 -154 18z" />
<glyph unicode="K" horiz-adv-x="1146" d="M37 0l248 1430h252l-101 -572q104 113 514 572h314l-564 -582l316 -848h-283l-237 670l-111 -113l-96 -557h-252z" />
<glyph unicode="L" horiz-adv-x="843" d="M37 0l252 1430h254l-215 -1221h428l-37 -209h-428h-254z" />
<glyph unicode="M" horiz-adv-x="1714" d="M20 0q139 741 338 1430h365l98 -1047h2l467 1047h371q-51 -702 -172 -1430h-252q115 696 152 1155h-3l-520 -1155h-250l-106 1155h-4q-156 -612 -252 -1155h-234z" />
<glyph unicode="N" horiz-adv-x="1310" d="M37 0l252 1430h336l282 -1061h4l187 1061h223l-254 -1430h-324l-290 1083h-2l-191 -1083h-223z" />
<glyph unicode="O" horiz-adv-x="1380" d="M84 494q0 121 22.5 245.5t79 255.5t138.5 231.5t215 165t295 64.5q248 0 377.5 -134t129.5 -386q0 -125 -22.5 -250t-77.5 -256t-137 -230.5t-215 -163t-297 -63.5q-250 0 -379 132.5t-129 388.5zM352 506q0 -322 273 -322q111 0 200.5 73t142 185.5t80 236.5t27.5 243 q0 324 -274 323q-119 0 -211 -79t-141.5 -198.5t-73 -238.5t-23.5 -223z" />
<glyph unicode="P" horiz-adv-x="1067" d="M37 0l252 1430h254h116q88 0 166 -17q256 -59 256 -332q0 -106 -33.5 -204.5t-100 -180.5t-177.5 -132t-252 -50h-137l-90 -514h-254zM416 715h137q125 0 192.5 106.5t67.5 233.5q0 129 -92 159q-41 14 -94 15h-119z" />
<glyph unicode="Q" horiz-adv-x="1384" d="M84 494q0 121 22.5 245.5t79 255.5t138.5 231.5t215 165t295 64.5q248 0 377.5 -134t129.5 -386q0 -209 -62 -408.5t-177 -330.5l172 -222l-152 -129l-176 226q-152 -98 -354 -99q-250 0 -379 132.5t-129 388.5zM352 506q0 -322 273 -322q100 0 180 64l-170 217l151 129 l156 -197q55 82 94 227.5t39 297.5q0 324 -274 323q-119 0 -211 -79t-141.5 -198.5t-73 -238.5t-23.5 -223z" />
<glyph unicode="R" horiz-adv-x="1101" d="M37 0l252 1430h254h135q193 0 297 -80t104 -236q0 -160 -87 -284.5t-232 -170.5l196 -659h-278l-160 602h-123l-104 -602h-254zM430 797h113q123 0 194.5 83t71.5 195q0 154 -174 154h-127z" />
<glyph unicode="S" horiz-adv-x="933" d="M-16 20l63 213q125 -49 256 -49q127 0 197.5 69t70.5 169q0 63 -43 112.5t-145 116.5q-219 139 -219 346q0 193 134 326t372 133q152 0 264 -45l-68 -203q-106 45 -213 45q-109 0 -163 -62.5t-54 -148.5q0 -63 40 -110t130 -109q238 -147 238 -348q0 -213 -148.5 -357.5 t-408.5 -144.5q-151 0 -303 47z" />
<glyph unicode="T" horiz-adv-x="980" d="M133 1221l37 209h944l-37 -209h-346l-215 -1221h-254l215 1221h-344z" />
<glyph unicode="U" horiz-adv-x="1298" d="M113 371q0 72 14 157l160 902h254l-160 -910q-10 -55 -10 -106q0 -229 207 -230q125 0 210.5 86t116.5 254l160 906h248l-164 -918q-47 -264 -201.5 -400.5t-396.5 -136.5q-438 1 -438 396z" />
<glyph unicode="V" horiz-adv-x="1200" d="M168 1430h268q27 -508 96 -1024q12 -102 17 -144h2q53 115 80 170q301 649 434 998h262q-301 -717 -676 -1430h-307q-119 664 -176 1430z" />
<glyph unicode="W" horiz-adv-x="1843" d="M203 1430h268q-7 -218 -7 -435q0 -297 13 -589q6 -129 6 -142h2l70 191l375 975h284l41 -973q4 -127 7 -193h2q8 18 29.5 78.5t33.5 89.5q219 563 356 998h252q-236 -696 -555 -1430h-331l-39 932l-2 155h-4l-56 -153l-358 -934h-334q-55 597 -55 1202q0 114 2 228z" />
<glyph unicode="X" horiz-adv-x="1157" d="M-86 0l520 745l-229 685h282l152 -498l324 498h288l-471 -682l256 -748h-291l-172 555l-362 -555h-297z" />
<glyph unicode="Y" horiz-adv-x="1079" d="M156 1430h270q59 -328 162 -603q203 289 364 603h267q-268 -479 -551 -836l-103 -594h-252l103 594q-154 367 -260 836z" />
<glyph unicode="Z" horiz-adv-x="954" d="M-53 0l37 201l723 1024h-521l37 205h811l-37 -203l-723 -1022h557l-36 -205h-848z" />
<glyph unicode="[" horiz-adv-x="645" d="M-14 -367l340 1928h401l-33 -179h-174l-276 -1570h174l-31 -179h-401z" />
<glyph unicode="\" horiz-adv-x="858" d="M201 1599l229 43l266 -1925l-227 -41z" />
<glyph unicode="]" horiz-adv-x="645" d="M-76 -367l33 179h174l279 1570h-177l31 179h402l-340 -1928h-402z" />
<glyph unicode="^" d="M111 727l409 703h297l168 -703h-240l-108 516l-277 -516h-249z" />
<glyph unicode="_" d="M-182 -453l32 181h1024l-32 -181h-1024z" />
<glyph unicode="`" horiz-adv-x="538" d="M147 1466l179 111l198 -307l-125 -82z" />
<glyph unicode="a" horiz-adv-x="1067" d="M45 336q0 100 18.5 199.5t63.5 196.5t110.5 172t166 121t225.5 46q186 0 389 -67l-178 -1004h-189l21 207q-133 -236 -338 -236q-145 0 -217 98.5t-72 266.5zM299 362q0 -188 109 -188q90 0 180 138.5t119 305.5l38 224q-61 33 -141 32.5t-142.5 -51.5t-96 -131t-50 -165 t-16.5 -165z" />
<glyph unicode="b" horiz-adv-x="1067" d="M31 47l262 1489h242l-86 -481q-18 -100 -41 -187q51 94 130.5 152.5t176.5 58.5q143 0 214.5 -97t71.5 -265q0 -129 -31.5 -252t-97 -234.5t-182.5 -180t-270 -68.5q-196 -1 -389 65zM301 209q61 -33 141 -33q106 0 179 90t100 201t27 223q0 186 -107 187 q-92 0 -182 -138.5t-119 -304.5z" />
<glyph unicode="c" horiz-adv-x="813" d="M45 354q0 123 32 244t95.5 230.5t174 177t253.5 67.5q141 0 238 -51l-78 -186q-72 41 -156 41t-148.5 -53.5t-96 -134.5t-47 -157.5t-15.5 -144.5q0 -207 176 -207q96 0 191 45l12 -190q-127 -57 -273 -58q-178 0 -268 97.5t-90 279.5z" />
<glyph unicode="d" horiz-adv-x="1067" d="M45 336q0 127 32 251t96.5 234.5t180 179t264.5 68.5q92 0 166 -18l86 485h240l-270 -1536h-189l21 207q-133 -236 -338 -236q-145 0 -217 98.5t-72 266.5zM299 362q0 -188 109 -188q90 0 180 138.5t119 305.5l38 224q-61 33 -141 32.5t-142.5 -51.5t-96 -131t-50 -165 t-16.5 -165z" />
<glyph unicode="e" horiz-adv-x="991" d="M47 340q0 86 14.5 177t53.5 194.5t98 182.5t160.5 132t230.5 53q164 0 248 -72.5t84 -191.5q0 -358 -639 -369q-8 -43 -8 -92q0 -98 46 -145t152 -47q143 0 297 53l4 -184q-162 -57 -354 -58q-199 0 -293 89.5t-94 277.5zM326 614q209 0 291.5 48.5t82.5 134.5 q0 51 -31.5 78.5t-86.5 27.5q-96 0 -161.5 -79t-94.5 -210z" />
<glyph unicode="f" horiz-adv-x="632" d="M-223 -426l30 174h80q84 0 119 53.5t53 157.5l160 903h-135l33 189h135l20 114q35 190 123 292t258 102q80 0 146 -15l-31 -176h-84q-84 0 -119 -52t-53 -159l-18 -106h190l-33 -189h-190l-162 -909q-35 -193 -123 -294t-258 -101q-88 0 -141 16z" />
<glyph unicode="g" horiz-adv-x="1067" d="M25 -414l38 181q117 -14 256 -15q133 0 193.5 53.5t87.5 200.5q14 90 43 191q-51 -94 -132 -151.5t-175 -57.5q-145 0 -217 97t-72 265q0 125 32 246t97.5 230.5t182 177t270.5 67.5q197 0 389 -67l-174 -979q-45 -248 -170 -357.5t-361 -109.5q-165 -1 -288 28zM301 379 q0 -188 109 -189q90 0 180 135.5t119 301.5l36 215q-61 33 -141 32q-104 0 -177 -87t-99.5 -193t-26.5 -215z" />
<glyph unicode="h" horiz-adv-x="1083" d="M23 0l270 1536h242l-86 -481q-16 -96 -43 -189q57 96 141 154.5t182 58.5q260 0 260 -295q0 -51 -14 -145l-113 -639h-241l110 616q12 76 12 129q0 131 -98 132q-92 0 -184 -136.5t-121 -300.5l-76 -440h-241z" />
<glyph unicode="i" horiz-adv-x="536" d="M68 0l153 862h-139l33 189h379l-185 -1051h-241zM274 1356q0 72 45.5 117t110.5 45q63 0 103 -40t40 -100q0 -72 -44 -116.5t-111 -44.5q-63 0 -103.5 40t-40.5 99z" />
<glyph unicode="j" horiz-adv-x="509" d="M-229 -428l39 188h75q117 0 150 195l192 1096h242l-190 -1078q-39 -223 -132.5 -320t-244.5 -97q-70 0 -131 16zM254 1356q0 72 44 117t112 45q63 0 103 -41t40 -99q0 -72 -44 -116.5t-112 -44.5q-63 0 -103 40t-40 99z" />
<glyph unicode="k" horiz-adv-x="1001" d="M23 0l266 1536h241l-149 -856q117 121 354 371h297l-401 -379l246 -672h-273l-176 504l-92 -88l-72 -416h-241z" />
<glyph unicode="l" horiz-adv-x="528" d="M63 231l230 1305h242l-222 -1253q-5 -26 -5 -46q0 -21 6 -34q11 -25 51 -25h63l-33 -178q-74 -20 -151 -20q-188 0 -188 174q-1 35 7 77z" />
<glyph unicode="m" horiz-adv-x="1640" d="M23 0l184 1051h188l-16 -207q59 104 147 169.5t191 65.5q219 0 239 -237q59 106 147.5 171.5t190.5 65.5q252 0 252 -295q0 -72 -14 -145l-113 -639h-239l108 616q14 90 15 129q0 131 -91 132q-86 0 -175 -136.5t-117 -300.5l-78 -440h-242l111 616q12 76 12 129 q0 131 -88 132q-86 0 -176 -137.5t-119 -299.5l-78 -440h-239z" />
<glyph unicode="n" horiz-adv-x="1083" d="M23 0l184 1051h188l-16 -207q59 104 149 169.5t199 65.5q262 0 262 -295q0 -51 -14 -145l-113 -639h-241l110 616q12 76 12 129q0 131 -98 132q-92 0 -184 -136.5t-121 -300.5l-78 -440h-239z" />
<glyph unicode="o" horiz-adv-x="1075" d="M47 373q0 90 18.5 184t62.5 189.5t107.5 168t164 118.5t221.5 46q193 0 290 -104.5t97 -296.5q0 -92 -18.5 -185.5t-61.5 -187.5t-106.5 -166.5t-164 -119t-223.5 -46.5q-193 0 -290 103.5t-97 296.5zM297 381q0 -213 168 -213q72 0 130 50t93 128t52.5 161t17.5 159 q0 217 -166 217q-94 0 -165 -87t-100.5 -198t-29.5 -217z" />
<glyph unicode="p" horiz-adv-x="1067" d="M-51 -418l258 1469h184l-12 -207q59 109 146 172t188 63q145 0 216.5 -97t71.5 -265q0 -127 -31.5 -251t-96 -234.5t-180 -179t-265.5 -68.5q-92 0 -164 16l-74 -418h-241zM301 209q61 -33 141 -33q106 0 179 90t100 201t27 223q0 186 -107 187q-92 0 -182 -138.5 t-119 -304.5z" />
<glyph unicode="q" horiz-adv-x="1067" d="M45 336q0 100 18.5 199.5t63.5 196.5t110.5 172t166 121t225.5 46q197 0 389 -67l-252 -1422h-242l74 414q16 102 41 186q-51 -94 -131 -152.5t-176 -58.5q-143 0 -215 98.5t-72 266.5zM299 362q0 -188 109 -188q90 0 180 138.5t119 305.5l38 224q-61 33 -141 32.5 t-142.5 -51.5t-96 -131t-50 -165t-16.5 -165z" />
<glyph unicode="r" horiz-adv-x="702" d="M23 0l184 1051h188l-16 -215q147 244 280 243q61 0 107 -14l-66 -231q-57 16 -88 16q-74 0 -158.5 -128t-111.5 -276l-80 -446h-239z" />
<glyph unicode="s" horiz-adv-x="776" d="M-23 12l62 197q111 -45 211 -45q78 0 121 37t43 98q0 43 -24.5 76t-100.5 78q-176 111 -176 276q0 158 111.5 254t291.5 96q113 0 225 -32l-55 -191q-88 37 -178 37q-70 0 -110 -36t-40 -91q0 -43 26 -73.5t97 -74.5q100 -61 144.5 -125.5t44.5 -154.5 q0 -162 -118 -264.5t-310 -102.5q-136 0 -265 41z" />
<glyph unicode="t" horiz-adv-x="673" d="M84 862l33 189h131l110 305h183l-54 -305h205l-33 -189h-204l-93 -522q-8 -47 -8 -79q0 -39 13 -55q23 -30 94 -30h78l-31 -174q-78 -25 -184 -25q-220 0 -220 210q0 42 9 94l102 581h-131z" />
<glyph unicode="u" horiz-adv-x="1083" d="M74 266q0 55 14 146l113 639h241l-108 -617q-14 -90 -15 -129q0 -131 101 -131q92 0 183 136t120 300l78 441h241l-186 -1051h-188l16 209q-57 -106 -148.5 -172t-197.5 -66q-131 0 -197.5 77t-66.5 218z" />
<glyph unicode="v" horiz-adv-x="931" d="M111 1051h239q12 -358 47 -656q2 -25 7.5 -77t7.5 -76h2q16 35 67 153q123 279 260 656h246q-223 -563 -483 -1051h-279q-96 508 -114 1051z" />
<glyph unicode="w" horiz-adv-x="1499" d="M117 1051h243v-52q0 -236 17 -575q0 -29 3 -92.5t5 -95.5h4l68 182l252 633h247l39 -639l4 -176h5q14 35 37.5 99t31.5 87q143 356 232 629h239q-186 -508 -450 -1051h-279l-37 633l-4 121h-4l-45 -123l-246 -631h-278q-78 539 -84 1051z" />
<glyph unicode="x" horiz-adv-x="976" d="M-74 0l381 543l-174 508h266l105 -363l235 363h262l-342 -502l181 -549h-269l-114 391l-252 -391h-279z" />
<glyph unicode="y" horiz-adv-x="931" d="M-131 -420l39 180h106q51 0 100.5 49.5t131.5 186.5q-113 471 -135 1055h241q12 -328 54 -650q10 -86 16 -153h2q10 25 32.5 76t32.5 75q133 301 254 652h242q-262 -686 -481 -1051q-152 -252 -268.5 -347t-243.5 -95q-66 -1 -123 22z" />
<glyph unicode="z" horiz-adv-x="845" d="M-33 0l35 190l518 662h-377l35 199h662l-33 -193l-514 -659h424l-35 -199h-715z" />
<glyph unicode="{" horiz-adv-x="681" d="M43 528l33 185q166 10 209 250l34 200q37 209 113 308.5t221 99.5q59 0 113 -15l-31 -174h-61q-53 0 -80 -44t-51 -179l-33 -190q-53 -299 -262 -346q98 -27 130 -122t9 -229l-43 -237q-20 -137 -10 -180t61 -43h64l-31 -174q-61 -14 -119 -15q-145 0 -185 98.5t-3 309.5 l43 248q43 243 -121 249z" />
<glyph unicode="|" d="M221 -418l352 1995h226l-350 -1995h-228z" />
<glyph unicode="}" horiz-adv-x="679" d="M-82 -362l31 174h61q53 0 81 44t50 179l43 237q23 133 88.5 227.5t173.5 121.5q-100 25 -130.5 119t-8.5 229l33 190q23 139 12.5 181t-63.5 42h-64l33 174q57 14 117 15q145 0 186 -98.5t4 -309.5l-37 -200q-41 -240 123 -250l-33 -185q-168 -6 -208 -249l-45 -248 q-37 -209 -112 -308.5t-220 -99.5q-62 1 -115 15z" />
<glyph unicode="~" d="M125 881l4 41q18 166 100 260t203 94q137 0 219 -127q6 -8 15.5 -24.5t14.5 -23.5t14.5 -18.5t15.5 -16.5t15 -12t19.5 -9.5t22.5 -2.5q92 0 119 195h182l-6 -41q-18 -168 -100 -262t-203 -94q-135 0 -219 129l-15 21q-10 15 -13 20.5t-11 17.5t-13.5 16.5t-13.5 11.5 t-15 10t-16.5 5t-19.5 2q-96 0 -119 -192h-180z" />
<glyph unicode="&#xa1;" horiz-adv-x="649" d="M-4 -332l227 1125h205l-168 -1125h-264zM227 1063q0 72 45 119t109 47q61 0 102 -42t41 -102q0 -74 -45 -119.5t-110 -45.5q-61 0 -101.5 41t-40.5 102z" />
<glyph unicode="&#xa2;" d="M141 578q0 160 51.5 300t164 242.5t266.5 122.5l32 187h187l-33 -183q106 -12 201 -67l-86 -183q-96 57 -197 58q-158 0 -245 -138.5t-87 -306.5q0 -225 207 -225q119 0 236 64l32 -181q-125 -61 -247 -75l-33 -193h-184l32 193q-145 20 -221 118.5t-76 266.5z" />
<glyph unicode="&#xa3;" d="M4 0l31 182q111 100 165 201.5t64 249.5h-172l31 182h137q4 150 25 266q31 172 150.5 270.5t324.5 98.5q141 0 260 -27l-33 -192q-109 25 -213 24q-111 0 -170 -49t-76 -149q-14 -84 -18 -242h336l-33 -182h-301q-25 -272 -186 -428h540l-35 -205h-827z" />
<glyph unicode="&#xa4;" d="M-16 115l174 219q-45 72 -45 186q0 113 40 229.5t111 196.5l-98 225l203 93l75 -213q66 33 158 32q88 0 137 -30l146 211l176 -101l-172 -221q41 -72 41 -186q0 -113 -39 -227.5t-115 -194.5l103 -230l-205 -92l-76 221q-66 -35 -158 -34q-78 0 -131 26l-149 -213z M336 547q0 -168 143 -168q104 0 166 110.5t62 243.5q0 174 -142 174q-104 0 -166.5 -112.5t-62.5 -247.5z" />
<glyph unicode="&#xa5;" d="M59 201l29 155h262l31 179h-262l26 157h263l8 45q-150 342 -232 693h256q45 -242 144 -498q152 211 299 498h254q-215 -381 -471 -693l-9 -45h263l-29 -157h-262l-31 -179h262l-29 -155h-262l-32 -201h-250l35 201h-263z" />
<glyph unicode="&#xa6;" d="M221 -418l139 795h232l-141 -795h-230zM436 811l137 784h232l-137 -784h-232z" />
<glyph unicode="&#xa7;" horiz-adv-x="1073" d="M84 -385l41 197q63 -18 154 -19q84 0 133 48t49 126q0 53 -33 113.5t-79 122t-93 129t-80 162t-33 196.5q0 162 81 335t200 292q174 178 387 178q74 0 152 -14l-41 -189q-82 14 -146 15q-88 0 -135 -51.5t-47 -131.5q0 -61 50 -138t110.5 -145.5t110.5 -184t50 -244.5 q0 -150 -71.5 -324t-204.5 -309q-174 -180 -410 -180q-75 0 -145 16zM354 750q0 -82 30 -156t72 -131t83 -113.5t69.5 -128t26.5 -151.5q70 152 70 282q0 84 -30 159t-73 131l-86 113q-43 56 -71.5 125.5t-26.5 145.5q-64 -151 -64 -276z" />
<glyph unicode="&#xa8;" horiz-adv-x="753" d="M139 1366q0 61 37 99t94 38q55 0 88 -33.5t33 -85.5q0 -63 -37 -101t-94 -38q-55 0 -88 35t-33 86zM518 1366q0 61 37 99t94 38q55 0 88 -33.5t33 -85.5q0 -63 -38 -101t-95 -38q-53 0 -86 35t-33 86z" />
<glyph unicode="&#xa9;" horiz-adv-x="1400" d="M84 653q0 305 193.5 527.5t476.5 222.5q260 0 429 -189.5t169 -470.5q0 -307 -194.5 -529t-473.5 -222q-260 0 -430 189t-170 472zM256 664q0 -217 123 -362.5t315 -145.5q205 0 345.5 169t140.5 408q0 215 -123 361.5t-314 146.5q-209 0 -348 -169.5t-139 -407.5z M408 590q0 80 20.5 158.5t64.5 153.5t124.5 121t189.5 46q92 0 162 -35l-62 -153q-47 25 -104 24q-90 0 -139.5 -91t-49.5 -193q0 -127 115 -127q63 0 125 26l14 -151q-104 -45 -194 -45q-129 0 -197.5 67.5t-68.5 198.5z" />
<glyph unicode="&#xaa;" horiz-adv-x="841" d="M78 367l31 174h618l-31 -174h-618zM147 926q0 98 25 187t74 166t136 123t200 46q143 0 292 -45l-129 -715h-147l10 139q-96 -160 -252 -159q-102 0 -155.5 69.5t-53.5 188.5zM350 948q0 -121 68 -121q61 0 126.5 93.5t88.5 207.5l26 148q-43 18 -100 18 q-100 0 -154.5 -111.5t-54.5 -234.5z" />
<glyph unicode="&#xab;" horiz-adv-x="1083" d="M76 580l344 471l170 -76l-268 -408l122 -407l-180 -64zM479 580l332 444l166 -76l-256 -381l121 -383l-176 -61z" />
<glyph unicode="&#xac;" d="M55 545l35 192h871l-82 -456h-199l47 264h-672z" />
<glyph unicode="&#xad;" horiz-adv-x="550" d="M45 463l37 201h475l-37 -201h-475z" />
<glyph unicode="&#xae;" horiz-adv-x="1042" d="M178 1065q0 205 135.5 345t319.5 140q178 0 293.5 -122.5t115.5 -303.5q0 -205 -135 -345t-321 -140q-178 0 -293 123t-115 303zM307 1075q0 -135 82 -227t205 -92q135 0 227 103.5t92 256.5q0 133 -81.5 224.5t-204.5 91.5q-133 0 -226.5 -103.5t-93.5 -253.5zM414 862 l84 475h170q70 0 109.5 -31.5t39.5 -84.5q0 -111 -98 -154l47 -205h-135l-29 176h-37l-30 -176h-121zM582 1133h28q37 0 58.5 20.5t21.5 52.5q0 41 -53 41h-35z" />
<glyph unicode="&#xaf;" horiz-adv-x="575" d="M125 1290l29 168h530l-31 -168h-528z" />
<glyph unicode="&#x2c9;" horiz-adv-x="575" d="M125 1290l29 168h530l-31 -168h-528z" />
<glyph unicode="&#xb0;" horiz-adv-x="684" d="M188 1227q0 127 83 209t204 82q117 0 186.5 -71t69.5 -179q0 -127 -83 -209t-204 -82q-117 0 -186.5 69.5t-69.5 180.5zM354 1243q0 -55 28 -88t75 -33q45 0 76.5 36t31.5 93q0 55 -27.5 88t-74.5 33t-78 -36t-31 -93z" />
<glyph unicode="&#xb1;" d="M-12 0l32 193h844l-33 -193h-843zM104 725l33 193h332l68 385h204l-69 -385h332l-35 -193h-332l-68 -383h-202l67 383h-330z" />
<glyph unicode="&#xb2;" horiz-adv-x="696" d="M94 793l25 145l207 186q102 94 146 164t44 139q0 88 -106 89q-74 0 -154 -35l-8 147q115 51 250 51q264 0 264 -206q0 -113 -59.5 -203t-194.5 -207l-123 -107h309l-28 -163h-572z" />
<glyph unicode="&#xb3;" horiz-adv-x="698" d="M100 786l25 144q72 -10 162 -10q86 0 137 38.5t51 108.5q0 98 -160 98h-69l24 140h74q86 0 138.5 40.5t52.5 102.5q0 78 -105 78q-86 0 -174 -33l-8 143q123 43 258 43q121 0 187.5 -49t66.5 -141q0 -90 -54.5 -155.5t-138.5 -92.5q68 -10 107 -55t39 -111 q0 -137 -110.5 -223t-280.5 -86q-126 0 -222 20z" />
<glyph unicode="&#xb4;" horiz-adv-x="567" d="M129 1272l246 305l170 -111l-297 -278z" />
<glyph unicode="&#xb5;" horiz-adv-x="1136" d="M-53 -424l260 1475h242l-111 -617q-25 -127 -2.5 -193.5t96.5 -66.5q92 0 183.5 136t119.5 300l78 441h242l-133 -752q-12 -63 1 -93t60 -30h49l-31 -176q-82 -23 -131 -23q-184 0 -184 148q0 39 12 82q-59 -104 -145 -167t-180 -63q-80 0 -109 54q-10 -63 -28 -162 l-52 -293h-237z" />
<glyph unicode="&#x3bc;" horiz-adv-x="1136" d="M-53 -424l260 1475h242l-111 -617q-25 -127 -2.5 -193.5t96.5 -66.5q92 0 183.5 136t119.5 300l78 441h242l-133 -752q-12 -63 1 -93t60 -30h49l-31 -176q-82 -23 -131 -23q-184 0 -184 148q0 39 12 82q-59 -104 -145 -167t-180 -63q-80 0 -109 54q-10 -63 -28 -162 l-52 -293h-237z" />
<glyph unicode="&#xb6;" horiz-adv-x="1130" d="M104 920q0 205 134.5 357.5t359.5 152.5h543l-295 -1663h-184l260 1478h-168l-262 -1478h-185l142 802q-160 -2 -252.5 94.5t-92.5 256.5z" />
<glyph unicode="&#xb7;" horiz-adv-x="514" d="M115 629q0 72 46 119t113 47q61 0 103.5 -43t42.5 -105q0 -74 -46 -121t-114 -47q-63 0 -104 43.5t-41 106.5z" />
<glyph unicode="&#x2219;" horiz-adv-x="514" d="M115 629q0 72 46 119t113 47q61 0 103.5 -43t42.5 -105q0 -74 -46 -121t-114 -47q-63 0 -104 43.5t-41 106.5z" />
<glyph unicode="&#xb8;" horiz-adv-x="563" d="M-86 -338l25 139h159q53 0 54 33q0 4 -2.5 12.5t-4.5 20.5t-4 20l-24 113h176l24 -82q20 -74 21 -111q0 -80 -58.5 -128t-179.5 -48q-104 0 -186 31z" />
<glyph unicode="&#xb9;" horiz-adv-x="552" d="M184 1509l242 152h188l-153 -868h-217l114 651l-135 -72z" />
<glyph unicode="&#xba;" horiz-adv-x="866" d="M92 367l33 174h598l-31 -174h-600zM147 954q0 86 24 169t72 158t135 122t200 47q145 0 220.5 -76t75.5 -213q0 -117 -39.5 -224.5t-141 -188t-249.5 -80.5q-145 0 -221 74.5t-76 211.5zM352 967q0 -145 119 -146q90 0 144.5 105.5t54.5 222.5q0 150 -117 149 q-68 0 -116 -59t-66.5 -130.5t-18.5 -141.5z" />
<glyph unicode="&#xbb;" horiz-adv-x="1083" d="M102 199l256 381l-120 383l176 61l186 -457l-332 -444zM489 172l269 408l-123 407l180 64l191 -484l-347 -471z" />
<glyph unicode="&#xbc;" horiz-adv-x="1331" d="M16 39l1184 1454l119 -100l-1184 -1454zM143 1292l246 144h178l-127 -721h-217l86 497l-137 -69zM612 125l25 151l321 439h275l-78 -436h96l-26 -154h-97l-20 -125h-184l20 125h-332zM799 279h172l55 305h-2z" />
<glyph unicode="&#xbd;" horiz-adv-x="1421" d="M16 39l1184 1454l119 -100l-1184 -1454zM145 1292l246 144h178l-127 -721h-217l86 497l-137 -69zM721 0l24 145l173 146q158 133 157 223q0 68 -82 68q-63 0 -135 -33l-10 143q117 47 235.5 47t181 -46t62.5 -130q0 -88 -50 -160.5t-177 -164.5l-92 -68h274l-29 -170 h-532z" />
<glyph unicode="&#xbe;" horiz-adv-x="1409" d="M82 711l22 129q61 -6 150 -6q154 0 154 110q0 78 -121 78h-76l22 129h76q70 0 108 30.5t38 75.5q0 59 -80 60q-78 0 -154 -33l-14 127q125 43 248 43q113 0 170 -43t57 -121q0 -72 -39 -125t-111 -73q115 -23 115 -140q0 -115 -87 -188.5t-251 -73.5q-114 1 -227 21z M102 39l1184 1454l119 -100l-1184 -1454zM690 125l25 151l321 439h275l-78 -436h96l-26 -154h-97l-20 -125h-185l21 125h-332zM877 279h172l55 305h-2z" />
<glyph unicode="&#xbf;" horiz-adv-x="847" d="M-27 -59q0 106 42 198t103.5 162t124 138.5t111.5 158.5t58 195h211q-4 -123 -45 -224.5t-96.5 -170t-111 -129t-94 -132t-38.5 -149.5q0 -139 176 -140q96 0 196 15l-32 -185q-117 -31 -228 -30q-377 0 -377 293zM414 1063q0 72 45 119t108 47q61 0 102.5 -42t41.5 -102 q0 -74 -45 -119.5t-111 -45.5q-61 0 -101 41t-40 102z" />
<glyph unicode="&#xc0;" horiz-adv-x="1239" d="M-68 0q311 733 680 1430h306q133 -741 184 -1430h-271q-2 20 -24 342h-477q-45 -102 -144 -342h-254zM410 543h385q-10 94 -60 479q-2 27 -8 83t-10 83h-2q-41 -78 -82 -168q-123 -254 -223 -477zM485 1667l90 166l338 -184l-65 -123z" />
<glyph unicode="&#xc1;" horiz-adv-x="1239" d="M-68 0q311 733 680 1430h306q133 -741 184 -1430h-271q-2 20 -24 342h-477q-45 -102 -144 -342h-254zM410 543h385q-10 94 -60 479q-2 27 -8 83t-10 83h-2q-41 -78 -82 -168q-123 -254 -223 -477zM651 1649l355 184l73 -166l-374 -141z" />
<glyph unicode="&#xc2;" horiz-adv-x="1239" d="M-68 0q311 733 680 1430h306q133 -741 184 -1430h-271q-2 20 -24 342h-477q-45 -102 -144 -342h-254zM410 543h385q-10 94 -60 479q-2 27 -8 83t-10 83h-2q-41 -78 -82 -168q-123 -254 -223 -477zM516 1649l309 182l250 -180l-71 -121l-201 119l-238 -119z" />
<glyph unicode="&#xc3;" horiz-adv-x="1239" d="M-68 0q311 733 680 1430h306q133 -741 184 -1430h-271q-2 20 -24 342h-477q-45 -102 -144 -342h-254zM410 543h385q-10 94 -60 479q-2 27 -8 83t-10 83h-2q-41 -78 -82 -168q-123 -254 -223 -477zM446 1604q33 86 92.5 134t137.5 48q74 0 141.5 -43t104.5 -43 q61 0 110 92l109 -74q-31 -86 -91.5 -134t-138.5 -48q-72 0 -141.5 43t-105.5 43q-61 0 -111 -92z" />
<glyph unicode="&#xc4;" horiz-adv-x="1239" d="M-68 0q311 733 680 1430h306q133 -741 184 -1430h-271q-2 20 -24 342h-477q-45 -102 -144 -342h-254zM410 543h385q-10 94 -60 479q-2 27 -8 83t-10 83h-2q-41 -78 -82 -168q-123 -254 -223 -477zM477 1649q0 59 36 95t89 36t84 -32t31 -83q0 -59 -35 -95t-90 -36 q-51 0 -83 33t-32 82zM879 1649q0 59 34.5 95t88 36t84 -32t30.5 -83q0 -59 -34.5 -95t-90.5 -36q-49 0 -80.5 33t-31.5 82z" />
<glyph unicode="&#xc5;" horiz-adv-x="1239" d="M-68 0q311 733 680 1430h306q133 -741 184 -1430h-271q-2 20 -24 342h-477q-45 -102 -144 -342h-254zM410 543h385q-10 94 -60 479q-2 27 -8 83t-10 83h-2q-41 -78 -82 -168q-123 -254 -223 -477zM573 1651q0 113 69 182.5t196 69.5q96 0 144 -42t48 -114 q0 -113 -67.5 -180.5t-196.5 -67.5q-96 0 -144.5 41t-48.5 111zM719 1669q0 -70 65 -70q47 0 74 38t27 94q0 70 -68 69q-47 0 -72.5 -38t-25.5 -93z" />
<glyph unicode="&#xc6;" horiz-adv-x="1587" d="M-125 0q397 707 873 1430h149h250h475l-37 -205h-473l-70 -385h418l-37 -201h-415l-78 -434h491l-37 -205h-489h-252l55 309h-393q-100 -174 -172 -309h-258zM410 508h323l129 721h-6q-262 -410 -446 -721z" />
<glyph unicode="&#xc7;" horiz-adv-x="1042" d="M84 492q0 119 23.5 244.5t81 255.5t139.5 231.5t210 166t281 64.5q188 0 320 -80l-105 -198q-98 61 -223 61q-119 0 -212 -77t-143 -192.5t-75 -229t-25 -210.5q0 -164 73 -248.5t208 -84.5q117 0 248 61l35 -201q-145 -70 -293 -75l16 -62q20 -74 21 -111 q0 -80 -58.5 -128t-179.5 -48q-104 0 -186 31l24 139h160q53 0 53 33q0 4 -2 12.5t-4 20.5t-4 20l-23 103q-174 33 -267 160t-93 342z" />
<glyph unicode="&#xc8;" horiz-adv-x="987" d="M37 0l252 1430h254h487l-39 -203h-485l-68 -385h418l-35 -201h-420l-77 -438h495l-37 -203h-493h-252zM365 1667l90 166l338 -184l-66 -123z" />
<glyph unicode="&#xc9;" horiz-adv-x="987" d="M37 0l252 1430h254h487l-39 -203h-485l-68 -385h418l-35 -201h-420l-77 -438h495l-37 -203h-493h-252zM557 1649l354 184l74 -166l-375 -141z" />
<glyph unicode="&#xca;" horiz-adv-x="987" d="M37 0l252 1430h254h487l-39 -203h-485l-68 -385h418l-35 -201h-420l-77 -438h495l-37 -203h-493h-252zM410 1649l309 182l250 -180l-72 -121l-201 119l-237 -119z" />
<glyph unicode="&#xcb;" horiz-adv-x="987" d="M37 0l252 1430h254h487l-39 -203h-485l-68 -385h418l-35 -201h-420l-77 -438h495l-37 -203h-493h-252zM373 1649q0 59 35.5 95t89 36t84 -32t30.5 -83q0 -59 -34.5 -95t-90.5 -36q-51 0 -82.5 33t-31.5 82zM774 1649q0 59 35 95t88 36t84 -32t31 -83q0 -59 -35 -95 t-90 -36q-49 0 -81 33t-32 82z" />
<glyph unicode="&#xcc;" horiz-adv-x="532" d="M37 0l252 1430h254l-252 -1430h-254zM176 1667l90 166l338 -184l-65 -123z" />
<glyph unicode="&#xcd;" horiz-adv-x="532" d="M37 0l252 1430h254l-252 -1430h-254zM283 1649l354 184l74 -166l-375 -141z" />
<glyph unicode="&#xce;" horiz-adv-x="532" d="M37 0l252 1430h254l-252 -1430h-254zM166 1649l309 182l250 -180l-72 -121l-200 119l-238 -119z" />
<glyph unicode="&#xcf;" horiz-adv-x="532" d="M37 0l252 1430h254l-252 -1430h-254zM143 1649q0 59 36 95t89.5 36t84 -32t30.5 -83q0 -59 -35 -95t-90 -36q-51 0 -83 33t-32 82zM520 1649q0 59 35 95t88 36t84 -32t31 -83q0 -61 -35 -96t-90 -35q-49 0 -81 33t-32 82z" />
<glyph unicode="&#xd0;" horiz-adv-x="1296" d="M31 631l35 196h139l104 603h254h164q260 0 396.5 -131.5t136.5 -385.5q0 -111 -20.5 -225.5t-77 -240t-140.5 -223t-225.5 -161t-319.5 -63.5h-166h-254l111 631h-137zM346 205h156q111 0 201 49t143 124t90 170t50 181t13 166q0 154 -73.5 243t-229.5 89h-170l-69 -400 h221l-33 -196h-223z" />
<glyph unicode="&#xd1;" horiz-adv-x="1310" d="M37 0l252 1430h336l282 -1061h4l187 1061h223l-254 -1430h-324l-290 1083h-2l-191 -1083h-223zM502 1604q33 86 92 134t137 48q72 0 141.5 -43t104.5 -43q61 0 110 92l109 -74q-31 -86 -91.5 -134t-137.5 -48q-72 0 -141.5 43t-106.5 43q-61 0 -111 -92z" />
<glyph unicode="&#xd2;" horiz-adv-x="1380" d="M84 494q0 121 22.5 245.5t79 255.5t138.5 231.5t215 165t295 64.5q248 0 377.5 -134t129.5 -386q0 -125 -22.5 -250t-77.5 -256t-137 -230.5t-215 -163t-297 -63.5q-250 0 -379 132.5t-129 388.5zM352 506q0 -322 273 -322q111 0 200.5 73t142 185.5t80 236.5t27.5 243 q0 324 -274 323q-119 0 -211 -79t-141.5 -198.5t-73 -238.5t-23.5 -223zM559 1667l90 166l338 -184l-65 -123z" />
<glyph unicode="&#xd3;" horiz-adv-x="1380" d="M84 494q0 121 22.5 245.5t79 255.5t138.5 231.5t215 165t295 64.5q248 0 377.5 -134t129.5 -386q0 -125 -22.5 -250t-77.5 -256t-137 -230.5t-215 -163t-297 -63.5q-250 0 -379 132.5t-129 388.5zM352 506q0 -322 273 -322q111 0 200.5 73t142 185.5t80 236.5t27.5 243 q0 324 -274 323q-119 0 -211 -79t-141.5 -198.5t-73 -238.5t-23.5 -223zM780 1649l355 184l73 -166l-374 -141z" />
<glyph unicode="&#xd4;" horiz-adv-x="1380" d="M84 494q0 121 22.5 245.5t79 255.5t138.5 231.5t215 165t295 64.5q248 0 377.5 -134t129.5 -386q0 -125 -22.5 -250t-77.5 -256t-137 -230.5t-215 -163t-297 -63.5q-250 0 -379 132.5t-129 388.5zM352 506q0 -322 273 -322q111 0 200.5 73t142 185.5t80 236.5t27.5 243 q0 324 -274 323q-119 0 -211 -79t-141.5 -198.5t-73 -238.5t-23.5 -223zM598 1649l309 182l250 -180l-72 -121l-200 119l-238 -119z" />
<glyph unicode="&#xd5;" horiz-adv-x="1380" d="M84 494q0 121 22.5 245.5t79 255.5t138.5 231.5t215 165t295 64.5q248 0 377.5 -134t129.5 -386q0 -125 -22.5 -250t-77.5 -256t-137 -230.5t-215 -163t-297 -63.5q-250 0 -379 132.5t-129 388.5zM352 506q0 -322 273 -322q111 0 200.5 73t142 185.5t80 236.5t27.5 243 q0 324 -274 323q-119 0 -211 -79t-141.5 -198.5t-73 -238.5t-23.5 -223zM532 1604q33 86 92.5 134t137.5 48q74 0 141.5 -43t104.5 -43q61 0 110 92l109 -74q-31 -86 -91.5 -134t-138.5 -48q-72 0 -141.5 43t-105.5 43q-61 0 -111 -92z" />
<glyph unicode="&#xd6;" horiz-adv-x="1380" d="M84 494q0 121 22.5 245.5t79 255.5t138.5 231.5t215 165t295 64.5q248 0 377.5 -134t129.5 -386q0 -125 -22.5 -250t-77.5 -256t-137 -230.5t-215 -163t-297 -63.5q-250 0 -379 132.5t-129 388.5zM352 506q0 -322 273 -322q111 0 200.5 73t142 185.5t80 236.5t27.5 243 q0 324 -274 323q-119 0 -211 -79t-141.5 -198.5t-73 -238.5t-23.5 -223zM559 1649q0 59 36 95t89 36t84 -32t31 -83q0 -59 -35 -95t-90 -36q-51 0 -83 33t-32 82zM961 1649q0 59 34.5 95t88 36t84 -32t30.5 -83q0 -59 -35 -95t-90 -36q-49 0 -80.5 33t-31.5 82z" />
<glyph unicode="&#xd7;" d="M25 309l366 332l-250 330l162 129l242 -322l354 322l121 -135l-367 -332l250 -332l-160 -127l-241 322l-355 -322z" />
<glyph unicode="&#xd8;" horiz-adv-x="1380" d="M80 -162l151 246q-145 127 -145 401q0 123 22.5 250t78 259t138.5 232.5t215 165t296 64.5q129 0 221 -43l141 232l145 -74l-141 -234q139 -127 139 -393q0 -125 -21.5 -251t-76.5 -258t-137 -232.5t-215 -165t-299 -64.5q-125 0 -215 39l-152 -248zM334 504 q0 -125 39 -185l573 904q-53 33 -143 32q-121 0 -215 -75.5t-146.5 -193.5t-79 -241.5t-28.5 -240.5zM489 205q47 -31 136 -31q115 0 207 72.5t147 186.5t85 243t30 254q0 111 -37 172z" />
<glyph unicode="&#xd9;" horiz-adv-x="1298" d="M113 371q0 72 14 157l160 902h254l-160 -910q-10 -55 -10 -106q0 -229 207 -230q125 0 210.5 86t116.5 254l160 906h248l-164 -918q-47 -264 -201.5 -400.5t-396.5 -136.5q-438 1 -438 396zM492 1667l90 166l338 -184l-66 -123z" />
<glyph unicode="&#xda;" horiz-adv-x="1298" d="M113 371q0 72 14 157l160 902h254l-160 -910q-10 -55 -10 -106q0 -229 207 -230q125 0 210.5 86t116.5 254l160 906h248l-164 -918q-47 -264 -201.5 -400.5t-396.5 -136.5q-438 1 -438 396zM756 1649l354 184l74 -166l-375 -141z" />
<glyph unicode="&#xdb;" horiz-adv-x="1298" d="M113 371q0 72 14 157l160 902h254l-160 -910q-10 -55 -10 -106q0 -229 207 -230q125 0 210.5 86t116.5 254l160 906h248l-164 -918q-47 -264 -201.5 -400.5t-396.5 -136.5q-438 1 -438 396zM555 1649l309 182l250 -180l-72 -121l-200 119l-238 -119z" />
<glyph unicode="&#xdc;" horiz-adv-x="1298" d="M113 371q0 72 14 157l160 902h254l-160 -910q-10 -55 -10 -106q0 -229 207 -230q125 0 210.5 86t116.5 254l160 906h248l-164 -918q-47 -264 -201.5 -400.5t-396.5 -136.5q-438 1 -438 396zM518 1649q0 59 36 95t89 36t84 -32t31 -83q0 -59 -35 -95t-90 -36q-51 0 -83 33 t-32 82zM920 1649q0 59 34.5 95t88 36t84 -32t30.5 -83q0 -59 -35 -95t-90 -36q-49 0 -80.5 33t-31.5 82z" />
<glyph unicode="&#xdd;" horiz-adv-x="1079" d="M156 1430h270q59 -328 162 -603q203 289 364 603h267q-268 -479 -551 -836l-103 -594h-252l103 594q-154 367 -260 836zM649 1649l355 184l73 -166l-375 -141z" />
<glyph unicode="&#xde;" horiz-adv-x="1046" d="M37 0l252 1430h252l-41 -234h118q100 0 166 -16q123 -29 190.5 -113t67.5 -219q0 -106 -33.5 -204.5t-100 -181.5t-178.5 -133t-253 -50h-139l-49 -279h-252zM373 479h141q125 0 192.5 107.5t67.5 234.5q0 129 -94 162q-41 14 -94 14h-121z" />
<glyph unicode="&#xdf;" horiz-adv-x="1107" d="M-268 -426l30 174h80q84 0 119 53.5t53 157.5l197 1114q39 227 172 357.5t342 130.5q170 0 260 -78t90 -197q0 -84 -30.5 -147.5t-73.5 -102.5t-86 -72.5t-74 -75.5t-31 -93q0 -39 25.5 -74t61.5 -64.5t72 -64.5t61.5 -90.5t25.5 -124.5q0 -160 -114.5 -281t-315.5 -121 q-117 0 -195 31l62 189q68 -27 141 -27q72 0 120 46t48 118q0 59 -38 109.5t-82 82t-82 91t-38 137.5q0 80 30 142t74 103t87 77t72.5 82t29.5 101q0 111 -131 111q-188 0 -243 -309l-195 -1102q-35 -195 -123 -297t-258 -102q-88 0 -143 16z" />
<glyph unicode="&#xe0;" horiz-adv-x="1067" d="M45 336q0 100 18.5 199.5t63.5 196.5t110.5 172t166 121t225.5 46q186 0 389 -67l-178 -1004h-189l21 207q-133 -236 -338 -236q-145 0 -217 98.5t-72 266.5zM299 362q0 -188 109 -188q90 0 180 138.5t119 305.5l38 224q-61 33 -141 32.5t-142.5 -51.5t-96 -131t-50 -165 t-16.5 -165zM410 1466l178 111l198 -307l-124 -82z" />
<glyph unicode="&#xe1;" horiz-adv-x="1067" d="M45 336q0 100 18.5 199.5t63.5 196.5t110.5 172t166 121t225.5 46q186 0 389 -67l-178 -1004h-189l21 207q-133 -236 -338 -236q-145 0 -217 98.5t-72 266.5zM299 362q0 -188 109 -188q90 0 180 138.5t119 305.5l38 224q-61 33 -141 32.5t-142.5 -51.5t-96 -131t-50 -165 t-16.5 -165zM551 1272l246 305l170 -111l-297 -278z" />
<glyph unicode="&#xe2;" horiz-adv-x="1067" d="M45 336q0 100 18.5 199.5t63.5 196.5t110.5 172t166 121t225.5 46q186 0 389 -67l-178 -1004h-189l21 207q-133 -236 -338 -236q-145 0 -217 98.5t-72 266.5zM299 362q0 -188 109 -188q90 0 180 138.5t119 305.5l38 224q-61 33 -141 32.5t-142.5 -51.5t-96 -131t-50 -165 t-16.5 -165zM399 1300l324 281l244 -281l-99 -112l-172 174l-225 -174z" />
<glyph unicode="&#xe3;" horiz-adv-x="1067" d="M45 336q0 100 18.5 199.5t63.5 196.5t110.5 172t166 121t225.5 46q186 0 389 -67l-178 -1004h-189l21 207q-133 -236 -338 -236q-145 0 -217 98.5t-72 266.5zM299 362q0 -188 109 -188q90 0 180 138.5t119 305.5l38 224q-61 33 -141 32.5t-142.5 -51.5t-96 -131t-50 -165 t-16.5 -165zM356 1319q72 190 228 190q70 0 134 -44t99 -44q63 0 113 95l104 -78q-72 -190 -227 -191q-72 0 -136.5 44t-101.5 44q-59 0 -110 -96z" />
<glyph unicode="&#xe4;" horiz-adv-x="1067" d="M45 336q0 100 18.5 199.5t63.5 196.5t110.5 172t166 121t225.5 46q186 0 389 -67l-178 -1004h-189l21 207q-133 -236 -338 -236q-145 0 -217 98.5t-72 266.5zM299 362q0 -188 109 -188q90 0 180 138.5t119 305.5l38 224q-61 33 -141 32.5t-142.5 -51.5t-96 -131t-50 -165 t-16.5 -165zM369 1366q0 61 36.5 99t94.5 38q55 0 88 -33.5t33 -85.5q0 -63 -37 -101t-95 -38q-55 0 -87.5 35t-32.5 86zM748 1366q0 61 36.5 99t94.5 38q55 0 87.5 -33.5t32.5 -85.5q0 -63 -37.5 -101t-95.5 -38q-53 0 -85.5 35t-32.5 86z" />
<glyph unicode="&#xe5;" horiz-adv-x="1067" d="M45 336q0 100 18.5 199.5t63.5 196.5t110.5 172t166 121t225.5 46q186 0 389 -67l-178 -1004h-189l21 207q-133 -236 -338 -236q-145 0 -217 98.5t-72 266.5zM299 362q0 -188 109 -188q90 0 180 138.5t119 305.5l38 224q-61 33 -141 32.5t-142.5 -51.5t-96 -131t-50 -165 t-16.5 -165zM457 1346q0 104 62.5 181t191.5 77q92 0 142 -44t50 -126q0 -102 -63.5 -179t-190.5 -77q-192 0 -192 168zM598 1360q0 -76 70 -76q45 0 69.5 42t24.5 95q0 74 -68 74q-45 0 -70.5 -42t-25.5 -93z" />
<glyph unicode="&#xe6;" horiz-adv-x="1546" d="M12 236q0 184 142.5 287.5t439.5 103.5h53l12 67q6 39 7 74q0 66 -36 96.5t-124 30.5q-139 0 -289 -64l-8 181q176 68 350 67q217 0 281 -133q127 133 321 133q162 0 246 -72.5t84 -191.5q0 -172 -149.5 -265t-489.5 -95q-8 -66 -8 -101q0 -98 46 -145t152 -47 q143 0 299 53l2 -184q-162 -57 -352 -58q-285 0 -346 187q-51 -84 -142 -135.5t-200 -51.5q-135 0 -213 68t-78 195zM252 266q0 -113 108 -112q96 0 163 76.5t87 191.5l8 43h-57q-309 0 -309 -199zM881 618q213 0 293.5 46.5t80.5 132.5q0 51 -31.5 78.5t-86.5 27.5 q-96 0 -161.5 -78t-94.5 -207z" />
<glyph unicode="&#xe7;" horiz-adv-x="813" d="M45 354q0 123 32 244t95.5 230.5t174 177t253.5 67.5q141 0 238 -51l-78 -186q-72 41 -156 41t-148.5 -53.5t-96 -134.5t-47 -157.5t-15.5 -144.5q0 -207 176 -207q96 0 191 45l12 -190q-86 -39 -201 -53l19 -64q20 -74 20 -111q0 -80 -58.5 -128t-179.5 -48 q-104 0 -186 31l27 139h157q53 0 54 33q0 16 -11 53l-22 103q-250 51 -250 364z" />
<glyph unicode="&#xe8;" horiz-adv-x="991" d="M47 340q0 86 14.5 177t53.5 194.5t98 182.5t160.5 132t230.5 53q164 0 248 -72.5t84 -191.5q0 -358 -639 -369q-8 -43 -8 -92q0 -98 46 -145t152 -47q143 0 297 53l4 -184q-162 -57 -354 -58q-199 0 -293 89.5t-94 277.5zM326 614q209 0 291.5 48.5t82.5 134.5 q0 51 -31.5 78.5t-86.5 27.5q-96 0 -161.5 -79t-94.5 -210zM383 1466l178 111l199 -307l-125 -82z" />
<glyph unicode="&#xe9;" horiz-adv-x="991" d="M47 340q0 86 14.5 177t53.5 194.5t98 182.5t160.5 132t230.5 53q164 0 248 -72.5t84 -191.5q0 -358 -639 -369q-8 -43 -8 -92q0 -98 46 -145t152 -47q143 0 297 53l4 -184q-162 -57 -354 -58q-199 0 -293 89.5t-94 277.5zM326 614q209 0 291.5 48.5t82.5 134.5 q0 51 -31.5 78.5t-86.5 27.5q-96 0 -161.5 -79t-94.5 -210zM528 1272l246 305l170 -111l-297 -278z" />
<glyph unicode="&#xea;" horiz-adv-x="991" d="M47 340q0 86 14.5 177t53.5 194.5t98 182.5t160.5 132t230.5 53q164 0 248 -72.5t84 -191.5q0 -358 -639 -369q-8 -43 -8 -92q0 -98 46 -145t152 -47q143 0 297 53l4 -184q-162 -57 -354 -58q-199 0 -293 89.5t-94 277.5zM326 614q209 0 291.5 48.5t82.5 134.5 q0 51 -31.5 78.5t-86.5 27.5q-96 0 -161.5 -79t-94.5 -210zM365 1300l323 281l244 -281l-98 -112l-172 174l-226 -174z" />
<glyph unicode="&#xeb;" horiz-adv-x="991" d="M47 340q0 86 14.5 177t53.5 194.5t98 182.5t160.5 132t230.5 53q164 0 248 -72.5t84 -191.5q0 -358 -639 -369q-8 -43 -8 -92q0 -98 46 -145t152 -47q143 0 297 53l4 -184q-162 -57 -354 -58q-199 0 -293 89.5t-94 277.5zM326 614q209 0 291.5 48.5t82.5 134.5 q0 51 -31.5 78.5t-86.5 27.5q-96 0 -161.5 -79t-94.5 -210zM338 1366q0 61 37 99t94 38q55 0 88 -33.5t33 -85.5q0 -63 -37 -101t-94 -38q-55 0 -88 35t-33 86zM717 1366q0 61 37 99t94 38q55 0 88 -33.5t33 -85.5q0 -63 -38 -101t-95 -38q-53 0 -86 35t-33 86z" />
<glyph unicode="&#xec;" horiz-adv-x="536" d="M68 0l153 862h-139l33 189h379l-185 -1051h-241zM166 1466l178 111l199 -307l-125 -82z" />
<glyph unicode="&#xed;" horiz-adv-x="536" d="M68 0l153 862h-139l33 189h379l-185 -1051h-241zM254 1272l246 305l170 -111l-297 -278z" />
<glyph unicode="&#xee;" horiz-adv-x="536" d="M68 0l153 862h-139l33 189h379l-185 -1051h-241zM109 1300l323 281l244 -281l-98 -112l-172 174l-226 -174z" />
<glyph unicode="&#xef;" horiz-adv-x="536" d="M68 0l153 862h-139l33 189h379l-185 -1051h-241zM100 1366q0 61 37 99t94 38q55 0 88 -33.5t33 -85.5q0 -63 -36.5 -101t-94.5 -38q-55 0 -88 35t-33 86zM465 1366q0 61 37 99t94 38q55 0 88 -33.5t33 -85.5q0 -63 -37 -101t-96 -38q-53 0 -86 35t-33 86z" />
<glyph unicode="&#xf0;" horiz-adv-x="1091" d="M51 375q0 174 60.5 328.5t184.5 256t286 101.5q115 0 161 -78q-25 119 -90 238l-196 -72l-58 139l183 68q-33 57 -97 135l238 74q47 -57 94 -133l219 77l62 -139l-209 -76q127 -260 127 -544q0 -207 -64.5 -381t-200 -285t-317.5 -111q-190 0 -286.5 104.5t-96.5 297.5z M297 383q0 -217 166 -217q76 0 136 51t94 130t51.5 158t17.5 146q0 100 -45 161.5t-131 61.5q-131 0 -210 -161.5t-79 -329.5z" />
<glyph unicode="&#xf1;" horiz-adv-x="1083" d="M23 0l184 1051h188l-16 -207q59 104 149 169.5t199 65.5q262 0 262 -295q0 -51 -14 -145l-113 -639h-241l110 616q12 76 12 129q0 131 -98 132q-92 0 -184 -136.5t-121 -300.5l-78 -440h-239zM344 1319q72 190 227 190q70 0 134.5 -44t99.5 -44q63 0 113 95l104 -78 q-72 -190 -227 -191q-72 0 -136.5 44t-101.5 44q-59 0 -111 -96z" />
<glyph unicode="&#xf2;" horiz-adv-x="1075" d="M47 373q0 90 18.5 184t62.5 189.5t107.5 168t164 118.5t221.5 46q193 0 290 -104.5t97 -296.5q0 -92 -18.5 -185.5t-61.5 -187.5t-106.5 -166.5t-164 -119t-223.5 -46.5q-193 0 -290 103.5t-97 296.5zM297 381q0 -213 168 -213q72 0 130 50t93 128t52.5 161t17.5 159 q0 217 -166 217q-94 0 -165 -87t-100.5 -198t-29.5 -217zM403 1466l179 111l198 -307l-125 -82z" />
<glyph unicode="&#xf3;" horiz-adv-x="1075" d="M47 373q0 90 18.5 184t62.5 189.5t107.5 168t164 118.5t221.5 46q193 0 290 -104.5t97 -296.5q0 -92 -18.5 -185.5t-61.5 -187.5t-106.5 -166.5t-164 -119t-223.5 -46.5q-193 0 -290 103.5t-97 296.5zM297 381q0 -213 168 -213q72 0 130 50t93 128t52.5 161t17.5 159 q0 217 -166 217q-94 0 -165 -87t-100.5 -198t-29.5 -217zM532 1272l246 305l170 -111l-297 -278z" />
<glyph unicode="&#xf4;" horiz-adv-x="1075" d="M47 373q0 90 18.5 184t62.5 189.5t107.5 168t164 118.5t221.5 46q193 0 290 -104.5t97 -296.5q0 -92 -18.5 -185.5t-61.5 -187.5t-106.5 -166.5t-164 -119t-223.5 -46.5q-193 0 -290 103.5t-97 296.5zM297 381q0 -213 168 -213q72 0 130 50t93 128t52.5 161t17.5 159 q0 217 -166 217q-94 0 -165 -87t-100.5 -198t-29.5 -217zM387 1300l324 281l243 -281l-98 -112l-172 174l-225 -174z" />
<glyph unicode="&#xf5;" horiz-adv-x="1075" d="M47 373q0 90 18.5 184t62.5 189.5t107.5 168t164 118.5t221.5 46q193 0 290 -104.5t97 -296.5q0 -92 -18.5 -185.5t-61.5 -187.5t-106.5 -166.5t-164 -119t-223.5 -46.5q-193 0 -290 103.5t-97 296.5zM297 381q0 -213 168 -213q72 0 130 50t93 128t52.5 161t17.5 159 q0 217 -166 217q-94 0 -165 -87t-100.5 -198t-29.5 -217zM340 1319q72 190 227 190q70 0 134.5 -44t99.5 -44q63 0 112 95l105 -78q-72 -190 -227 -191q-72 0 -136.5 44t-101.5 44q-59 0 -111 -96z" />
<glyph unicode="&#xf6;" horiz-adv-x="1075" d="M47 373q0 90 18.5 184t62.5 189.5t107.5 168t164 118.5t221.5 46q193 0 290 -104.5t97 -296.5q0 -92 -18.5 -185.5t-61.5 -187.5t-106.5 -166.5t-164 -119t-223.5 -46.5q-193 0 -290 103.5t-97 296.5zM297 381q0 -213 168 -213q72 0 130 50t93 128t52.5 161t17.5 159 q0 217 -166 217q-94 0 -165 -87t-100.5 -198t-29.5 -217zM362 1366q0 61 37 99t95 38q55 0 87.5 -33.5t32.5 -85.5q0 -63 -36.5 -101t-94.5 -38q-55 0 -88 35t-33 86zM741 1366q0 61 37 99t94 38q55 0 88 -33.5t33 -85.5q0 -63 -37.5 -101t-95.5 -38q-53 0 -86 35t-33 86z " />
<glyph unicode="&#xf7;" d="M53 539l35 192h895l-35 -192h-895zM297 219q0 68 45 113t111 45q61 0 101 -42t40 -102q0 -70 -46 -114.5t-110 -44.5q-61 0 -101 42t-40 103zM444 1040q0 68 45.5 114t108.5 46q61 0 102 -42t41 -103q0 -70 -46 -115t-109 -45q-61 0 -101.5 42t-40.5 103z" />
<glyph unicode="&#xf8;" horiz-adv-x="1075" d="M29 -158l133 213q-115 98 -115 314q0 119 32 236.5t96.5 227t181 178t268.5 68.5q84 0 151 -24l137 217l131 -64l-137 -221q106 -98 107 -303q0 -94 -18.5 -188.5t-61.5 -189.5t-107.5 -167.5t-166 -119t-224.5 -46.5q-88 0 -143 21l-133 -215zM274 408q0 -92 25 -132 l375 607q-27 16 -82 16q-147 0 -231.5 -154.5t-86.5 -336.5zM395 164q37 -12 72 -12q102 0 179 80.5t109.5 189t32.5 221.5q0 82 -20 123z" />
<glyph unicode="&#xf9;" horiz-adv-x="1083" d="M74 266q0 55 14 146l113 639h241l-108 -617q-14 -90 -15 -129q0 -131 101 -131q92 0 183 136t120 300l78 441h241l-186 -1051h-188l16 209q-57 -106 -148.5 -172t-197.5 -66q-131 0 -197.5 77t-66.5 218zM383 1466l178 111l199 -307l-125 -82z" />
<glyph unicode="&#xfa;" horiz-adv-x="1083" d="M74 266q0 55 14 146l113 639h241l-108 -617q-14 -90 -15 -129q0 -131 101 -131q92 0 183 136t120 300l78 441h241l-186 -1051h-188l16 209q-57 -106 -148.5 -172t-197.5 -66q-131 0 -197.5 77t-66.5 218zM530 1272l246 305l170 -111l-297 -278z" />
<glyph unicode="&#xfb;" horiz-adv-x="1083" d="M74 266q0 55 14 146l113 639h241l-108 -617q-14 -90 -15 -129q0 -131 101 -131q92 0 183 136t120 300l78 441h241l-186 -1051h-188l16 209q-57 -106 -148.5 -172t-197.5 -66q-131 0 -197.5 77t-66.5 218zM375 1300l323 281l244 -281l-98 -112l-172 174l-226 -174z" />
<glyph unicode="&#xfc;" horiz-adv-x="1083" d="M74 266q0 55 14 146l113 639h241l-108 -617q-14 -90 -15 -129q0 -131 101 -131q92 0 183 136t120 300l78 441h241l-186 -1051h-188l16 209q-57 -106 -148.5 -172t-197.5 -66q-131 0 -197.5 77t-66.5 218zM348 1366q0 61 37 99t94 38q55 0 88 -33.5t33 -85.5 q0 -63 -37 -101t-94 -38q-55 0 -88 35t-33 86zM727 1366q0 61 37 99t94 38q55 0 88 -33.5t33 -85.5q0 -63 -38 -101t-95 -38q-53 0 -86 35t-33 86z" />
<glyph unicode="&#xfd;" horiz-adv-x="931" d="M-131 -420l39 180h106q51 0 100.5 49.5t131.5 186.5q-113 471 -135 1055h241q12 -328 54 -650q10 -86 16 -153h2q10 25 32.5 76t32.5 75q133 301 254 652h242q-262 -686 -481 -1051q-152 -252 -268.5 -347t-243.5 -95q-66 -1 -123 22zM479 1272l246 305l170 -111 l-297 -278z" />
<glyph unicode="&#xfe;" horiz-adv-x="1067" d="M-51 -418l344 1954h242l-86 -481q-18 -100 -41 -187q51 92 130.5 151.5t176.5 59.5q145 0 215.5 -98t70.5 -264q0 -127 -31.5 -251t-96 -234.5t-180 -179t-265.5 -68.5q-94 0 -164 16l-74 -418h-241zM301 209q61 -33 141 -33q106 0 179 90t100 201t27 223q0 186 -107 187 q-92 0 -182 -138.5t-119 -302.5z" />
<glyph unicode="&#xff;" horiz-adv-x="931" d="M-131 -420l39 180h106q51 0 100.5 49.5t131.5 186.5q-113 471 -135 1055h241q12 -328 54 -650q10 -86 16 -153h2q10 25 32.5 76t32.5 75q133 301 254 652h242q-262 -686 -481 -1051q-152 -252 -268.5 -347t-243.5 -95q-66 -1 -123 22zM279 1366q0 61 36.5 99t94.5 38 q55 0 87.5 -33.5t32.5 -85.5q0 -63 -36.5 -101t-94.5 -38q-55 0 -87.5 35t-32.5 86zM657 1366q0 61 37 99t94 38q55 0 88 -33.5t33 -85.5q0 -63 -37.5 -101t-95.5 -38q-53 0 -86 35t-33 86z" />
<glyph unicode="&#x152;" horiz-adv-x="1705" d="M84 494q0 121 22.5 245.5t79 255.5t138.5 231.5t215 165t295 64.5q113 0 208 -26h705l-37 -203h-489l-68 -387h422l-35 -199h-422l-78 -438h498l-37 -203h-706q-111 -27 -203 -27q-250 0 -379 132.5t-129 388.5zM350 506q0 -322 277 -322q90 0 168 41l172 977 q-70 43 -166 43q-119 0 -212 -79t-141.5 -198.5t-73 -238.5t-24.5 -223z" />
<glyph unicode="&#x153;" horiz-adv-x="1669" d="M47 373q0 90 18.5 184t62.5 189.5t107.5 168t164 118.5t221.5 46q225 0 309 -168q139 168 354 168q164 0 248 -72.5t84 -191.5q0 -358 -641 -369q-8 -66 -8 -92q0 -98 46 -145t152 -47q143 0 297 53l4 -184q-162 -57 -352 -58q-244 0 -319 162q-141 -162 -361 -162 q-193 0 -290 103.5t-97 296.5zM297 381q0 -213 168 -213q72 0 130 50t93 128t52.5 161t17.5 159q0 217 -166 217q-94 0 -165 -87t-100.5 -198t-29.5 -217zM1004 614q209 0 291.5 48.5t82.5 134.5q0 51 -31.5 78.5t-86.5 27.5q-96 0 -161.5 -79t-94.5 -210z" />
<glyph unicode="&#x178;" horiz-adv-x="1079" d="M156 1430h270q59 -328 162 -603q203 289 364 603h267q-268 -479 -551 -836l-103 -594h-252l103 594q-154 367 -260 836zM412 1649q0 59 35.5 95t89 36t84 -32t30.5 -83q0 -59 -34.5 -95t-90.5 -36q-51 0 -82.5 33t-31.5 82zM813 1649q0 59 35 95t88 36t84 -32t31 -83 q0 -59 -35 -95t-90 -36q-49 0 -81 33t-32 82z" />
<glyph unicode="&#x2c6;" horiz-adv-x="665" d="M129 1300l324 281l243 -281l-98 -112l-172 174l-225 -174z" />
<glyph unicode="&#x2dc;" horiz-adv-x="765" d="M135 1319q72 190 227 190q70 0 134.5 -44t99.5 -44q63 0 113 95l104 -78q-72 -190 -227 -191q-72 0 -136.5 44t-101.5 44q-59 0 -110 -96z" />
<glyph unicode="&#x2013;" d="M-10 526l37 201h1024l-37 -201h-1024z" />
<glyph unicode="&#x2014;" horiz-adv-x="1945" d="M156 526l34 203h1616l-34 -203h-1616z" />
<glyph unicode="&#x2018;" horiz-adv-x="501" d="M203 1114q0 98 79.5 223t241.5 252l90 -96q-160 -152 -159 -233q0 -18 17 -58.5t17 -79.5q0 -66 -40.5 -112.5t-106.5 -46.5q-63 0 -101 40.5t-38 110.5z" />
<glyph unicode="&#x2019;" horiz-adv-x="501" d="M121 997q160 152 160 234q0 18 -16.5 58t-16.5 79q0 66 42 114t105.5 48t100 -42t36.5 -110q0 -100 -78.5 -224t-242.5 -251z" />
<glyph unicode="&#x201a;" horiz-adv-x="501" d="M-96 -242q160 152 159 234q0 18 -17 58t-17 79q0 66 43 113t106.5 47t100 -41t36.5 -111q0 -98 -78.5 -223t-242.5 -252z" />
<glyph unicode="&#x201c;" horiz-adv-x="868" d="M203 1122q0 94 76.5 214t238.5 247l86 -92q-162 -152 -162 -229q0 -16 17.5 -55.5t17.5 -76.5q0 -63 -40 -107t-101 -44q-63 0 -98 38.5t-35 104.5zM588 1122q0 96 75.5 214t231.5 237l86 -90q-154 -141 -154 -221q0 -16 16.5 -55.5t16.5 -76.5q0 -63 -40 -107 t-101.5 -44t-96 38.5t-34.5 104.5z" />
<glyph unicode="&#x201d;" horiz-adv-x="868" d="M123 1010q154 141 153 223q0 16 -16 55t-16 76q0 61 41 106.5t100 45.5q61 0 97 -39t36 -107q0 -94 -76.5 -212t-232.5 -236zM500 1001q162 150 162 232q0 16 -16.5 55t-16.5 76q0 61 40 106.5t99 45.5q61 0 97 -39t36 -107q0 -94 -76.5 -214t-238.5 -245z" />
<glyph unicode="&#x201e;" horiz-adv-x="876" d="M-92 -223q154 141 153 223q0 16 -16 55t-16 76q0 63 40 108.5t101 45.5t97 -39t36 -107q0 -96 -75.5 -215t-233.5 -237zM287 -231q162 152 162 231q0 16 -17.5 55t-17.5 76q0 63 41 108.5t102 45.5t96 -40t35 -106q0 -217 -313 -463z" />
<glyph unicode="&#x2022;" d="M170 696q0 162 110.5 272.5t264.5 110.5q147 0 249.5 -103.5t102.5 -250.5q0 -162 -109.5 -272.5t-263.5 -110.5q-150 0 -252 102t-102 252z" />
<glyph unicode="&#x2026;" horiz-adv-x="1454" d="M31 129q0 72 46 120t111 48q63 0 104.5 -43t41.5 -107q0 -72 -46 -119.5t-112 -47.5q-63 0 -104 43t-41 106zM496 129q0 72 47 120t112 48q63 0 104.5 -43t41.5 -107q0 -74 -46 -120.5t-114 -46.5q-61 0 -103 44t-42 105zM963 129q0 72 46 120t111 48q63 0 104.5 -43 t41.5 -107q0 -72 -46 -119.5t-112 -47.5q-63 0 -104 43t-41 106z" />
<glyph unicode="&#x2039;" horiz-adv-x="694" d="M76 580l346 471l170 -76l-270 -408l124 -407l-180 -64z" />
<glyph unicode="&#x203a;" horiz-adv-x="694" d="M100 172l269 408l-125 407l180 64l190 -484l-346 -471z" />
<glyph unicode="&#x20ac;" d="M8 434l27 156h119q8 70 16 110q8 61 23 117h-117l26 156h136q82 233 226 357t341 124q152 0 264 -74l-90 -174q-92 51 -193 51q-209 0 -305 -284h322l-29 -156h-338q-6 -18 -22 -104q-10 -55 -17 -123h336l-26 -156h-318q-2 -260 215 -260q115 0 213 51l35 -178 q-133 -72 -307 -72q-410 0 -408 459h-129z" />
<glyph unicode="&#x2122;" horiz-adv-x="1286" d="M184 1298l25 132h409l-24 -132h-127l-84 -467h-154l82 467h-127zM565 831q55 301 127 599h201l35 -398l176 398h207q-41 -371 -82 -599h-142q43 258 66 426l-195 -426h-139l-45 426q-49 -258 -80 -426h-129z" />
<glyph unicode="&#xe000;" horiz-adv-x="1050" d="M0 1050h1050v-1050h-1050v1050z" />
<glyph unicode="&#xfb01;" horiz-adv-x="1118" d="M-223 -426l30 174h80q84 0 119 53.5t53 157.5l160 903h-135l33 189h135l20 114q35 190 123 292t258 102q80 0 144 -15l-31 -176h-82q-84 0 -119 -52t-53 -159l-18 -106h583l-186 -1051h-240l152 862h-342l-162 -909q-35 -193 -123 -294t-258 -101q-88 0 -141 16z M860 1358q0 70 43 115t111 45q61 0 101 -40t40 -102q0 -70 -44 -114.5t-110 -44.5q-63 0 -102 40t-39 101z" />
<glyph unicode="&#xfb02;" horiz-adv-x="1153" d="M-223 -426l30 174h80q84 0 119 53.5t53 157.5l160 903h-135l33 189h135l16 86q35 213 148.5 317.5t351.5 104.5q186 0 389 -33l-219 -1243q-10 -55 1 -80t52 -25h62l-33 -178q-74 -20 -152 -20q-225 0 -180 245l199 1131q-80 12 -156 12q-104 0 -154.5 -58.5 t-68.5 -168.5l-14 -90h182l-33 -189h-182l-162 -905q-35 -195 -123 -297t-258 -102q-88 0 -141 16z" />
<glyph unicode="&#xfb03;" horiz-adv-x="1802" d="M1334 0l153 862h-139l33 189h379l-185 -1051h-241zM1540 1356q0 72 45.5 117t110.5 45q63 0 103 -40t40 -100q0 -72 -44 -116.5t-111 -44.5q-63 0 -103.5 40t-40.5 99zM410 -426l30 174h80q84 0 119 53.5t53 157.5l160 903h-135l33 189h135l20 114q35 190 123 292 t258 102q80 0 146 -15l-31 -176h-84q-84 0 -119 -52t-53 -159l-18 -106h190l-33 -189h-190l-162 -909q-35 -193 -123 -294t-258 -101q-88 0 -141 16zM-223 -426l30 174h80q84 0 119 53.5t53 157.5l160 903h-135l33 189h135l20 114q35 190 123 292t258 102q80 0 146 -15 l-31 -176h-84q-84 0 -119 -52t-53 -159l-18 -106h190l-33 -189h-190l-162 -909q-35 -193 -123 -294t-258 -101q-88 0 -141 16z" />
<glyph unicode="&#xfb04;" horiz-adv-x="1794" d="M1329 231l230 1305h242l-222 -1253q-5 -26 -5 -46q0 -21 6 -34q11 -25 51 -25h63l-33 -178q-74 -20 -151 -20q-188 0 -188 174q-1 35 7 77zM410 -426l30 174h80q84 0 119 53.5t53 157.5l160 903h-135l33 189h135l20 114q35 190 123 292t258 102q80 0 146 -15l-31 -176 h-84q-84 0 -119 -52t-53 -159l-18 -106h190l-33 -189h-190l-162 -909q-35 -193 -123 -294t-258 -101q-88 0 -141 16zM-223 -426l30 174h80q84 0 119 53.5t53 157.5l160 903h-135l33 189h135l20 114q35 190 123 292t258 102q80 0 146 -15l-31 -176h-84q-84 0 -119 -52 t-53 -159l-18 -106h190l-33 -189h-190l-162 -909q-35 -193 -123 -294t-258 -101q-88 0 -141 16z" />
</font>
</defs>
</svg>
