<?xml version="1.0" standalone="no"?>
<!DOCTYPE svg PUBLIC "-//W3C//DTD SVG 1.1//EN" "http://www.w3.org/Graphics/SVG/1.1/DTD/svg11.dtd" >
<svg xmlns="http://www.w3.org/2000/svg">
<metadata>
This is a custom SVG webfont generated by Font Squirrel.
Copyright   : Copyright c 1997 2002 2006 2007 Lucas de Groot published by LucasFonts
Designer    : Lucas de Groot
Foundry     : Lucas de Groot
Foundry URL : httpwwwlucasfontscom
</metadata>
<defs>
<font id="CorpidC4SCdRegularItalic" horiz-adv-x="1024" >
<font-face units-per-em="2048" ascent="1595" descent="-453" />
<missing-glyph horiz-adv-x="497" />
<glyph unicode=" "  horiz-adv-x="497" />
<glyph unicode="&#x09;" horiz-adv-x="497" />
<glyph unicode="&#xa0;" horiz-adv-x="497" />
<glyph unicode="!" horiz-adv-x="649" d="M154 96q0 59 37.5 97t89.5 38q49 0 82.5 -34.5t33.5 -83.5q0 -59 -36.5 -97.5t-90.5 -38.5q-49 0 -82.5 35t-33.5 84zM250 381l178 1155h199l-228 -1155h-149z" />
<glyph unicode="&#x22;" horiz-adv-x="806" d="M225 969l76 567h180l-127 -567h-129zM578 969l75 567h181l-125 -567h-131z" />
<glyph unicode="#" d="M68 408l8 135h160l71 366h-147l8 135h168l76 386h147l-78 -386h240l76 386h147l-76 -386h142l-9 -135h-159l-72 -366h143l-8 -135h-162l-81 -408h-148l82 408h-240l-82 -408h-145l82 408h-143zM383 543h240l71 366h-239z" />
<glyph unicode="$" d="M43 66l53 155q141 -68 299 -67q119 0 201 67.5t82 181.5q0 74 -50 124.5t-121 80t-141.5 63.5t-120.5 102.5t-50 168.5q0 152 105.5 260.5t277.5 128.5l38 215h142l-37 -211q117 -6 217 -53l-55 -143q-113 49 -240 49q-121 0 -187.5 -62.5t-66.5 -152.5q0 -70 50 -117 t122 -76.5t143.5 -64.5t122 -105.5t50.5 -175.5q0 -164 -106.5 -274.5t-281.5 -143.5l-45 -254h-143l43 240q-158 1 -301 64z" />
<glyph unicode="%" horiz-adv-x="1511" d="M139 16l1172 1475l96 -78l-1171 -1472zM150 948q0 74 16 151t53 162t114 138t181 53q236 0 236 -250q0 -70 -16.5 -146.5t-53.5 -160.5t-114 -137t-181 -53q-235 -1 -235 243zM299 952q0 -131 104 -131q55 0 97.5 43t62 109.5t28.5 124t9 104.5q0 133 -102 133 q-74 0 -122 -77.5t-62.5 -157.5t-14.5 -148zM805 221q0 74 16.5 152t54 161.5t113.5 137t180 53.5q236 0 236 -250q0 -72 -15.5 -147.5t-52.5 -159.5t-113.5 -137.5t-183.5 -53.5q-235 0 -235 244zM954 225q0 -131 105 -131q55 0 97 43t61.5 109.5t28.5 125t9 105.5 q0 131 -102 131q-74 0 -122 -77.5t-62.5 -157.5t-14.5 -148z" />
<glyph unicode="&#x26;" horiz-adv-x="1314" d="M70 297q0 270 309 471q-86 156 -86 293q0 164 103.5 277.5t275.5 113.5q125 0 200.5 -66.5t75.5 -175.5q0 -133 -77.5 -237.5t-278.5 -229.5q100 -166 278 -350q109 170 154 404h166q-55 -297 -211 -510q129 -125 203 -189l-111 -125q-172 162 -201 193 q-201 -188 -436 -189q-172 0 -268 87.5t-96 232.5zM254 315q0 -92 55.5 -142t159.5 -50q156 0 297 145q-207 219 -311 381q-201 -146 -201 -334zM463 1075.5q0 -98.5 59 -217.5q139 90 198.5 165t59.5 169q0 127 -127 127q-84 0 -137 -72.5t-53 -171z" />
<glyph unicode="'" horiz-adv-x="446" d="M225 969l76 567h182l-125 -567h-133z" />
<glyph unicode="(" horiz-adv-x="610" d="M94 217q0 711 438 1366l127 -55q-389 -668 -389 -1364q0 -254 60 -510l-142 -49q-94 299 -94 612z" />
<glyph unicode=")" horiz-adv-x="610" d="M-45 -338q389 666 389 1364q0 268 -59 508l141 49q94 -299 94 -610q0 -717 -438 -1368z" />
<glyph unicode="*" d="M223 1028l289 123l-258 129l106 143l211 -184l7 309h172l-74 -309l256 184l69 -147l-288 -121l258 -129l-107 -145l-211 186l-8 -309h-170l74 307l-258 -184z" />
<glyph unicode="+" d="M78 561l28 150h349l71 405h160l-72 -405h351l-29 -150h-348l-72 -403h-160l72 403h-350z" />
<glyph unicode="," horiz-adv-x="501" d="M-90 -258q162 164 162 254q0 16 -13.5 51t-13.5 66q0 55 36 95t91 40q53 0 85 -34t32 -95q0 -197 -301 -453z" />
<glyph unicode="-" horiz-adv-x="538" d="M53 489l27 146h465l-27 -146h-465z" />
<glyph unicode="." horiz-adv-x="501" d="M43 113q0 59 38 99t93 40q53 0 87 -37t34 -88q0 -61 -38 -101t-93 -40q-53 0 -87 37t-34 90z" />
<glyph unicode="/" horiz-adv-x="786" d="M-145 -250l944 1882l151 -61l-944 -1880z" />
<glyph unicode="0" horiz-adv-x="1163" d="M88 420q0 145 31 313q59 332 207.5 526.5t398.5 194.5q393 0 393 -453q0 -129 -31 -303q-61 -336 -210.5 -528.5t-397.5 -192.5q-207 0 -299 113t-92 330zM281 426q0 -164 53 -232.5t170 -68.5q158 0 250 150.5t141 426.5q31 172 31 293q0 162 -50.5 236t-168.5 74 q-293 0 -396 -576q-30 -178 -30 -303z" />
<glyph unicode="1" horiz-adv-x="671" d="M143 1196l363 236h149l-249 -1432h-183l215 1233l-260 -152z" />
<glyph unicode="2" horiz-adv-x="935" d="M-47 0l24 147l308 306q221 223 315 377.5t94 289.5q0 178 -196 178q-123 0 -269 -61l-6 147q174 68 328 68q174 0 260 -82t86 -219q0 -176 -109.5 -353t-347.5 -409l-239 -233h590l-27 -156h-811z" />
<glyph unicode="3" horiz-adv-x="921" d="M-59 10l24 135q115 -14 254 -14q178 0 274.5 99.5t96.5 230.5q0 205 -291 205h-98l26 147h82q172 0 272.5 98.5t100.5 225.5q0 168 -193 168q-129 0 -268 -62l-6 141q174 70 324 70q170 0 256 -81t86 -208q0 -150 -97.5 -264.5t-234.5 -146.5v-4q119 -12 183.5 -91 t64.5 -192q0 -195 -152.5 -340t-431.5 -145q-145 -1 -272 28z" />
<glyph unicode="4" horiz-adv-x="1038" d="M-12 336l26 145l666 949h264l-166 -945h203l-27 -149h-202l-58 -336h-180l57 336h-583zM182 485h418l137 787h-4z" />
<glyph unicode="5" horiz-adv-x="944" d="M-4 10l24 135q115 -14 256 -14q180 0 284 117t104 274q0 199 -256 199q-86 0 -234 -16l143 725h615l-27 -158h-459l-81 -408q55 8 122 8q190 0 281.5 -92t91.5 -235q0 -233 -162.5 -398t-423.5 -165q-149 -1 -278 28z" />
<glyph unicode="6" horiz-adv-x="1054" d="M96 385q0 82 11.5 180.5t38 224t80 238.5t125 210t185 155.5t250.5 58.5q147 0 258 -47l-49 -133q-106 41 -223 41q-172 0 -284.5 -148.5t-159.5 -378.5v-2q147 102 303 103q166 0 241.5 -85t75.5 -227q0 -236 -148.5 -417t-373.5 -181q-330 0 -330 408zM274 373 q0 -133 42 -192.5t139 -59.5q129 0 218 137t89 293q0 88 -40 139t-144 51q-131 0 -273 -96q-31 -166 -31 -272z" />
<glyph unicode="7" horiz-adv-x="929" d="M76 37q111 145 268 432l438 803h-614l29 158h817l-29 -160l-524 -928q-115 -197 -264 -367z" />
<glyph unicode="8" horiz-adv-x="1036" d="M37 262q0 154 93 265.5t265 207.5q-182 125 -182 303q0 172 124 294t337 122q168 0 251 -80t83 -188q0 -143 -87 -247.5t-239 -190.5q231 -145 231 -332q0 -184 -136 -312.5t-369 -128.5q-182 0 -276.5 78t-94.5 209zM223 291q0 -176 215 -176q123 0 205 80.5t82 193.5 q0 76 -49 136.5t-160 129.5q-145 -86 -219 -167.5t-74 -196.5zM395 1057q0 -72 40 -124t124 -110q266 154 266 332q0 74 -45 117t-133 43q-117 0 -184.5 -80t-67.5 -178z" />
<glyph unicode="9" horiz-adv-x="1048" d="M10 12l35 135q150 -29 274 -28q172 0 285 146.5t160 377.5v4q-143 -102 -303 -102q-168 0 -243 85t-75 224q0 238 149.5 419t373.5 181q330 0 329 -410q0 -84 -12 -184t-38.5 -225t-80 -236.5t-126 -208t-184.5 -153.5t-249 -57q-152 -1 -295 32zM330 879 q0 -190 184 -191q129 0 274 96q29 172 29 273q0 133 -42 192.5t-138 59.5q-129 0 -218 -136t-89 -294z" />
<glyph unicode=":" horiz-adv-x="536" d="M78 111q0 61 39 101t94 40q51 0 86 -37t35 -88q0 -61 -38 -101t-93 -40q-53 0 -88 37t-35 88zM215 881q0 61 38 100t93 39q53 0 87 -36t34 -87q0 -61 -38 -101t-93 -40q-53 0 -87 37t-34 88z" />
<glyph unicode=";" horiz-adv-x="536" d="M-51 -258q162 164 162 254q0 16 -13.5 51t-13.5 66q0 55 36 95t91 40q53 0 85 -34t32 -95q0 -197 -301 -453zM215 881q0 61 38 100t93 39q53 0 87 -36t34 -87q0 -61 -38 -101t-93 -40q-53 0 -87 37t-34 88z" />
<glyph unicode="&#x3c;" d="M80 559l26 154l910 463l-33 -183l-729 -362l602 -363l-31 -172z" />
<glyph unicode="=" d="M63 348l27 150h813l-26 -150h-814zM139 776l27 150h813l-27 -150h-813z" />
<glyph unicode="&#x3e;" d="M29 96l32 183l727 362l-600 363l31 172l746 -463l-27 -154z" />
<glyph unicode="?" horiz-adv-x="839" d="M160 96q0 59 38 97t91 38q49 0 81.5 -34.5t32.5 -83.5q0 -59 -36.5 -97.5t-88 -38.5t-85 35t-33.5 84zM252 381q6 119 50 223.5t103.5 178t118 143t98.5 149.5t40 166q0 160 -195 160q-102 0 -203 -15l25 142q117 27 215 26q352 0 352 -286q0 -106 -43 -200.5 t-106.5 -169.5t-128 -147.5t-114.5 -168t-58 -201.5h-154z" />
<glyph unicode="@" horiz-adv-x="1583" d="M141 401q0 203 69 393.5t187.5 336t293.5 232.5t376 87q199 0 301 -82t102 -229q0 -49 -8 -90l-125 -709h-133l10 149q-49 -78 -135 -126t-182 -48q-127 0 -197.5 65.5t-70.5 176.5q0 168 119.5 278.5t365.5 110.5h158l18 105q6 37 6 65q0 193 -252 193 q-209 0 -379.5 -130t-261 -334t-90.5 -431q0 -238 128 -381.5t372 -143.5q223 0 432 105l31 -135q-229 -115 -494 -115q-297 0 -469 178t-172 479zM809 582q0 -57 34 -92t97 -35q104 0 189 84t108 202l12 78h-151q-141 0 -215 -63t-74 -174z" />
<glyph unicode="A" horiz-adv-x="1202" d="M-55 0q332 756 698 1430h205q135 -688 207 -1430h-197q-14 180 -35 379h-526q-78 -174 -164 -379h-188zM358 526h451q-31 260 -76 555q-12 78 -22 166h-2q-57 -115 -82 -166q-146 -299 -269 -555z" />
<glyph unicode="B" horiz-adv-x="1064" d="M61 0l252 1430h183h157q166 0 255 -74t89 -207q0 -125 -60 -229.5t-171 -159.5q88 -20 140 -94t52 -183q0 -123 -52 -229.5t-172 -180t-288 -73.5h-204h-181zM268 150h213q123 0 204 92t81 229q0 197 -227 197h-179zM385 811h172q125 0 187.5 93t62.5 214q0 164 -189 164 h-149z" />
<glyph unicode="C" horiz-adv-x="1048" d="M100 496q0 154 42 313.5t125 306t228.5 239.5t327.5 93q178 0 312 -76l-78 -145q-111 63 -246 63q-131 0 -235.5 -82t-162 -206.5t-86 -249.5t-28.5 -234q0 -182 83 -279.5t239 -97.5q121 0 268 66l29 -146q-164 -80 -334 -79q-231 0 -357.5 131t-126.5 383z" />
<glyph unicode="D" horiz-adv-x="1261" d="M61 0l252 1430h185h202q248 0 379 -135.5t131 -381.5q0 -102 -19.5 -213.5t-72.5 -239.5t-135 -227.5t-222 -166t-317 -66.5h-198h-185zM272 154h195q129 0 230.5 56t161 139t98 189.5t52 195.5t13.5 169q0 172 -85 273.5t-261 101.5h-205z" />
<glyph unicode="E" horiz-adv-x="985" d="M61 0l252 1430h185h512l-27 -152h-514l-80 -459h445l-27 -151h-445l-92 -516h523l-27 -152h-522h-183z" />
<glyph unicode="F" horiz-adv-x="909" d="M61 0l252 1430h185h485l-29 -152h-483l-86 -490h432l-26 -151h-433l-112 -637h-185z" />
<glyph unicode="G" horiz-adv-x="1239" d="M100 510q0 160 45 320.5t133.5 301t238 228.5t337.5 88q213 0 379 -115l-80 -145q-145 102 -313 102q-113 0 -208 -53t-155.5 -135t-103.5 -186.5t-61.5 -203t-18.5 -188.5q0 -186 86 -285.5t246 -99.5q111 0 211 33l102 576h182l-123 -695q-182 -74 -389 -73 q-250 0 -379 138t-129 392z" />
<glyph unicode="H" horiz-adv-x="1251" d="M61 0l252 1430h185l-107 -605h557l107 605h184l-254 -1430h-182l115 664h-556l-116 -664h-185z" />
<glyph unicode="I" horiz-adv-x="512" d="M61 0l252 1430h185l-252 -1430h-185z" />
<glyph unicode="J" horiz-adv-x="616" d="M-66 -4l25 145h90q82 0 123 54.5t66 197.5l184 1037h184l-182 -1029q-37 -207 -117 -312t-241 -105q-79 0 -132 12z" />
<glyph unicode="K" horiz-adv-x="1105" d="M61 0l246 1430h182l-104 -605q63 63 588 605h237l-610 -594l361 -836h-207l-297 711l-109 -105l-104 -606h-183z" />
<glyph unicode="L" horiz-adv-x="839" d="M61 0l252 1430h185l-226 -1274h467l-26 -156h-467h-185z" />
<glyph unicode="M" horiz-adv-x="1671" d="M43 0q141 748 350 1430h260l129 -1143h2l531 1143h268q-41 -692 -160 -1430h-184q115 692 147 1217h-2l-569 -1217h-180l-137 1217h-4q-158 -578 -277 -1217h-174z" />
<glyph unicode="N" horiz-adv-x="1282" d="M61 0l252 1430h248l336 -1154h2l205 1154h166l-252 -1430h-234l-346 1184h-2l-209 -1184h-166z" />
<glyph unicode="O" horiz-adv-x="1378" d="M100 500q0 117 22.5 240.5t79 252.5t137.5 229.5t210 165t287 64.5q238 0 362.5 -139t124.5 -383q0 -121 -22.5 -245t-78 -253t-136 -228.5t-211 -163t-289.5 -63.5q-240 0 -363 137.5t-123 385.5zM297 506q0 -373 319 -373q162 0 282 128t173 302t53 357q0 377 -317 376 q-135 0 -239.5 -83t-160 -211t-83 -254.5t-27.5 -241.5z" />
<glyph unicode="P" horiz-adv-x="1038" d="M61 0l252 1430h185h147q98 0 158 -17q111 -29 172 -110.5t61 -210.5q0 -219 -140 -381t-384 -162h-170l-96 -549h-185zM369 698h170q143 0 222 118t79 257q0 154 -117 191q-43 14 -100 14h-152z" />
<glyph unicode="Q" horiz-adv-x="1378" d="M100 500q0 117 22.5 240.5t79 252.5t137.5 229.5t210 165t287 64.5q238 0 362.5 -139t124.5 -383q0 -211 -65.5 -411t-180.5 -324l180 -234l-120 -102l-179 231q-160 -113 -372 -113q-240 0 -363 137.5t-123 385.5zM297 506q0 -373 319 -373q133 0 238 88l-190 248 l118 100l181 -231q70 92 115.5 248.5t45.5 333.5q0 377 -317 376q-135 0 -239.5 -83t-160 -211t-83 -254.5t-27.5 -241.5z" />
<glyph unicode="R" horiz-adv-x="1060" d="M61 0l252 1430h185h147q182 0 278.5 -80t96.5 -228q0 -162 -93 -283.5t-247 -162.5l219 -676h-207l-186 641h-148l-112 -641h-185zM383 788h137q139 0 219 90.5t80 217.5q0 182 -205 182h-143z" />
<glyph unicode="S" horiz-adv-x="899" d="M-6 20l49 162q123 -47 252 -47q139 0 220 82t81 203q0 74 -46 128t-153 128q-217 141 -217 340q0 180 125 308t350 128q135 0 232 -39l-51 -149q-104 37 -199 36q-129 0 -194.5 -75.5t-65.5 -180.5q0 -74 45 -128t143 -119q229 -150 230 -342q0 -199 -137.5 -338.5 t-385.5 -139.5q-145 0 -278 43z" />
<glyph unicode="T" horiz-adv-x="968" d="M145 1276l27 154h926l-27 -154h-371l-225 -1276h-186l225 1276h-369z" />
<glyph unicode="U" horiz-adv-x="1280" d="M133 367q0 72 14 149l162 914h187l-162 -916q-10 -61 -10 -119q0 -262 235 -262q143 0 240.5 97.5t132.5 287.5l160 912h180l-164 -922q-45 -260 -194.5 -394t-374.5 -134q-193 0 -299.5 97t-106.5 290z" />
<glyph unicode="V" horiz-adv-x="1165" d="M176 1430h195q31 -471 123 -1084q18 -121 22 -153h2l80 165q334 686 489 1072h195q-313 -717 -698 -1430h-207q-135 666 -201 1430z" />
<glyph unicode="W" horiz-adv-x="1826" d="M207 1430h194q2 -498 52 -1082q10 -125 12 -155h2l76 204l407 1033h215l60 -1033q6 -102 6 -204h4q57 141 70 169q252 594 417 1068h189q-270 -721 -600 -1430h-234l-57 1020l-4 176h-4l-64 -176l-403 -1020h-234q-88 689 -104 1430z" />
<glyph unicode="X" horiz-adv-x="1118" d="M-80 0l553 745l-262 685h207l194 -545l383 545h209l-502 -682l289 -748h-211l-219 604l-426 -604h-215z" />
<glyph unicode="Y" horiz-adv-x="1054" d="M160 1430h194q86 -371 209 -660q242 328 426 660h201q-291 -481 -567 -820l-105 -610h-182l104 610q-161 359 -280 820z" />
<glyph unicode="Z" horiz-adv-x="942" d="M-47 0l27 152l804 1126h-583l26 152h795l-29 -156l-805 -1120h617l-27 -154h-825z" />
<glyph unicode="[" horiz-adv-x="618" d="M14 -352l336 1900h346l-24 -133h-180l-289 -1636h180l-23 -131h-346z" />
<glyph unicode="\" horiz-adv-x="786" d="M190 1599l166 29l277 -1904l-166 -31z" />
<glyph unicode="]" horiz-adv-x="618" d="M-72 -352l23 131h182l289 1636h-182l24 133h344l-336 -1900h-344z" />
<glyph unicode="^" d="M139 723l420 707h223l183 -707h-181l-137 569l-317 -569h-191z" />
<glyph unicode="_" d="M-182 -453l24 136h1024l-24 -136h-1024z" />
<glyph unicode="`" horiz-adv-x="493" d="M145 1464l138 90l188 -286l-100 -70z" />
<glyph unicode="a" horiz-adv-x="1042" d="M59 326q0 96 18.5 194t60.5 196.5t104.5 173.5t160 122t215.5 47q182 0 355 -60l-176 -999h-144l31 240q-63 -119 -154.5 -192t-197.5 -73q-139 0 -206 94.5t-67 256.5zM246 344q0 -219 131 -219q109 0 215 155.5t137 346.5l45 252q-84 39 -172 39q-78 0 -140.5 -39 t-101 -100.5t-65.5 -139.5t-38 -151.5t-11 -143.5z" />
<glyph unicode="b" horiz-adv-x="1042" d="M49 45l264 1491h176l-90 -506q-31 -152 -47 -213q59 111 147.5 180.5t190.5 69.5q137 0 205 -93t68 -255q0 -98 -18.5 -195.5t-60.5 -196t-105.5 -173t-161 -121.5t-216.5 -47q-180 0 -352 59zM248 166q78 -39 172 -39t168 57.5t112.5 148.5t57 184t18.5 181 q0 221 -133 222q-106 0 -212.5 -157t-139.5 -345z" />
<glyph unicode="c" horiz-adv-x="821" d="M57 350q0 117 31 236t92.5 229.5t170 179t247.5 68.5q141 0 233 -55l-59 -136q-90 45 -174 46q-98 0 -172 -59.5t-110.5 -151t-54 -177.5t-17.5 -159q0 -242 207 -242q98 0 208 47l11 -141q-125 -55 -264 -55q-174 0 -261.5 96t-87.5 274z" />
<glyph unicode="d" horiz-adv-x="1042" d="M59 326q0 123 31 244.5t93.5 234.5t174 182.5t256.5 69.5q113 0 189 -21l88 500h176l-270 -1536h-144l31 240q-63 -119 -154.5 -192t-197.5 -73q-139 0 -206 94.5t-67 256.5zM246 344q0 -219 131 -219q109 0 215 155.5t137 346.5l45 252q-84 39 -172 39q-78 0 -140.5 -39 t-101 -100.5t-65.5 -139.5t-38 -151.5t-11 -143.5z" />
<glyph unicode="e" horiz-adv-x="972" d="M59 334q0 113 27 229.5t84 235.5t169 193.5t259 74.5q143 0 222 -67.5t79 -178.5q0 -162 -144.5 -256t-504.5 -98q-8 -57 -8 -119q0 -117 51 -173t170 -56q135 0 291 53l6 -139q-166 -57 -338 -58q-363 1 -363 359zM274 596q250 0 348.5 56.5t98.5 156.5q0 57 -38 91 t-103 34q-115 0 -193 -93t-113 -245z" />
<glyph unicode="f" horiz-adv-x="616" d="M-240 -434l23 131h86q55 0 93 18.5t59.5 59.5t33 78.5t21.5 101.5l168 950h-146l25 139h145l23 127q33 186 115.5 285.5t250.5 99.5q74 0 123 -12l-22 -131h-88q-55 0 -92 -18.5t-59.5 -60.5t-33 -77.5t-22.5 -101.5l-21 -111h215l-22 -139h-217l-170 -966 q-33 -186 -116 -285.5t-249 -99.5q-76 0 -123 12z" />
<glyph unicode="g" horiz-adv-x="1042" d="M35 -422l28 133q133 -10 238 -10q150 0 220.5 65.5t101.5 245.5q18 113 49 224q-59 -111 -147.5 -180.5t-190.5 -69.5q-139 0 -207 94t-68 256q0 121 31 240.5t93.5 231.5t175 181.5t259.5 69.5q182 0 355 -60l-174 -981q-45 -250 -159 -357t-345 -107q-139 -1 -260 24z M246 354q0 -221 133 -221q109 0 215 155.5t137 344.5l43 246q-84 39 -172 39q-94 0 -168 -57.5t-112.5 -146.5t-57 -181.5t-18.5 -178.5z" />
<glyph unicode="h" horiz-adv-x="1067" d="M43 0l270 1536h176l-92 -508q-12 -88 -47 -213q59 111 152.5 181.5t197.5 70.5q252 0 252 -283q0 -51 -14 -141l-115 -643h-174l109 618q14 78 14 144q0 158 -123 158q-109 0 -216 -155t-140 -339l-74 -426h-176z" />
<glyph unicode="i" horiz-adv-x="507" d="M86 0l160 905h-152l25 139h325l-182 -1044h-176zM289 1364q0 57 34.5 93t88.5 36q49 0 81.5 -33t32.5 -80q0 -57 -35.5 -94t-87 -37t-83 33t-31.5 82z" />
<glyph unicode="j" horiz-adv-x="485" d="M-229 -432l28 137h86q127 0 166 234l195 1105h176l-191 -1085q-41 -227 -127 -316t-219 -89q-57 0 -114 14zM272 1364q0 57 36 93t87 36t83 -33t32 -80q0 -57 -35 -94t-88 -37q-49 0 -82 33t-33 82z" />
<glyph unicode="k" horiz-adv-x="964" d="M43 0l264 1536h176l-153 -891q270 258 415 399h228l-443 -393l297 -651h-202l-238 532l-90 -79l-78 -453h-176z" />
<glyph unicode="l" horiz-adv-x="503" d="M80 211l233 1325h176l-229 -1290q-5 -26 -5 -46q0 -24 7 -39q12 -28 53 -28h72l-25 -133q-53 -14 -118 -14q-171 0 -171 156q0 31 7 69z" />
<glyph unicode="m" horiz-adv-x="1615" d="M43 0l182 1044h142l-27 -239q61 115 152.5 188.5t193.5 73.5q117 0 173 -70.5t56 -191.5q61 115 154.5 188.5t194.5 73.5q238 0 237 -283q0 -51 -14 -141l-113 -643h-176l109 618q16 86 16 144q0 158 -109 158q-102 0 -207.5 -155t-136.5 -337l-75 -428h-174l108 618 q16 86 16 144q0 158 -108 158q-102 0 -207.5 -155t-136.5 -337l-76 -428h-174z" />
<glyph unicode="n" horiz-adv-x="1067" d="M43 0l182 1044h142l-27 -239q61 115 155.5 188.5t204.5 73.5q252 0 252 -283q0 -51 -14 -141l-115 -643h-174l109 618q14 78 14 144q0 158 -123 158q-109 0 -216 -155t-140 -337l-76 -428h-174z" />
<glyph unicode="o" horiz-adv-x="1056" d="M59 371q0 96 20.5 191t64.5 187.5t107.5 162t157 112.5t203.5 43q180 0 272.5 -103.5t92.5 -291.5q0 -121 -34 -240t-98.5 -223.5t-174 -169t-246.5 -64.5q-180 0 -272.5 104t-92.5 292zM246 379q0 -256 200 -256q109 0 190 86t116.5 206t35.5 244q0 262 -198 263 q-109 0 -190 -87t-117.5 -208t-36.5 -248z" />
<glyph unicode="p" horiz-adv-x="1042" d="M-33 -426l258 1470h137l-22 -239q61 119 152.5 190.5t197.5 71.5q137 0 205 -93t68 -255q0 -123 -31 -246t-93.5 -235.5t-175 -182t-257.5 -69.5q-98 0 -187 20l-76 -432h-176zM248 166q78 -39 172 -39t168 57.5t112.5 148.5t57 184t18.5 181q0 221 -133 222 q-106 0 -212.5 -157t-139.5 -345z" />
<glyph unicode="q" horiz-adv-x="1042" d="M59 326q0 96 18.5 194t60.5 196.5t104.5 173.5t160 122t215.5 47q182 0 355 -60l-252 -1425h-176l78 440q20 115 47 213q-59 -113 -147.5 -182.5t-190.5 -69.5q-139 0 -206 94.5t-67 256.5zM246 344q0 -219 131 -219q109 0 215 155.5t137 346.5l45 252q-84 39 -172 39 q-78 0 -140.5 -39t-101 -100.5t-65.5 -139.5t-38 -151.5t-11 -143.5z" />
<glyph unicode="r" horiz-adv-x="692" d="M43 0l182 1044h140l-25 -243q66 113 142.5 189.5t150.5 76.5q61 0 112 -16l-51 -166q-53 16 -86 16q-78 0 -181 -150.5t-130 -306.5l-80 -444h-174z" />
<glyph unicode="s" horiz-adv-x="768" d="M-6 16l47 152q109 -47 217 -47q92 0 144.5 46t52.5 122q0 53 -29 91t-117 91q-92 57 -134 120.5t-42 149.5q0 143 102.5 234.5t270.5 91.5q115 0 209 -33l-43 -143q-88 37 -178 37q-82 0 -130.5 -46t-48.5 -116q0 -53 29 -90t111 -86q102 -63 145 -123.5t43 -149.5 q0 -150 -110.5 -246t-288.5 -96q-131 0 -250 41z" />
<glyph unicode="t" horiz-adv-x="651" d="M98 905l25 139h139l94 304h136l-54 -304h224l-25 -139h-221l-109 -608q-8 -44 -7 -74q0 -44 15 -62q27 -30 105 -30h80l-23 -129q-70 -18 -151 -18q-119 0 -172 63q-35 42 -36 126q0 42 9 93l113 639h-142z" />
<glyph unicode="u" horiz-adv-x="1067" d="M94 260q0 70 15 141l112 643h174l-108 -620q-14 -92 -15 -141q0 -158 123 -158q111 0 217.5 153.5t139.5 337.5l75 428h177l-185 -1044h-143l31 240q-61 -117 -155.5 -191t-205.5 -74q-252 0 -252 285z" />
<glyph unicode="v" horiz-adv-x="903" d="M121 1044h176q27 -412 70 -702q2 -20 8 -75.5t10 -82.5h2q14 29 40 85.5t34 72.5q156 326 303 702h180q-221 -535 -498 -1044h-188q-102 495 -137 1044z" />
<glyph unicode="w" horiz-adv-x="1464" d="M129 1044h176q6 -305 37 -686q2 -27 7 -90t7 -98h2l74 184l289 690h184l56 -694l8 -180h2q14 35 40.5 100.5t35.5 85.5q166 389 270 688h178q-207 -530 -463 -1044h-196l-58 696l-6 138h-4l-53 -138l-287 -696h-203q-82 526 -96 1044z" />
<glyph unicode="x" horiz-adv-x="946" d="M-57 0l407 537l-200 507h194l139 -391l275 391h196l-374 -501l213 -543h-197l-152 420l-297 -420h-204z" />
<glyph unicode="y" horiz-adv-x="905" d="M-125 -428l29 133h98q53 0 110.5 60.5t159.5 232.5q-121 522 -149 1046h176q23 -348 78 -700q4 -18 20 -158h2q45 98 74 156q156 334 291 702h180q-268 -670 -491 -1044q-154 -258 -256.5 -352t-210.5 -94q-60 0 -111 18z" />
<glyph unicode="z" horiz-adv-x="841" d="M-20 0l26 145l586 750h-426l24 149h633l-24 -145l-586 -752h483l-26 -147h-690z" />
<glyph unicode="{" horiz-adv-x="636" d="M66 555l22 133q166 2 213 264l39 226q35 195 99.5 284.5t191.5 89.5q55 0 90 -8l-23 -129h-65q-49 0 -78 -49t-55 -197l-35 -208q-55 -297 -240 -338q170 -37 119 -340l-45 -258q-25 -154 -14.5 -200t59.5 -46h66l-23 -129q-39 -8 -94 -8q-129 0 -162 94t4 282l49 275 q44 260 -118 262z" />
<glyph unicode="|" d="M252 -426l350 1997h166l-352 -1997h-164z" />
<glyph unicode="}" horiz-adv-x="634" d="M-82 -350l23 129h65q49 0 78 49t55 197l45 258q51 297 240 338q-174 41 -119 340l35 208q18 102 18 155.5t-15 72t-48 18.5h-66l25 129q35 8 92 8q129 0 163 -94t-5 -280l-39 -226q-43 -262 119 -264l-25 -133q-164 -2 -211 -262l-47 -275q-35 -197 -100.5 -286.5 t-192.5 -89.5q-57 0 -90 8z" />
<glyph unicode="~" d="M129 889l4 24q16 154 95 245t196 91q80 0 128 -36.5t91 -102.5q2 -4 12.5 -20.5t13.5 -20.5t11 -17.5t12 -17.5l14 -13q9 -9 15 -13t16.5 -8.5t19.5 -6.5t21 -2q115 0 144 215h141l-4 -22q-16 -156 -95 -248t-196 -92q-84 0 -133 38t-86 105q-53 82 -80 100 q-25 16 -57 17q-117 0 -142 -215h-141z" />
<glyph unicode="&#xa1;" horiz-adv-x="649" d="M29 -334l227 1155h150l-181 -1155h-196zM258 1090q0 59 37 97t88 38t85 -35t34 -84q0 -59 -38 -97t-91 -38q-49 0 -82 35t-33 84z" />
<glyph unicode="&#xa2;" d="M150 578q0 154 51 294t164.5 245.5t273.5 123.5l35 189h139l-33 -185q117 -10 219 -67l-67 -136q-106 59 -211 60q-96 0 -173 -48t-120 -124t-65.5 -161t-22.5 -171q0 -260 238 -260q121 0 251 59l21 -133q-129 -57 -254 -67l-33 -197h-141l33 197q-150 16 -227.5 114.5 t-77.5 266.5z" />
<glyph unicode="&#xa3;" d="M23 0l24 141q109 106 166 223t70 291h-177l25 136h150q8 168 28 290q31 176 146.5 270.5t304.5 94.5q115 0 241 -27l-24 -145q-121 23 -215 22q-233 0 -275 -227q-16 -100 -24 -278h368l-24 -136h-344q-31 -330 -215 -501h598l-27 -154h-796z" />
<glyph unicode="&#xa4;" d="M4 113l178 221q-49 74 -49 190q0 115 42 229.5t116 194.5l-103 226l146 73l88 -213q78 41 178 41q98 0 156 -41l159 213l127 -80l-178 -221q45 -78 45 -188q0 -113 -41 -226.5t-118 -193.5l106 -232l-145 -75l-93 223q-76 -41 -176 -41q-92 0 -149 35l-164 -217zM301 545 q0 -197 172 -197q119 0 193.5 119t74.5 272q0 203 -170 203q-125 0 -197.5 -120.5t-72.5 -276.5z" />
<glyph unicode="&#xa5;" d="M72 227l22 125h289l35 197h-289l23 125h286l11 57q-154 330 -252 699h190q66 -285 184 -558q172 229 355 558h200q-242 -391 -495 -699l-10 -57h286l-22 -125h-287l-35 -197h287l-23 -125h-286l-39 -227h-180l36 227h-286z" />
<glyph unicode="&#xa6;" d="M250 -426l141 799h168l-141 -799h-168zM469 811l137 784h168l-137 -784h-168z" />
<glyph unicode="&#xa7;" horiz-adv-x="1038" d="M88 -375l27 144q51 -16 151 -17q96 0 153.5 57.5t57.5 149.5q0 72 -48 161t-105.5 164.5t-105.5 193.5t-48 239q0 152 79 321.5t202 286.5q141 141 327 141q66 0 144 -12l-29 -137q-82 14 -143 14q-102 0 -157.5 -64.5t-55.5 -158.5q0 -68 49 -153t106.5 -157.5 t106.5 -189t49 -241.5q0 -147 -74 -320.5t-205 -298.5q-143 -139 -342 -139q-73 0 -139 16zM326 754q0 -106 46 -209t100 -170.5t97 -164.5t39 -196q82 168 82 316q0 106 -47 208.5t-102.5 171t-99.5 163t-38 186.5q-77 -174 -77 -305z" />
<glyph unicode="&#xa8;" horiz-adv-x="690" d="M139 1370q0 49 31 81t76 32q43 0 70.5 -29t27.5 -70q0 -49 -30.5 -80.5t-75.5 -31.5q-43 0 -71 28.5t-28 69.5zM496 1370q0 49 30.5 81t75.5 32q43 0 70.5 -29t27.5 -70q0 -49 -30.5 -80.5t-75.5 -31.5q-43 0 -70.5 28.5t-27.5 69.5z" />
<glyph unicode="&#xa9;" horiz-adv-x="1382" d="M86 647q0 303 190.5 520t462.5 217q254 0 421 -186t167 -463q0 -301 -190.5 -519t-462.5 -218q-254 0 -421 186.5t-167 462.5zM219 657q0 -227 132 -381.5t331 -154.5q215 0 363.5 179t148.5 427q0 225 -130 380t-331 155q-217 0 -365.5 -178.5t-148.5 -426.5zM406 582 q0 82 22.5 162.5t66.5 153.5t122.5 118t179.5 45q80 0 153 -37l-51 -121q-53 27 -115 27q-106 0 -162.5 -103.5t-56.5 -222.5q0 -147 133 -147q66 0 142 28l10 -120q-98 -41 -188 -41q-123 0 -189.5 64.5t-66.5 193.5z" />
<glyph unicode="&#xaa;" horiz-adv-x="823" d="M84 383l25 135h587l-24 -135h-588zM156 922q0 213 106.5 367.5t315.5 154.5q125 0 266 -39l-127 -713h-117l14 158q-102 -174 -262 -174q-96 0 -146 65.5t-50 180.5zM313 940q0 -137 82 -137q74 0 151 104.5t101 231.5l29 161q-57 23 -121 23q-82 0 -139.5 -66.5 t-80 -149.5t-22.5 -167z" />
<glyph unicode="&#xab;" horiz-adv-x="1042" d="M96 578l340 454l127 -63l-278 -400l137 -403l-137 -51zM467 578l332 432l127 -64l-273 -377l138 -381l-136 -51z" />
<glyph unicode="&#xac;" d="M70 561l26 150h850l-67 -381h-158l41 231h-692z" />
<glyph unicode="&#xad;" horiz-adv-x="538" d="M53 489l27 146h465l-27 -146h-465z" />
<glyph unicode="&#xae;" horiz-adv-x="1038" d="M201 1067q0 193 128 324t300 131q168 0 276.5 -117t108.5 -285q0 -193 -128 -323.5t-300 -130.5q-168 0 -276.5 116.5t-108.5 284.5zM309 1075q0 -133 82 -224t201 -91q135 0 225 103.5t90 250.5q0 131 -81 221t-201 90q-133 0 -224.5 -102.5t-91.5 -247.5zM426 862 l84 473h149q66 0 102 -31.5t36 -80.5q0 -53 -30 -94.5t-75 -57.5l58 -209h-111l-43 189h-37l-35 -189h-98zM573 1130h31q86 0 86 82q0 43 -59 43h-35z" />
<glyph unicode="&#xaf;" horiz-adv-x="548" d="M127 1311l25 129h507l-24 -129h-508z" />
<glyph unicode="&#x2c9;" horiz-adv-x="548" d="M127 1311l25 129h507l-24 -129h-508z" />
<glyph unicode="&#xb0;" horiz-adv-x="677" d="M211 1233q0 117 74.5 191.5t183.5 74.5q104 0 168.5 -64.5t64.5 -164.5q0 -117 -74.5 -193t-183.5 -76q-104 0 -168.5 65t-64.5 167zM340 1245q0 -57 30.5 -94t82 -37t86 40t34.5 101q0 57 -30.5 94t-81.5 37t-86 -40t-35 -101z" />
<glyph unicode="&#xb1;" d="M-8 0l24 150h836l-25 -150h-835zM111 719l26 149h346l72 402h158l-72 -402h346l-26 -149h-347l-71 -402h-158l72 402h-346z" />
<glyph unicode="&#xb2;" horiz-adv-x="698" d="M106 793l21 110l231 211q109 100 159 180t50 160q0 104 -125 105q-90 0 -170 -37l-4 116q106 45 230 45q248 0 247 -200q0 -117 -62 -211t-206 -221l-145 -131h346l-23 -127h-549z" />
<glyph unicode="&#xb3;" horiz-adv-x="694" d="M115 788l20 113q72 -10 168 -10q98 0 156.5 46t58.5 130q0 119 -184 119h-68l21 112h71q100 0 158.5 50.5t58.5 121.5q0 94 -114 95q-96 0 -189 -35l-4 112q119 41 242 41q111 0 172 -47t61 -135q0 -94 -56 -160.5t-142 -93.5q68 -10 107.5 -55t39.5 -115 q0 -137 -107.5 -222t-269.5 -85q-114 0 -200 18z" />
<glyph unicode="&#xb4;" horiz-adv-x="536" d="M129 1268l231 286l132 -90l-271 -266z" />
<glyph unicode="&#xb5;" horiz-adv-x="1120" d="M-35 -428l260 1472h176l-110 -620q-51 -299 119 -299q111 0 217 153.5t139 337.5l76 428h176l-137 -782q-14 -70 0 -100.5t65 -30.5h58l-25 -131q-61 -16 -107 -16q-82 0 -124.5 39.5t-42.5 111.5q0 43 16 105q-61 -117 -154.5 -190t-197.5 -73q-106 0 -144 76l-30 -172 l-56 -309h-174z" />
<glyph unicode="&#x3bc;" horiz-adv-x="1120" d="M-35 -428l260 1472h176l-110 -620q-51 -299 119 -299q111 0 217 153.5t139 337.5l76 428h176l-137 -782q-14 -70 0 -100.5t65 -30.5h58l-25 -131q-61 -16 -107 -16q-82 0 -124.5 39.5t-42.5 111.5q0 43 16 105q-61 -117 -154.5 -190t-197.5 -73q-106 0 -144 76l-30 -172 l-56 -309h-174z" />
<glyph unicode="&#xb6;" horiz-adv-x="1091" d="M109 934q0 201 130 348.5t349 147.5h502l-295 -1668h-152l268 1516h-184l-268 -1516h-154l148 830q-156 -6 -250 89t-94 253z" />
<glyph unicode="&#xb7;" horiz-adv-x="501" d="M133 629q0 61 38 100t93 39q53 0 88 -36t35 -87q0 -61 -39 -101t-94 -40q-53 0 -87 37t-34 88z" />
<glyph unicode="&#x2219;" horiz-adv-x="501" d="M133 629q0 61 38 100t93 39q53 0 88 -36t35 -87q0 -61 -39 -101t-94 -40q-53 0 -87 37t-34 88z" />
<glyph unicode="&#xb8;" horiz-adv-x="530" d="M-82 -319l19 108h172q59 0 59 37q0 18 -10 55l-25 119h139l23 -92q18 -61 18 -98q0 -68 -54 -111t-169 -43q-94 0 -172 25z" />
<glyph unicode="&#xb9;" horiz-adv-x="548" d="M201 1516l239 149h146l-154 -872h-164l125 706l-157 -84z" />
<glyph unicode="&#xba;" horiz-adv-x="847" d="M106 383l25 135h565l-24 -135h-566zM160 956q0 119 39 225.5t136 185.5t234 79q135 0 206 -74t71 -209q0 -121 -42 -228.5t-138.5 -184t-229.5 -76.5q-137 0 -206.5 73.5t-69.5 208.5zM319 967q0 -168 140 -168q100 0 163.5 109.5t63.5 242.5q0 172 -135 172 q-80 0 -135.5 -62.5t-76 -139t-20.5 -154.5z" />
<glyph unicode="&#xbb;" horiz-adv-x="1042" d="M113 201l274 377l-139 380l135 52l188 -441l-329 -432zM475 178l279 400l-138 403l138 51l188 -463l-338 -454z" />
<glyph unicode="&#xbc;" horiz-adv-x="1298" d="M20 16l1172 1475l94 -78l-1169 -1472zM160 1290l243 144h138l-125 -719h-164l96 549l-160 -82zM600 139l18 115l345 461h217l-80 -457h110l-22 -119h-111l-22 -139h-146l25 139h-334zM756 258h198l62 348h-2z" />
<glyph unicode="&#xbd;" horiz-adv-x="1396" d="M20 16l1172 1475l94 -78l-1169 -1472zM160 1290l243 144h138l-125 -719h-164l96 549l-160 -82zM707 0l18 111l205 172q170 139 170 249q0 82 -101 82q-74 0 -155 -36l-4 114q106 45 215 45q106 0 165.5 -45t59.5 -129q0 -94 -51 -170t-189 -178l-108 -84h305l-23 -131 h-507z" />
<glyph unicode="&#xbe;" horiz-adv-x="1386" d="M96 713l19 104q49 -8 153 -8q82 0 130 34t48 99q0 90 -143 90h-74l19 109h74q78 0 122.5 38t44.5 91q0 70 -90 69q-80 0 -168 -34l-6 106q119 41 224 41q100 0 154 -42t54 -116q0 -76 -43 -129t-118 -73q125 -20 125 -140q0 -117 -86 -188.5t-242 -71.5q-109 1 -197 21z M109 16l1171 1475l94 -78l-1169 -1472zM686 139l19 115l344 461h217l-80 -457h110l-22 -119h-111l-22 -139h-146l25 139h-334zM842 258h198l62 348h-2z" />
<glyph unicode="&#xbf;" horiz-adv-x="839" d="M-10 -66q0 106 43 201.5t106.5 169.5t128 147.5t114.5 169t58 199.5h156q-6 -119 -50 -223t-103.5 -178t-119 -143.5t-99.5 -149.5t-40 -166q0 -160 197 -160q100 0 201 15l-25 -140q-111 -29 -215 -28q-352 -1 -352 286zM442 1090q0 59 37 97t90 38q49 0 83 -35t34 -84 q0 -59 -37 -97t-90 -38q-49 0 -83 35t-34 84z" />
<glyph unicode="&#xc0;" horiz-adv-x="1202" d="M-55 0q332 756 698 1430h205q135 -688 207 -1430h-197q-14 180 -35 379h-526q-78 -174 -164 -379h-188zM358 526h451q-31 260 -76 555q-12 78 -22 166h-2q-57 -115 -82 -166q-146 -299 -269 -555zM483 1698l78 133l316 -193l-60 -100z" />
<glyph unicode="&#xc1;" horiz-adv-x="1202" d="M-55 0q332 756 698 1430h205q135 -688 207 -1430h-197q-14 180 -35 379h-526q-78 -174 -164 -379h-188zM358 526h451q-31 260 -76 555q-12 78 -22 166h-2q-57 -115 -82 -166q-146 -299 -269 -555zM657 1638l328 193l68 -133l-346 -160z" />
<glyph unicode="&#xc2;" horiz-adv-x="1202" d="M-55 0q332 756 698 1430h205q135 -688 207 -1430h-197q-14 180 -35 379h-526q-78 -174 -164 -379h-188zM358 526h451q-31 260 -76 555q-12 78 -22 166h-2q-57 -115 -82 -166q-146 -299 -269 -555zM516 1636l291 191l229 -189l-67 -96l-181 131l-223 -131z" />
<glyph unicode="&#xc3;" horiz-adv-x="1202" d="M-55 0q332 756 698 1430h205q135 -688 207 -1430h-197q-14 180 -35 379h-526q-78 -174 -164 -379h-188zM358 526h451q-31 260 -76 555q-12 78 -22 166h-2q-57 -115 -82 -166q-146 -299 -269 -555zM446 1606q33 74 90.5 116.5t125 42.5t133 -44t102.5 -44q68 0 115 97 l90 -66q-33 -74 -90.5 -117t-125 -43t-133 43t-104.5 43q-68 0 -117 -96z" />
<glyph unicode="&#xc4;" horiz-adv-x="1202" d="M-55 0q332 756 698 1430h205q135 -688 207 -1430h-197q-14 180 -35 379h-526q-78 -174 -164 -379h-188zM358 526h451q-31 260 -76 555q-12 78 -22 166h-2q-57 -115 -82 -166q-146 -299 -269 -555zM481 1647q0 47 30 77.5t73 30.5t69.5 -27.5t26.5 -70.5q0 -47 -29.5 -78 t-75.5 -31q-41 0 -67.5 29t-26.5 70zM872 1647q0 47 31 77.5t74 30.5t68.5 -27.5t25.5 -70.5q0 -47 -29.5 -78t-72.5 -31q-41 0 -69 29t-28 70z" />
<glyph unicode="&#xc5;" horiz-adv-x="1202" d="M-55 0q332 756 698 1430h205q135 -688 207 -1430h-197q-14 180 -35 379h-526q-78 -174 -164 -379h-188zM358 526h451q-31 260 -76 555q-12 78 -22 166h-2q-57 -115 -82 -166q-146 -299 -269 -555zM584 1647q0 106 63.5 171.5t171.5 65.5q82 0 125 -40t43 -105 q0 -109 -63.5 -174.5t-173.5 -65.5q-84 0 -125 40t-41 108zM696 1659q0 -72 70 -72q49 0 77.5 41t28.5 94q0 76 -69 76q-49 0 -78 -42t-29 -97z" />
<glyph unicode="&#xc6;" horiz-adv-x="1572" d="M-117 0q406 682 930 1430h100h181h497l-28 -154h-496l-82 -457h442l-26 -153h-443l-90 -512h516l-26 -154h-516h-183l60 334h-445q-141 -236 -198 -334h-193zM360 481h385l140 795h-4q-339 -504 -521 -795z" />
<glyph unicode="&#xc7;" horiz-adv-x="1048" d="M100 494q0 121 25 247.5t82 254.5t139 227.5t206 162t271 62.5q178 0 312 -76l-78 -145q-111 63 -246 63q-131 0 -235.5 -82t-162 -206.5t-86 -249.5t-28.5 -234q0 -182 83 -279.5t239 -97.5q121 0 268 66l29 -146q-154 -74 -308 -79l19 -74q18 -61 18 -98 q0 -68 -54 -111t-169 -43q-94 0 -172 25l18 108h172q59 0 60 37q0 6 -2 14t-4 20.5t-4 20.5l-25 111q-176 29 -271.5 157t-95.5 345z" />
<glyph unicode="&#xc8;" horiz-adv-x="985" d="M61 0l252 1430h185h512l-27 -152h-514l-80 -459h445l-27 -151h-445l-92 -516h523l-27 -152h-522h-183zM385 1698l78 133l315 -193l-59 -100z" />
<glyph unicode="&#xc9;" horiz-adv-x="985" d="M61 0l252 1430h185h512l-27 -152h-514l-80 -459h445l-27 -151h-445l-92 -516h523l-27 -152h-522h-183zM567 1638l328 193l68 -133l-347 -160z" />
<glyph unicode="&#xca;" horiz-adv-x="985" d="M61 0l252 1430h185h512l-27 -152h-514l-80 -459h445l-27 -151h-445l-92 -516h523l-27 -152h-522h-183zM428 1636l291 191l229 -189l-67 -96l-181 131l-223 -131z" />
<glyph unicode="&#xcb;" horiz-adv-x="985" d="M61 0l252 1430h185h512l-27 -152h-514l-80 -459h445l-27 -151h-445l-92 -516h523l-27 -152h-522h-183zM397 1647q0 47 30 77.5t73 30.5t69.5 -27.5t26.5 -70.5q0 -47 -29.5 -78t-74.5 -31q-41 0 -68 29t-27 70zM788 1647q0 47 31 77.5t74 30.5t68.5 -27.5t25.5 -70.5 q0 -47 -29.5 -78t-72.5 -31q-41 0 -69 29t-28 70z" />
<glyph unicode="&#xcc;" horiz-adv-x="512" d="M61 0l252 1430h185l-252 -1430h-185zM172 1698l78 133l315 -193l-59 -100z" />
<glyph unicode="&#xcd;" horiz-adv-x="512" d="M61 0l252 1430h185l-252 -1430h-185zM297 1638l328 193l67 -133l-346 -160z" />
<glyph unicode="&#xce;" horiz-adv-x="512" d="M61 0l252 1430h185l-252 -1430h-185zM174 1636l291 191l229 -189l-67 -96l-181 131l-223 -131z" />
<glyph unicode="&#xcf;" horiz-adv-x="512" d="M61 0l252 1430h185l-252 -1430h-185zM158 1647q0 47 29.5 77.5t72.5 30.5t69.5 -27.5t26.5 -70.5q0 -47 -29.5 -78t-74.5 -31q-41 0 -67.5 29t-26.5 70zM522 1647q0 47 30 77.5t73 30.5t69.5 -27.5t26.5 -70.5q0 -47 -29.5 -78t-75.5 -31q-41 0 -67.5 29t-26.5 70z" />
<glyph unicode="&#xd0;" horiz-adv-x="1282" d="M45 657l25 148h153l111 625h184h203q248 0 379 -135.5t131 -381.5q0 -102 -19.5 -213.5t-73 -239.5t-135 -227.5t-222 -166t-316.5 -66.5h-199h-186l117 657h-152zM293 154h194q129 0 230.5 56t161 139t98.5 189.5t52 195.5t13 169q0 172 -85 273.5t-261 101.5h-204 l-84 -473h245l-24 -148h-248z" />
<glyph unicode="&#xd1;" horiz-adv-x="1282" d="M61 0l252 1430h248l336 -1154h2l205 1154h166l-252 -1430h-234l-346 1184h-2l-209 -1184h-166zM500 1606q33 74 90 116.5t124.5 42.5t133 -44t102.5 -44q68 0 115 97l90 -66q-33 -74 -90 -117t-125 -43t-133.5 43t-104.5 43q-68 0 -116 -96z" />
<glyph unicode="&#xd2;" horiz-adv-x="1378" d="M100 500q0 117 22.5 240.5t79 252.5t137.5 229.5t210 165t287 64.5q238 0 362.5 -139t124.5 -383q0 -121 -22.5 -245t-78 -253t-136 -228.5t-211 -163t-289.5 -63.5q-240 0 -363 137.5t-123 385.5zM297 506q0 -373 319 -373q162 0 282 128t173 302t53 357q0 377 -317 376 q-135 0 -239.5 -83t-160 -211t-83 -254.5t-27.5 -241.5zM578 1698l77 133l316 -193l-60 -100z" />
<glyph unicode="&#xd3;" horiz-adv-x="1378" d="M100 500q0 117 22.5 240.5t79 252.5t137.5 229.5t210 165t287 64.5q238 0 362.5 -139t124.5 -383q0 -121 -22.5 -245t-78 -253t-136 -228.5t-211 -163t-289.5 -63.5q-240 0 -363 137.5t-123 385.5zM297 506q0 -373 319 -373q162 0 282 128t173 302t53 357q0 377 -317 376 q-135 0 -239.5 -83t-160 -211t-83 -254.5t-27.5 -241.5zM793 1638l327 193l68 -133l-346 -160z" />
<glyph unicode="&#xd4;" horiz-adv-x="1378" d="M100 500q0 117 22.5 240.5t79 252.5t137.5 229.5t210 165t287 64.5q238 0 362.5 -139t124.5 -383q0 -121 -22.5 -245t-78 -253t-136 -228.5t-211 -163t-289.5 -63.5q-240 0 -363 137.5t-123 385.5zM297 506q0 -373 319 -373q162 0 282 128t173 302t53 357q0 377 -317 376 q-135 0 -239.5 -83t-160 -211t-83 -254.5t-27.5 -241.5zM614 1636l291 191l230 -189l-68 -96l-180 131l-223 -131z" />
<glyph unicode="&#xd5;" horiz-adv-x="1378" d="M100 500q0 117 22.5 240.5t79 252.5t137.5 229.5t210 165t287 64.5q238 0 362.5 -139t124.5 -383q0 -121 -22.5 -245t-78 -253t-136 -228.5t-211 -163t-289.5 -63.5q-240 0 -363 137.5t-123 385.5zM297 506q0 -373 319 -373q162 0 282 128t173 302t53 357q0 377 -317 376 q-135 0 -239.5 -83t-160 -211t-83 -254.5t-27.5 -241.5zM549 1606q33 74 90 116.5t124.5 42.5t133.5 -44t102 -44q68 0 115 97l90 -66q-33 -74 -90 -117t-124.5 -43t-133 43t-104.5 43q-68 0 -117 -96z" />
<glyph unicode="&#xd6;" horiz-adv-x="1378" d="M100 500q0 117 22.5 240.5t79 252.5t137.5 229.5t210 165t287 64.5q238 0 362.5 -139t124.5 -383q0 -121 -22.5 -245t-78 -253t-136 -228.5t-211 -163t-289.5 -63.5q-240 0 -363 137.5t-123 385.5zM297 506q0 -373 319 -373q162 0 282 128t173 302t53 357q0 377 -317 376 q-135 0 -239.5 -83t-160 -211t-83 -254.5t-27.5 -241.5zM582 1647q0 47 29.5 77.5t72.5 30.5t69.5 -27.5t26.5 -70.5q0 -47 -29.5 -78t-74.5 -31q-41 0 -67.5 29t-26.5 70zM973 1647q0 47 30.5 77.5t73.5 30.5t68.5 -27.5t25.5 -70.5q0 -47 -29.5 -78t-72.5 -31 q-41 0 -68.5 29t-27.5 70z" />
<glyph unicode="&#xd7;" d="M35 293l385 346l-262 350l125 98l256 -339l374 339l97 -106l-385 -348l262 -348l-125 -101l-256 342l-375 -342z" />
<glyph unicode="&#xd8;" horiz-adv-x="1378" d="M86 -143l152 237q-137 129 -138 393q0 121 22.5 247t79 256t137.5 231.5t210 166t287 64.5q147 0 245 -55l138 213l112 -64l-139 -219q131 -131 131 -383q0 -121 -21.5 -247t-77 -257t-136 -232.5t-210.5 -166t-290 -64.5q-145 0 -240 50l-149 -232zM289 498 q0 -160 55 -236l649 993q-70 45 -186 45q-133 0 -237.5 -78.5t-163 -203.5t-88 -258t-29.5 -262zM438 170q63 -41 178 -41q123 0 225.5 73.5t164 192.5t95.5 257.5t34 277.5q4 145 -50 229z" />
<glyph unicode="&#xd9;" horiz-adv-x="1280" d="M133 367q0 72 14 149l162 914h187l-162 -916q-10 -61 -10 -119q0 -262 235 -262q143 0 240.5 97.5t132.5 287.5l160 912h180l-164 -922q-45 -260 -194.5 -394t-374.5 -134q-193 0 -299.5 97t-106.5 290zM508 1698l78 133l315 -193l-59 -100z" />
<glyph unicode="&#xda;" horiz-adv-x="1280" d="M133 367q0 72 14 149l162 914h187l-162 -916q-10 -61 -10 -119q0 -262 235 -262q143 0 240.5 97.5t132.5 287.5l160 912h180l-164 -922q-45 -260 -194.5 -394t-374.5 -134q-193 0 -299.5 97t-106.5 290zM760 1638l327 193l68 -133l-346 -160z" />
<glyph unicode="&#xdb;" horiz-adv-x="1280" d="M133 367q0 72 14 149l162 914h187l-162 -916q-10 -61 -10 -119q0 -262 235 -262q143 0 240.5 97.5t132.5 287.5l160 912h180l-164 -922q-45 -260 -194.5 -394t-374.5 -134q-193 0 -299.5 97t-106.5 290zM563 1636l291 191l229 -189l-67 -96l-180 131l-224 -131z" />
<glyph unicode="&#xdc;" horiz-adv-x="1280" d="M133 367q0 72 14 149l162 914h187l-162 -916q-10 -61 -10 -119q0 -262 235 -262q143 0 240.5 97.5t132.5 287.5l160 912h180l-164 -922q-45 -260 -194.5 -394t-374.5 -134q-193 0 -299.5 97t-106.5 290zM535 1647q0 47 29.5 77.5t72.5 30.5t69.5 -27.5t26.5 -70.5 q0 -47 -29.5 -78t-74.5 -31q-41 0 -67.5 29t-26.5 70zM926 1647q0 47 30.5 77.5t73.5 30.5t68.5 -27.5t25.5 -70.5q0 -47 -29.5 -78t-72.5 -31q-41 0 -68.5 29t-27.5 70z" />
<glyph unicode="&#xdd;" horiz-adv-x="1054" d="M160 1430h194q86 -371 209 -660q242 328 426 660h201q-291 -481 -567 -820l-105 -610h-182l104 610q-161 359 -280 820zM635 1638l328 193l67 -133l-346 -160z" />
<glyph unicode="&#xde;" horiz-adv-x="1019" d="M61 0l252 1430h183l-43 -242h151q88 0 158 -19q111 -29 172 -110.5t61 -210.5q0 -219 -140 -381t-384 -162h-174l-55 -305h-181zM324 455h176q141 0 220 117.5t79 258.5q0 154 -117 191q-43 14 -102 14h-154z" />
<glyph unicode="&#xdf;" horiz-adv-x="1062" d="M-283 -434l25 131h84q55 0 93 18.5t59.5 59.5t33 77.5t23.5 102.5l194 1114q39 223 164 354t320 131q154 0 231.5 -75.5t77.5 -182.5q0 -86 -33 -150.5t-79 -104.5t-93 -74.5t-79.5 -80.5t-32.5 -106q0 -45 26.5 -83t65.5 -68.5t76.5 -64.5t64.5 -91t27 -129 q0 -147 -106.5 -257t-287.5 -110q-104 0 -180 31l51 144q66 -29 146 -29q82 0 137 54t55 138q0 55 -26.5 99.5t-64.5 75t-74.5 64.5t-63.5 84t-27 114q0 82 33 145.5t80 103t93 77.5t79 88.5t33 111.5q0 135 -154 135q-223 0 -282 -354l-199 -1114q-33 -190 -116 -290.5 t-251 -100.5q-74 0 -123 12z" />
<glyph unicode="&#xe0;" horiz-adv-x="1042" d="M59 326q0 96 18.5 194t60.5 196.5t104.5 173.5t160 122t215.5 47q182 0 355 -60l-176 -999h-144l31 240q-63 -119 -154.5 -192t-197.5 -73q-139 0 -206 94.5t-67 256.5zM246 344q0 -219 131 -219q109 0 215 155.5t137 346.5l45 252q-84 39 -172 39q-78 0 -140.5 -39 t-101 -100.5t-65.5 -139.5t-38 -151.5t-11 -143.5zM428 1464l137 90l189 -286l-101 -70z" />
<glyph unicode="&#xe1;" horiz-adv-x="1042" d="M59 326q0 96 18.5 194t60.5 196.5t104.5 173.5t160 122t215.5 47q182 0 355 -60l-176 -999h-144l31 240q-63 -119 -154.5 -192t-197.5 -73q-139 0 -206 94.5t-67 256.5zM246 344q0 -219 131 -219q109 0 215 155.5t137 346.5l45 252q-84 39 -172 39q-78 0 -140.5 -39 t-101 -100.5t-65.5 -139.5t-38 -151.5t-11 -143.5zM559 1268l232 286l131 -90l-271 -266z" />
<glyph unicode="&#xe2;" horiz-adv-x="1042" d="M59 326q0 96 18.5 194t60.5 196.5t104.5 173.5t160 122t215.5 47q182 0 355 -60l-176 -999h-144l31 240q-63 -119 -154.5 -192t-197.5 -73q-139 0 -206 94.5t-67 256.5zM246 344q0 -219 131 -219q109 0 215 155.5t137 346.5l45 252q-84 39 -172 39q-78 0 -140.5 -39 t-101 -100.5t-65.5 -139.5t-38 -151.5t-11 -143.5zM401 1286l306 275l217 -275l-82 -88l-160 180l-219 -180z" />
<glyph unicode="&#xe3;" horiz-adv-x="1042" d="M59 326q0 96 18.5 194t60.5 196.5t104.5 173.5t160 122t215.5 47q182 0 355 -60l-176 -999h-144l31 240q-63 -119 -154.5 -192t-197.5 -73q-139 0 -206 94.5t-67 256.5zM246 344q0 -219 131 -219q109 0 215 155.5t137 346.5l45 252q-84 39 -172 39q-78 0 -140.5 -39 t-101 -100.5t-65.5 -139.5t-38 -151.5t-11 -143.5zM356 1323q76 164 215 164q68 0 127.5 -44t96.5 -44q66 0 120 98l82 -67q-72 -164 -213 -164q-68 0 -129 44t-98 44q-63 0 -119 -99z" />
<glyph unicode="&#xe4;" horiz-adv-x="1042" d="M59 326q0 96 18.5 194t60.5 196.5t104.5 173.5t160 122t215.5 47q182 0 355 -60l-176 -999h-144l31 240q-63 -119 -154.5 -192t-197.5 -73q-139 0 -206 94.5t-67 256.5zM246 344q0 -219 131 -219q109 0 215 155.5t137 346.5l45 252q-84 39 -172 39q-78 0 -140.5 -39 t-101 -100.5t-65.5 -139.5t-38 -151.5t-11 -143.5zM391 1370q0 49 31 81t76 32q43 0 70.5 -29t27.5 -70q0 -49 -30.5 -80.5t-76.5 -31.5q-43 0 -70.5 28.5t-27.5 69.5zM748 1370q0 49 30.5 81t75.5 32q43 0 70.5 -29t27.5 -70q0 -49 -30.5 -80.5t-75.5 -31.5 q-43 0 -70.5 28.5t-27.5 69.5z" />
<glyph unicode="&#xe5;" horiz-adv-x="1042" d="M59 326q0 96 18.5 194t60.5 196.5t104.5 173.5t160 122t215.5 47q182 0 355 -60l-176 -999h-144l31 240q-63 -119 -154.5 -192t-197.5 -73q-139 0 -206 94.5t-67 256.5zM246 344q0 -219 131 -219q109 0 215 155.5t137 346.5l45 252q-84 39 -172 39q-78 0 -140.5 -39 t-101 -100.5t-65.5 -139.5t-38 -151.5t-11 -143.5zM469 1333q0 100 59.5 171t167.5 71q80 0 124 -42t44 -118q0 -98 -60.5 -168.5t-164.5 -70.5q-82 0 -126 41.5t-44 115.5zM580 1346q0 -80 73 -80q45 0 73 43t28 98q0 78 -72 78q-45 0 -73.5 -42t-28.5 -97z" />
<glyph unicode="&#xe6;" horiz-adv-x="1536" d="M23 225q0 176 138 278.5t437 102.5h70l12 80q8 43 8 88q0 78 -41 115t-135 37q-133 0 -283 -62l-10 137q164 66 338 66q225 0 270 -156q131 156 336 156q143 0 222 -67.5t79 -178.5q0 -168 -147.5 -257t-499.5 -91q-10 -49 -10 -123q0 -117 51 -174t170 -57q135 0 291 53 l6 -139q-166 -57 -336 -58q-279 0 -332 205q-53 -90 -148 -147.5t-208 -57.5q-131 0 -204.5 65.5t-73.5 184.5zM207 248q0 -63 33.5 -98t95.5 -35q119 0 197.5 90t101.5 221l8 51h-68q-195 0 -281.5 -58t-86.5 -171zM840 602q176 0 278.5 27.5t135 70.5t32.5 109 q0 57 -38 91t-103 34q-113 0 -191.5 -92.5t-113.5 -239.5z" />
<glyph unicode="&#xe7;" horiz-adv-x="821" d="M57 350q0 117 31 236t92.5 229.5t170 179t247.5 68.5q141 0 233 -55l-59 -136q-90 45 -174 46q-98 0 -172 -59.5t-110.5 -151t-54 -177.5t-17.5 -159q0 -242 207 -242q98 0 208 47l11 -141q-92 -41 -211 -51l20 -76q18 -61 19 -98q0 -68 -54.5 -111t-171.5 -43 q-96 0 -170 25l19 108h172q57 0 57 37q0 10 -8 55l-23 109q-262 38 -262 360z" />
<glyph unicode="&#xe8;" horiz-adv-x="972" d="M59 334q0 113 27 229.5t84 235.5t169 193.5t259 74.5q143 0 222 -67.5t79 -178.5q0 -162 -144.5 -256t-504.5 -98q-8 -57 -8 -119q0 -117 51 -173t170 -56q135 0 291 53l6 -139q-166 -57 -338 -58q-363 1 -363 359zM274 596q250 0 348.5 56.5t98.5 156.5q0 57 -38 91 t-103 34q-115 0 -193 -93t-113 -245zM399 1464l138 90l188 -286l-100 -70z" />
<glyph unicode="&#xe9;" horiz-adv-x="972" d="M59 334q0 113 27 229.5t84 235.5t169 193.5t259 74.5q143 0 222 -67.5t79 -178.5q0 -162 -144.5 -256t-504.5 -98q-8 -57 -8 -119q0 -117 51 -173t170 -56q135 0 291 53l6 -139q-166 -57 -338 -58q-363 1 -363 359zM274 596q250 0 348.5 56.5t98.5 156.5q0 57 -38 91 t-103 34q-115 0 -193 -93t-113 -245zM541 1268l231 286l131 -90l-270 -266z" />
<glyph unicode="&#xea;" horiz-adv-x="972" d="M59 334q0 113 27 229.5t84 235.5t169 193.5t259 74.5q143 0 222 -67.5t79 -178.5q0 -162 -144.5 -256t-504.5 -98q-8 -57 -8 -119q0 -117 51 -173t170 -56q135 0 291 53l6 -139q-166 -57 -338 -58q-363 1 -363 359zM274 596q250 0 348.5 56.5t98.5 156.5q0 57 -38 91 t-103 34q-115 0 -193 -93t-113 -245zM377 1286l305 275l217 -275l-82 -88l-160 180l-219 -180z" />
<glyph unicode="&#xeb;" horiz-adv-x="972" d="M59 334q0 113 27 229.5t84 235.5t169 193.5t259 74.5q143 0 222 -67.5t79 -178.5q0 -162 -144.5 -256t-504.5 -98q-8 -57 -8 -119q0 -117 51 -173t170 -56q135 0 291 53l6 -139q-166 -57 -338 -58q-363 1 -363 359zM274 596q250 0 348.5 56.5t98.5 156.5q0 57 -38 91 t-103 34q-115 0 -193 -93t-113 -245zM362 1370q0 49 31 81t76 32q43 0 70.5 -29t27.5 -70q0 -49 -30.5 -80.5t-75.5 -31.5q-43 0 -71 28.5t-28 69.5zM719 1370q0 49 30.5 81t75.5 32q43 0 71 -29t28 -70q0 -49 -31 -80.5t-76 -31.5q-43 0 -70.5 28.5t-27.5 69.5z" />
<glyph unicode="&#xec;" horiz-adv-x="507" d="M86 0l160 905h-152l25 139h325l-182 -1044h-176zM174 1464l137 90l189 -286l-101 -70z" />
<glyph unicode="&#xed;" horiz-adv-x="507" d="M86 0l160 905h-152l25 139h325l-182 -1044h-176zM264 1268l232 286l131 -90l-271 -266z" />
<glyph unicode="&#xee;" horiz-adv-x="507" d="M86 0l160 905h-152l25 139h325l-182 -1044h-176zM111 1286l305 275l217 -275l-82 -88l-160 180l-219 -180z" />
<glyph unicode="&#xef;" horiz-adv-x="507" d="M86 0l160 905h-152l25 139h325l-182 -1044h-176zM121 1370q0 49 30.5 81t75.5 32q43 0 71 -29t28 -70q0 -49 -31 -80.5t-76 -31.5q-43 0 -70.5 28.5t-27.5 69.5zM461 1370q0 49 30.5 81t75.5 32q43 0 70 -29t27 -70q0 -51 -30 -81.5t-77 -30.5q-43 0 -69.5 28.5 t-26.5 69.5z" />
<glyph unicode="&#xf0;" horiz-adv-x="1085" d="M63 373q0 272 147.5 476t383.5 204q139 0 201 -103q-31 145 -113 291l-215 -84l-49 113l205 80q-47 78 -113 151l178 60q57 -63 111 -150l233 90l49 -112l-225 -89q135 -272 135 -563q0 -199 -61.5 -367.5t-192.5 -281.5t-311 -113q-178 0 -270.5 105t-92.5 293zM248 375 q0 -254 201 -254q90 0 160.5 54t110.5 138t60.5 171t20.5 165q0 117 -55.5 190.5t-157.5 73.5q-104 0 -185 -88t-118 -207.5t-37 -242.5z" />
<glyph unicode="&#xf1;" horiz-adv-x="1067" d="M43 0l182 1044h142l-27 -239q61 115 155.5 188.5t204.5 73.5q252 0 252 -283q0 -51 -14 -141l-115 -643h-174l109 618q14 78 14 144q0 158 -123 158q-109 0 -216 -155t-140 -337l-76 -428h-174zM356 1323q76 164 215 164q68 0 127.5 -44t96.5 -44q66 0 120 98l82 -67 q-72 -164 -213 -164q-68 0 -129 44t-98 44q-63 0 -119 -99z" />
<glyph unicode="&#xf2;" horiz-adv-x="1056" d="M59 371q0 96 20.5 191t64.5 187.5t107.5 162t157 112.5t203.5 43q180 0 272.5 -103.5t92.5 -291.5q0 -121 -34 -240t-98.5 -223.5t-174 -169t-246.5 -64.5q-180 0 -272.5 104t-92.5 292zM246 379q0 -256 200 -256q109 0 190 86t116.5 206t35.5 244q0 262 -198 263 q-109 0 -190 -87t-117.5 -208t-36.5 -248zM424 1464l137 90l189 -286l-101 -70z" />
<glyph unicode="&#xf3;" horiz-adv-x="1056" d="M59 371q0 96 20.5 191t64.5 187.5t107.5 162t157 112.5t203.5 43q180 0 272.5 -103.5t92.5 -291.5q0 -121 -34 -240t-98.5 -223.5t-174 -169t-246.5 -64.5q-180 0 -272.5 104t-92.5 292zM246 379q0 -256 200 -256q109 0 190 86t116.5 206t35.5 244q0 262 -198 263 q-109 0 -190 -87t-117.5 -208t-36.5 -248zM551 1268l231 286l131 -90l-270 -266z" />
<glyph unicode="&#xf4;" horiz-adv-x="1056" d="M59 371q0 96 20.5 191t64.5 187.5t107.5 162t157 112.5t203.5 43q180 0 272.5 -103.5t92.5 -291.5q0 -121 -34 -240t-98.5 -223.5t-174 -169t-246.5 -64.5q-180 0 -272.5 104t-92.5 292zM246 379q0 -256 200 -256q109 0 190 86t116.5 206t35.5 244q0 262 -198 263 q-109 0 -190 -87t-117.5 -208t-36.5 -248zM399 1286l306 275l217 -275l-82 -88l-160 180l-219 -180z" />
<glyph unicode="&#xf5;" horiz-adv-x="1056" d="M59 371q0 96 20.5 191t64.5 187.5t107.5 162t157 112.5t203.5 43q180 0 272.5 -103.5t92.5 -291.5q0 -121 -34 -240t-98.5 -223.5t-174 -169t-246.5 -64.5q-180 0 -272.5 104t-92.5 292zM246 379q0 -256 200 -256q109 0 190 86t116.5 206t35.5 244q0 262 -198 263 q-109 0 -190 -87t-117.5 -208t-36.5 -248zM350 1323q76 164 215 164q66 0 127.5 -44t95.5 -44q66 0 121 98l82 -67q-72 -164 -213 -164q-68 0 -129 44t-98 44q-63 0 -119 -99z" />
<glyph unicode="&#xf6;" horiz-adv-x="1056" d="M59 371q0 96 20.5 191t64.5 187.5t107.5 162t157 112.5t203.5 43q180 0 272.5 -103.5t92.5 -291.5q0 -121 -34 -240t-98.5 -223.5t-174 -169t-246.5 -64.5q-180 0 -272.5 104t-92.5 292zM246 379q0 -256 200 -256q109 0 190 86t116.5 206t35.5 244q0 262 -198 263 q-109 0 -190 -87t-117.5 -208t-36.5 -248zM389 1370q0 49 31 81t76 32q43 0 70.5 -29t27.5 -70q0 -49 -31 -80.5t-76 -31.5q-43 0 -70.5 28.5t-27.5 69.5zM745 1370q0 49 31 81t76 32q43 0 70.5 -29t27.5 -70q0 -49 -30.5 -80.5t-75.5 -31.5q-43 0 -71 28.5t-28 69.5z" />
<glyph unicode="&#xf7;" d="M68 561l26 150h873l-29 -150h-870zM322 225q0 57 37.5 96t91.5 39q51 0 84.5 -35.5t33.5 -84.5q0 -59 -37.5 -97.5t-91 -38.5t-86 35t-32.5 86zM467 1036q0 57 37 95t92 38q51 0 85 -35.5t34 -84.5q0 -57 -38 -96.5t-93 -39.5q-51 0 -84 36t-33 87z" />
<glyph unicode="&#xf8;" horiz-adv-x="1056" d="M39 -150l129 207q-109 92 -109 305q0 125 34 246t98.5 225.5t175 169t249.5 64.5q96 0 168 -31l138 213l104 -55l-141 -219q100 -94 100 -295q0 -125 -33.5 -246t-99.5 -225.5t-176.5 -169t-249.5 -64.5q-90 0 -154 27l-131 -205zM236 389q0 -119 34 -172l432 686 q-41 27 -108 27q-168 0 -263 -166t-95 -375zM352 133q41 -18 97 -18q115 0 199.5 84t123.5 202.5t39 247.5q0 106 -29 164z" />
<glyph unicode="&#xf9;" horiz-adv-x="1067" d="M94 260q0 70 15 141l112 643h174l-108 -620q-14 -92 -15 -141q0 -158 123 -158q111 0 217.5 153.5t139.5 337.5l75 428h177l-185 -1044h-143l31 240q-61 -117 -155.5 -191t-205.5 -74q-252 0 -252 285zM399 1464l138 90l188 -286l-100 -70z" />
<glyph unicode="&#xfa;" horiz-adv-x="1067" d="M94 260q0 70 15 141l112 643h174l-108 -620q-14 -92 -15 -141q0 -158 123 -158q111 0 217.5 153.5t139.5 337.5l75 428h177l-185 -1044h-143l31 240q-61 -117 -155.5 -191t-205.5 -74q-252 0 -252 285zM549 1268l231 286l131 -90l-270 -266z" />
<glyph unicode="&#xfb;" horiz-adv-x="1067" d="M94 260q0 70 15 141l112 643h174l-108 -620q-14 -92 -15 -141q0 -158 123 -158q111 0 217.5 153.5t139.5 337.5l75 428h177l-185 -1044h-143l31 240q-61 -117 -155.5 -191t-205.5 -74q-252 0 -252 285zM385 1286l305 275l217 -275l-82 -88l-159 180l-220 -180z" />
<glyph unicode="&#xfc;" horiz-adv-x="1067" d="M94 260q0 70 15 141l112 643h174l-108 -620q-14 -92 -15 -141q0 -158 123 -158q111 0 217.5 153.5t139.5 337.5l75 428h177l-185 -1044h-143l31 240q-61 -117 -155.5 -191t-205.5 -74q-252 0 -252 285zM375 1370q0 49 30.5 81t75.5 32q43 0 71 -29t28 -70 q0 -49 -31 -80.5t-76 -31.5q-43 0 -70.5 28.5t-27.5 69.5zM731 1370q0 49 31 81t76 32q43 0 70.5 -29t27.5 -70q0 -49 -31 -80.5t-76 -31.5q-43 0 -70.5 28.5t-27.5 69.5z" />
<glyph unicode="&#xfd;" horiz-adv-x="905" d="M-125 -428l29 133h98q53 0 110.5 60.5t159.5 232.5q-121 522 -149 1046h176q23 -348 78 -700q4 -18 20 -158h2q45 98 74 156q156 334 291 702h180q-268 -670 -491 -1044q-154 -258 -256.5 -352t-210.5 -94q-60 0 -111 18zM492 1268l231 286l131 -90l-270 -266z" />
<glyph unicode="&#xfe;" horiz-adv-x="1042" d="M-33 -426l346 1962h176l-90 -506q-31 -152 -47 -213q57 111 145.5 180.5t192.5 69.5q139 0 206 -94t67 -254q0 -123 -31 -246t-93.5 -235.5t-175 -182t-257.5 -69.5q-100 0 -187 20l-76 -432h-176zM248 166q78 -39 172 -39t168 57.5t112.5 148.5t57 184t18.5 181 q0 221 -133 222q-109 0 -214 -158t-136 -340z" />
<glyph unicode="&#xff;" horiz-adv-x="905" d="M-125 -428l29 133h98q53 0 110.5 60.5t159.5 232.5q-121 522 -149 1046h176q23 -348 78 -700q4 -18 20 -158h2q45 98 74 156q156 334 291 702h180q-268 -670 -491 -1044q-154 -258 -256.5 -352t-210.5 -94q-60 0 -111 18zM301 1370q0 49 30.5 81t76.5 32q43 0 70.5 -29 t27.5 -70q0 -49 -31 -80.5t-76 -31.5q-43 0 -70.5 28.5t-27.5 69.5zM657 1370q0 49 31 81t76 32q43 0 70.5 -29t27.5 -70q0 -49 -30.5 -80.5t-75.5 -31.5q-43 0 -71 28.5t-28 69.5z" />
<glyph unicode="&#x152;" horiz-adv-x="1685" d="M100 500q0 117 22.5 240.5t79 252.5t137.5 229.5t210 165t287 64.5q90 0 188 -22h686l-29 -152h-514l-82 -461h451l-27 -149h-448l-92 -516h524l-27 -152h-690q-102 -23 -190 -23q-240 0 -363 137.5t-123 385.5zM295 506q0 -373 321 -373q90 0 175 37l190 1085 q-76 41 -174 41q-135 0 -239.5 -83t-161 -211t-84 -254.5t-27.5 -241.5z" />
<glyph unicode="&#x153;" horiz-adv-x="1669" d="M59 371q0 96 20.5 191t64.5 187.5t107.5 162t157 112.5t203.5 43q238 0 314 -199q141 199 370 199q143 0 222 -67.5t79 -178.5q0 -162 -144 -256t-505 -98q-10 -72 -10 -119q0 -117 51 -173t172 -56q135 0 291 53l6 -139q-164 -57 -336 -58q-256 0 -321 195 q-147 -195 -377 -195q-180 0 -272.5 104t-92.5 292zM246 379q0 -256 200 -256q109 0 190 86t116.5 206t35.5 244q0 262 -198 263q-109 0 -190 -87t-117.5 -208t-36.5 -248zM973 596q250 0 348 56.5t98 156.5q0 57 -39 91t-104 34q-113 0 -190.5 -94t-112.5 -244z" />
<glyph unicode="&#x178;" horiz-adv-x="1054" d="M160 1430h194q86 -371 209 -660q242 328 426 660h201q-291 -481 -567 -820l-105 -610h-182l104 610q-161 359 -280 820zM420 1647q0 47 29.5 77.5t72.5 30.5t69.5 -27.5t26.5 -70.5q0 -47 -29.5 -78t-74.5 -31q-41 0 -67.5 29t-26.5 70zM811 1647q0 47 30.5 77.5 t73.5 30.5t69 -27.5t26 -70.5q0 -47 -30 -78t-73 -31q-41 0 -68.5 29t-27.5 70z" />
<glyph unicode="&#x2c6;" horiz-adv-x="649" d="M125 1286l305 275l217 -275l-82 -88l-159 180l-220 -180z" />
<glyph unicode="&#x2dc;" horiz-adv-x="743" d="M133 1323q76 164 215 164q66 0 127.5 -44t95.5 -44q66 0 121 98l82 -67q-72 -164 -213 -164q-68 0 -129 44t-98 44q-63 0 -119 -99z" />
<glyph unicode="&#x2013;" d="M-6 549l29 151h1024l-29 -151h-1024z" />
<glyph unicode="&#x2014;" horiz-adv-x="1945" d="M170 549l29 153h1591l-27 -153h-1593z" />
<glyph unicode="&#x2018;" horiz-adv-x="495" d="M223 1112q0 190 297 449l76 -76q-160 -162 -160 -250q0 -18 13.5 -51t13.5 -64q0 -55 -34 -95t-89 -40q-53 0 -85 34t-32 93z" />
<glyph unicode="&#x2019;" horiz-adv-x="495" d="M131 999q160 162 160 252q0 16 -13.5 50t-13.5 65q0 53 34 93t89 40q53 0 85 -33.5t32 -91.5q0 -195 -297 -448z" />
<glyph unicode="&#x201a;" horiz-adv-x="495" d="M-90 -256q160 162 160 252q0 16 -12.5 50t-12.5 65q0 53 34 93t89 40q53 0 85 -34t32 -91q0 -195 -299 -449z" />
<glyph unicode="&#x201c;" horiz-adv-x="841" d="M223 1116q0 186 295 440l74 -71q-164 -166 -164 -252q0 -14 13.5 -48t13.5 -63q0 -51 -34 -90t-87 -39q-51 0 -81 33t-30 90zM580 1116q0 190 290 430l72 -71q-156 -154 -156 -242q0 -14 12.5 -48t12.5 -63q0 -51 -34 -90t-85 -39t-81.5 33t-30.5 90z" />
<glyph unicode="&#x201d;" horiz-adv-x="841" d="M133 1012q156 154 156 241q0 16 -12.5 50t-12.5 61q0 51 34 90t85 39t82 -33t31 -88q0 -186 -291 -432zM483 1004q162 162 162 249q0 16 -12 50t-12 61q0 51 33.5 90t84.5 39q53 0 83 -31.5t30 -89.5q0 -186 -295 -440z" />
<glyph unicode="&#x201e;" horiz-adv-x="845" d="M-88 -242q158 156 158 244q0 14 -13.5 48t-13.5 63q0 51 34 90t87 39q51 0 80.5 -33t29.5 -90q0 -188 -288 -432zM264 -248q162 160 162 250q0 14 -12.5 48t-12.5 63q0 51 34 90t87 39q51 0 81 -33t30 -90q0 -186 -295 -441z" />
<glyph unicode="&#x2022;" d="M205 698q0 147 100.5 246.5t239.5 99.5q133 0 226 -93t93 -226q0 -147 -100 -247.5t-238 -100.5q-135 0 -228 94t-93 227z" />
<glyph unicode="&#x2026;" horiz-adv-x="1409" d="M45 109q0 59 39 99t94 40q53 0 87 -37t34 -88q0 -61 -39 -101t-94 -40q-51 0 -86 37t-35 90zM494 109q0 59 38.5 99t94.5 40q53 0 87 -37t34 -88q0 -61 -38 -101t-94 -40q-53 0 -87.5 37t-34.5 90zM942 109q0 59 39 99t94 40q53 0 87 -37t34 -88q0 -61 -38 -101t-93 -40 q-53 0 -88 37t-35 90z" />
<glyph unicode="&#x2039;" horiz-adv-x="686" d="M96 580l340 452l127 -63l-278 -402l137 -401l-137 -51z" />
<glyph unicode="&#x203a;" horiz-adv-x="686" d="M119 178l278 402l-137 401l137 51l189 -465l-340 -452z" />
<glyph unicode="&#x20ac;" d="M16 446l21 123h129q0 6 7 54.5t11 76.5q10 63 29 134h-129l22 124h144q82 244 226.5 368t326.5 124q145 0 252 -72l-72 -131q-96 53 -201 53q-233 0 -350 -342h356l-22 -124h-369q-14 -47 -26 -121q-10 -57 -19 -144h367l-21 -123h-352q0 -315 246 -315q121 0 221 53 l29 -135q-121 -70 -299 -69q-391 0 -385 466h-142z" />
<glyph unicode="&#x2122;" horiz-adv-x="1275" d="M197 1325l18 105h401l-20 -105h-141l-86 -494h-119l88 494h-141zM573 831q49 281 127 599h166l47 -447l201 447h172q-33 -299 -86 -599h-117q33 174 74 463l-215 -463h-121l-53 463q-4 -20 -38 -192t-50 -271h-107z" />
<glyph unicode="&#xe000;" horiz-adv-x="1045" d="M0 1045h1045v-1045h-1045v1045z" />
<glyph unicode="&#xfb01;" horiz-adv-x="1069" d="M-240 -434l23 131h86q55 0 93 18.5t59.5 59.5t33 78.5t21.5 101.5l168 950h-146l25 139h145l23 127q33 186 115.5 285.5t250.5 99.5q72 0 123 -12l-24 -131h-86q-55 0 -92 -18.5t-59.5 -60.5t-33 -77.5t-22.5 -101.5l-21 -111h564l-185 -1044h-176l160 905h-387 l-170 -966q-33 -186 -116 -285.5t-249 -99.5q-76 0 -123 12zM850 1364q0 57 35 93t88 36q49 0 80.5 -31.5t31.5 -81.5q0 -57 -34.5 -94t-87.5 -37q-49 0 -81 33t-32 82z" />
<glyph unicode="&#xfb02;" horiz-adv-x="1107" d="M-240 -434l23 131h86q55 0 93 18.5t59.5 59.5t33 78.5t21.5 101.5l168 950h-146l25 139h145l19 97q37 207 143.5 311t321.5 104q154 0 340 -28l-226 -1282q-23 -113 56 -113h69l-24 -133q-49 -14 -119 -14q-205 0 -164 221l209 1192q-88 14 -174 14q-121 0 -179.5 -71.5 t-78.5 -200.5l-19 -97h211l-24 -139h-211l-168 -960q-35 -193 -118 -292t-249 -99q-76 0 -123 12z" />
<glyph unicode="&#xfb03;" horiz-adv-x="1740" d="M1319 0l160 905h-152l25 139h325l-182 -1044h-176zM1522 1364q0 57 34.5 93t88.5 36q49 0 81.5 -33t32.5 -80q0 -57 -35.5 -94t-87 -37t-83 33t-31.5 82zM376 -434l23 131h86q55 0 93 18.5t59.5 59.5t33 78.5t21.5 101.5l168 950h-146l25 139h145l23 127 q33 186 115.5 285.5t250.5 99.5q74 0 123 -12l-22 -131h-88q-55 0 -92 -18.5t-59.5 -60.5t-33 -77.5t-22.5 -101.5l-21 -111h215l-22 -139h-217l-170 -966q-33 -186 -116 -285.5t-249 -99.5q-76 0 -123 12zM-240 -434l23 131h86q55 0 93 18.5t59.5 59.5t33 78.5t21.5 101.5 l168 950h-146l25 139h145l23 127q33 186 115.5 285.5t250.5 99.5q74 0 123 -12l-22 -131h-88q-55 0 -92 -18.5t-59.5 -60.5t-33 -77.5t-22.5 -101.5l-21 -111h215l-22 -139h-217l-170 -966q-33 -186 -116 -285.5t-249 -99.5q-76 0 -123 12z" />
<glyph unicode="&#xfb04;" horiz-adv-x="1736" d="M1313 211l233 1325h176l-229 -1290q-5 -26 -5 -46q0 -24 7 -39q12 -28 53 -28h72l-25 -133q-53 -14 -118 -14q-171 0 -171 156q0 31 7 69zM376 -434l23 131h86q55 0 93 18.5t59.5 59.5t33 78.5t21.5 101.5l168 950h-146l25 139h145l23 127q33 186 115.5 285.5t250.5 99.5 q74 0 123 -12l-22 -131h-88q-55 0 -92 -18.5t-59.5 -60.5t-33 -77.5t-22.5 -101.5l-21 -111h215l-22 -139h-217l-170 -966q-33 -186 -116 -285.5t-249 -99.5q-76 0 -123 12zM-240 -434l23 131h86q55 0 93 18.5t59.5 59.5t33 78.5t21.5 101.5l168 950h-146l25 139h145l23 127 q33 186 115.5 285.5t250.5 99.5q74 0 123 -12l-22 -131h-88q-55 0 -92 -18.5t-59.5 -60.5t-33 -77.5t-22.5 -101.5l-21 -111h215l-22 -139h-217l-170 -966q-33 -186 -116 -285.5t-249 -99.5q-76 0 -123 12z" />
</font>
</defs>
</svg>
